/* XPM */
static char * top_left_active_xpm[] = {
"15 18 65 1",
" 	c None",
".	c #C2C2C2",
"+	c #C2C3C3",
"@	c #C3C3C3",
"#	c #C3C2C3",
"$	c #C3C3C2",
"%	c #C3C3C4",
"&	c #C4C3C3",
"*	c #C4C4C4",
"=	c #C3C4C4",
"-	c #C4C3C4",
";	c #C4C5C5",
">	c #C5C5C5",
",	c #C5C5C4",
"'	c #C6C6C6",
")	c #C6C5C6",
"!	c #C6C6C5",
"~	c #C5C6C6",
"{	c #C5C5C6",
"]	c #C5C6C5",
"^	c #C7C7C7",
"/	c #C7C6C7",
"(	c #C6C7C7",
"_	c #C6C7C6",
":	c #C8C8C8",
"<	c #C8C7C8",
"[	c #C7C8C8",
"}	c #C8C8C7",
"|	c #C8C7C7",
"1	c #C9C8C9",
"2	c #C8C9C9",
"3	c #C9C8C8",
"4	c #C9C9C9",
"5	c #C9C9C8",
"6	c #C8C9C8",
"7	c #C8C8C9",
"8	c #C9CAC9",
"9	c #C9C9CA",
"0	c #C9CACA",
"a	c #CACACA",
"b	c #CAC9CA",
"c	c #CACAC9",
"d	c #CBCACA",
"e	c #CBCBCA",
"f	c #CBCBCB",
"g	c #CACACB",
"h	c #CBCACB",
"i	c #CACBCB",
"j	c #CBCCCC",
"k	c #CBCCCB",
"l	c #CCCBCB",
"m	c #CCCCCC",
"n	c #CCCCCB",
"o	c #CDCDCD",
"p	c #CDCDCC",
"q	c #CCCCCD",
"r	c #CDCCCD",
"s	c #CCCDCD",
"t	c #CDCCCC",
"u	c #CECECD",
"v	c #CECDCE",
"w	c #CDCDCE",
"x	c #CECECE",
"y	c #CECDCD",
"z	c #CDCECE",
" ..............",
"+@#+@@#$@+@#@+@",
"%&*%==@*--&=***",
"***************",
";>>>>>;,>>,;>>>",
"')'!>>~{{{']!'>",
"'''''''''''''''",
"^^^/^^^^^(^/^_^",
":<[}:<::|:<|||:",
":::::::::::::::",
"123454526414174",
"4890a9bc0c9c99b",
"abaaaaaaaaaaaaa",
"defgfdffehihffe",
"jkjlkmnmjklmknm",
"mmmmmmmmmmmmmmm",
"opooqoorpqooost",
"uvuwxxyuuyzvzov"};
