/* XPM */
static char * hide_prelight_xpm[] = {
"23 23 97 2",
"  	c None",
". 	c #CECECE",
"+ 	c #D0D0D0",
"@ 	c #D2D2D2",
"# 	c #C8C8C8",
"$ 	c #BFBFBF",
"% 	c #B7B7B7",
"& 	c #C0C0C0",
"* 	c #C9C9C9",
"= 	c #D3D3D3",
"- 	c #BBBBBB",
"; 	c #B2B2B2",
"> 	c #BABABA",
", 	c #B3B3B3",
"' 	c #B1B1B1",
") 	c #AEAEAE",
"! 	c #A2A2A2",
"~ 	c #9B9B9B",
"{ 	c #959595",
"] 	c #A3A3A3",
"^ 	c #C1C1C1",
"/ 	c #C5C5C5",
"( 	c #DADADA",
"_ 	c #E9E9E9",
": 	c #C4C4C4",
"< 	c #939393",
"[ 	c #A9A9A9",
"} 	c #E7E7E7",
"| 	c #ECECEC",
"1 	c #EAEAEA",
"2 	c #E8E8E8",
"3 	c #AAAAAA",
"4 	c #CDCDCD",
"5 	c #B9B9B9",
"6 	c #9D9D9D",
"7 	c #A6A6A6",
"8 	c #E5E5E5",
"9 	c #E3E3E3",
"0 	c #A4A4A4",
"a 	c #AFAFAF",
"b 	c #868686",
"c 	c #DBDBDB",
"d 	c #DDDDDD",
"e 	c #848484",
"f 	c #969696",
"g 	c #D9D9D9",
"h 	c #D5D5D5",
"i 	c #747474",
"j 	c #D4D4D4",
"k 	c #ADADAD",
"l 	c #B0B0B0",
"m 	c #858585",
"n 	c #CFCFCF",
"o 	c #CCCCCC",
"p 	c #494949",
"q 	c #787878",
"r 	c #BDBDBD",
"s 	c #737373",
"t 	c #CBCBCB",
"u 	c #C6C6C6",
"v 	c #646464",
"w 	c #616161",
"x 	c #7B7B7B",
"y 	c #C7C7C7",
"z 	c #CACACA",
"A 	c #707070",
"B 	c #C3C3C3",
"C 	c #686868",
"D 	c #828282",
"E 	c #6A6A6A",
"F 	c #7E7E7E",
"G 	c #BCBCBC",
"H 	c #656565",
"I 	c #6C6C6C",
"J 	c #ACACAC",
"K 	c #898989",
"L 	c #929292",
"M 	c #B8B8B8",
"N 	c #565656",
"O 	c #626262",
"P 	c #4F4F4F",
"Q 	c #636363",
"R 	c #B4B4B4",
"S 	c #888888",
"T 	c #727272",
"U 	c #B5B5B5",
"V 	c #6D6D6D",
"W 	c #838383",
"X 	c #545454",
"Y 	c #7D7D7D",
"Z 	c #7C7C7C",
"` 	c #535353",
" .	c #A1A1A1",
"..	c #666666",
"+.	c #505050",
"@.	c #ABABAB",
"#.	c #BEBEBE",
". . . . . . + + + + + + + + + + + + . . . . . ",
". . . . . . + @ # $ % % & * = + + + . . . . . ",
". . . . . * - ; ; ; ; ; ; ; ; > * . . . . . . ",
". . . . & , ' ) ! ~ { { ~ ] ) ' , ^ . . . . . ",
". . . & ; ; ! { / ( _ _ ( : { ! ; ' ^ . . . . ",
". . * ; ' < [ } | 1 2 2 1 | } 3 < ' ; * . . . ",
". 4 5 ' 6 7 1 8 9 9 9 9 9 9 8 1 0 6 ' > 4 . . ",
". / a 3 b c d c c c ( ( ( ( ( d ( e 3 a / . . ",
". $ ' f a g @ h i j = @ @ @ @ @ g k f l $ . . ",
". 5 ' m $ n o . p q . 4 o o o o n r m ; > . . ",
". ' ' s t u / # v w x y / / / / u z s ' , . . ",
". ' ; A : & $ B C D E F ^ $ $ $ & B A ; , . . ",
". > ' x k $ G $ H F m I x $ G G $ J x ' > . . ",
". $ a K L r M - N O H H P A - M r L K a $ . . ",
". / k 7 Q , % M . . . . . B M % ; O 7 k / . . ",
". 4 R l S s % R ; ; ; ; ; ; R % T S a U 4 . . ",
". . * k ' I V 3 ; ; ' ' ; ; 3 V I ; ) * . . . ",
". . . & k ' W X Y { [ [ { Z ` W ' J ^ . . . . ",
". . . . & J a  .x ..+.+...x  .) k ^ . . . . . ",
". . . . . * ; J ) l ; ' a ) @.; * . . . . . . ",
". . . . . . 4 : r R k k R #./ 4 . . . . . . . ",
". . . . . . . . . . . . . . . . . . . . . . . ",
". . . . . . . . . . . . . . . . . . . . . . . "};
