/* XPM */
static char * close_active_xpm[] = {
"15 18 119 2",
"  	c None",
". 	c #656565",
"+ 	c #555555",
"@ 	c #545454",
"# 	c #545554",
"$ 	c #545455",
"% 	c #555454",
"& 	c #535353",
"* 	c #535354",
"= 	c #585859",
"- 	c #808080",
"; 	c #B2B2B2",
"> 	c #C6C6C6",
", 	c #545453",
"' 	c #545353",
") 	c #525253",
"! 	c #BABABA",
"~ 	c #B8B8B8",
"{ 	c #878787",
"] 	c #717271",
"^ 	c #727172",
"/ 	c #666565",
"( 	c #535252",
"_ 	c #565657",
": 	c #B9B9B9",
"< 	c #979797",
"[ 	c #535454",
"} 	c #515151",
"| 	c #515251",
"1 	c #515152",
"2 	c #575657",
"3 	c #515252",
"4 	c #525251",
"5 	c #525152",
"6 	c #7F7E7E",
"7 	c #B7B7B7",
"8 	c #787878",
"9 	c #9A9A9A",
"0 	c #7D7D7E",
"a 	c #505151",
"b 	c #515051",
"c 	c #858585",
"d 	c #504F4F",
"e 	c #999999",
"f 	c #CECECE",
"g 	c #99999A",
"h 	c #4F5050",
"i 	c #848585",
"j 	c #504F50",
"k 	c #4F4F50",
"l 	c #C5C6C6",
"m 	c #6E6F6F",
"n 	c #4F4E4F",
"o 	c #CCCDCD",
"p 	c #979697",
"q 	c #4F4F4F",
"r 	c #6F6F6F",
"s 	c #C6C5C5",
"t 	c #4E4E4F",
"u 	c #C5C5C5",
"v 	c #6E6E6E",
"w 	c #4E4E4E",
"x 	c #969696",
"y 	c #CCCCCC",
"z 	c #6D6E6E",
"A 	c #4D4E4E",
"B 	c #4D4D4E",
"C 	c #B1B1B1",
"D 	c #838383",
"E 	c #4C4D4D",
"F 	c #989898",
"G 	c #969596",
"H 	c #4D4C4E",
"I 	c #838384",
"J 	c #4D4D4D",
"K 	c #4D4C4D",
"L 	c #7B7B7C",
"M 	c #B6B7B7",
"N 	c #747475",
"O 	c #4F4E50",
"P 	c #747575",
"Q 	c #7B7B7B",
"R 	c #4B4C4D",
"S 	c #4B4C4C",
"T 	c #4C4C4C",
"U 	c #949494",
"V 	c #4A4B4B",
"W 	c #4B4B4B",
"X 	c #4B4A4C",
"Y 	c #4B4A4B",
"Z 	c #4B4B4C",
"` 	c #4A4A4B",
" .	c #5F5F60",
"..	c #818181",
"+.	c #6A6B6B",
"@.	c #6A6B6C",
"#.	c #818282",
"$.	c #B6B6B6",
"%.	c #5F5F5F",
"&.	c #49494A",
"*.	c #4A4A4A",
"=.	c #4A494B",
"-.	c #494A4B",
";.	c #49484A",
">.	c #484949",
",.	c #79797A",
"'.	c #B0B0B1",
").	c #7A7A7A",
"!.	c #48494A",
"~.	c #474849",
"{.	c #484848",
"].	c #484849",
"^.	c #484749",
"/.	c #474748",
"(.	c #474747",
"_.	c #464747",
":.	c #464647",
"<.	c #464546",
"[.	c #464646",
". . . . . . . . . . . . . . . ",
"+ + + + + + + + + + + + + + + ",
"@ @ @ @ @ @ # # @ @ @ @ $ % @ ",
"& * = - ; > > ; - = * , & & ' ",
") . ! ~ { ] ^ { ~ ! / ( ) ) ( ",
"_ : < [ } | 1 } * < : 2 3 4 5 ",
"6 7 ( 8 9 ' * 9 8 ) 7 0 } a b ",
"; c d e f < < f g h i ; j k j ",
"l m n 5 < o o p 1 q r s t t t ",
"u v w a x y y x } w z u A A B ",
"C D E F f x G f F H I C J K J ",
"L M B N F O O F P w 7 Q R S T ",
"} ~ U K V W W X J U ~ 1 W Y Z ",
"`  .~ 7 ..+.@.#.$.~ %.&.*.=.-.",
";.>.k ,.'.u u '.).q &.!.&.&.&.",
"~.~.{.].].].].].^.].^.{.].].].",
"/.(._././././././././././.(.(.",
":.:.:.<.:.:.:.:.:.[.:.:.:.:.:."};
