/* XPM */
static char * close_inactive_xpm[] = {
"15 18 102 2",
"  	c None",
". 	c #707070",
"+ 	c #6F6F6F",
"@ 	c #6F6F70",
"# 	c #706F70",
"$ 	c #6F7070",
"% 	c #6E6E6E",
"& 	c #6E6E6F",
"* 	c #6F6E6E",
"= 	c #6F6F6E",
"- 	c #6F6E6F",
"; 	c #6E6F6E",
"> 	c #6D6E6D",
", 	c #6D6D6D",
"' 	c #6E6F6F",
") 	c #777776",
"! 	c #828282",
"~ 	c #868686",
"{ 	c #767677",
"] 	c #6D6D6E",
"^ 	c #6C6C6C",
"/ 	c #838383",
"( 	c #787778",
"_ 	c #737373",
": 	c #717170",
"< 	c #6C6D6C",
"[ 	c #6C6C6D",
"} 	c #7B7B7B",
"| 	c #6B6B6C",
"1 	c #6B6C6B",
"2 	c #6B6B6B",
"3 	c #6C6D6D",
"4 	c #6C6B6C",
"5 	c #757575",
"6 	c #6A6B6B",
"7 	c #747374",
"8 	c #7C7C7C",
"9 	c #6B6A6B",
"0 	c #7B7C7C",
"a 	c #737474",
"b 	c #6A6A6B",
"c 	c #757574",
"d 	c #818181",
"e 	c #767676",
"f 	c #6A6A6A",
"g 	c #888888",
"h 	c #7A7A7B",
"i 	c #7B7A7B",
"j 	c #6A6A69",
"k 	c #696A69",
"l 	c #696A6A",
"m 	c #696969",
"n 	c #7A7A7A",
"o 	c #878787",
"p 	c #696968",
"q 	c #696869",
"r 	c #858585",
"s 	c #686868",
"t 	c #808080",
"u 	c #747574",
"v 	c #676767",
"w 	c #797979",
"x 	c #797A79",
"y 	c #676867",
"z 	c #727273",
"A 	c #666667",
"B 	c #707171",
"C 	c #666766",
"D 	c #737272",
"E 	c #676667",
"F 	c #666666",
"G 	c #787879",
"H 	c #666565",
"I 	c #666665",
"J 	c #656666",
"K 	c #656566",
"L 	c #797878",
"M 	c #656665",
"N 	c #656565",
"O 	c #6A6969",
"P 	c #646564",
"Q 	c #656465",
"R 	c #646464",
"S 	c #656464",
"T 	c #7F7F7F",
"U 	c #80807F",
"V 	c #636463",
"W 	c #646463",
"X 	c #636364",
"Y 	c #636363",
"Z 	c #646363",
"` 	c #626362",
" .	c #636262",
"..	c #626363",
"+.	c #636263",
"@.	c #626262",
"#.	c #616261",
"$.	c #626261",
"%.	c #626161",
"&.	c #616262",
"*.	c #616061",
"=.	c #616161",
". . . . . . . . . . . . . . . ",
"+ + + + @ + + # + + + + $ + # ",
"% % & % % * = - % % % % ; * ; ",
"> , ' ) ! ~ ~ ! { & > > ] > > ",
"^ . / / ( _ _ ( / / : < ^ < [ ",
"< / } | | 1 ^ 2 | } / 3 1 4 4 ",
"5 ! 6 7 8 9 6 0 a b ! c 2 6 2 ",
"d e f } g h i g } j e d f k l ",
"~ . m m n o o n m p . ~ m q m ",
"r . s s n o o n s s . r s s s ",
"t u v n g w x g n v u t v v y ",
"z ! v . n A A n B C ! D E F F ",
"F ! G H H H I J K L ! F K M N ",
"N O ! d _ , , _ d ! j P N Q P ",
"R R S : T r r U : Q V W X Y Z ",
"` Y Y Y Y  .....Y ..Y +.Y  . .",
"@.@.#.$.@.@.$.$.@.@.@.@.%.$.&.",
"*.=.=.=.=.=.=.=.=.=.=.=.*.=.=."};
