/* XPM */
static char * close_inactive_xpm[] = {
"15 18 93 2",
"  	c None",
". 	c #707070",
"+ 	c #6F6F6F",
"@ 	c #6F6F70",
"# 	c #706F70",
"$ 	c #6F7070",
"% 	c #6E6E6E",
"& 	c #6E6E6F",
"* 	c #6F6E6E",
"= 	c #6F6F6E",
"- 	c #6F6E6F",
"; 	c #6E6F6E",
"> 	c #6D6E6D",
", 	c #6D6D6D",
"' 	c #6E6F6F",
") 	c #777776",
"! 	c #828282",
"~ 	c #878787",
"{ 	c #767677",
"] 	c #6D6D6E",
"^ 	c #6C6C6C",
"/ 	c #888888",
"( 	c #808080",
"_ 	c #7B7B7B",
": 	c #717170",
"< 	c #6C6D6C",
"[ 	c #6C6C6D",
"} 	c #717172",
"| 	c #6B6B6C",
"1 	c #6B6C6B",
"2 	c #6B6B6B",
"3 	c #6C6D6D",
"4 	c #6C6B6C",
"5 	c #747474",
"6 	c #707171",
"7 	c #6B6A6B",
"8 	c #6A6B6B",
"9 	c #707071",
"0 	c #757574",
"a 	c #7F7F7F",
"b 	c #6A6A6A",
"c 	c #6A6A69",
"d 	c #696A69",
"e 	c #69696A",
"f 	c #6A696A",
"g 	c #828281",
"h 	c #696A6A",
"i 	c #797979",
"j 	c #696969",
"k 	c #696869",
"l 	c #696968",
"m 	c #686868",
"n 	c #818181",
"o 	c #676767",
"p 	c #676867",
"q 	c #727273",
"r 	c #666666",
"s 	c #666766",
"t 	c #666667",
"u 	c #676666",
"v 	c #666767",
"w 	c #737272",
"x 	c #676667",
"y 	c #666565",
"z 	c #666665",
"A 	c #656666",
"B 	c #808180",
"C 	c #656566",
"D 	c #656665",
"E 	c #656565",
"F 	c #6A6969",
"G 	c #7E7E7E",
"H 	c #777777",
"I 	c #646564",
"J 	c #656465",
"K 	c #646464",
"L 	c #656464",
"M 	c #636463",
"N 	c #646463",
"O 	c #636364",
"P 	c #636363",
"Q 	c #646363",
"R 	c #626362",
"S 	c #636262",
"T 	c #626363",
"U 	c #636263",
"V 	c #626262",
"W 	c #616261",
"X 	c #626261",
"Y 	c #626161",
"Z 	c #616262",
"` 	c #616061",
" .	c #616161",
". . . . . . . . . . . . . . . ",
"+ + + + @ + + # + + + + $ + # ",
"% % & % % * = - % % % % ; * ; ",
"> , ' ) ! ~ ~ ! { & > > ] > > ",
"^ . ! / ( _ _ ( / ! : < ^ < [ ",
"< ! / } | 1 ^ 2 } / ! 3 1 4 4 ",
"5 / 6 7 2 7 8 8 8 9 / 0 2 8 2 ",
"! a b c d e f c b c a g b d h ",
"~ i j j k j j j j l i ~ j k j ",
"~ i m m m m m m m m i ~ m m m ",
"n a o o p o p p o o a n o o p ",
"q / % r s t t u v > / w x r r ",
"r ( / , y y z A , / B r C D E ",
"E F ( / G H H G / ( c I E J I ",
"K K L . ( ~ ~ ( : J M N O P Q ",
"R P P P P S T T P T P U P S S ",
"V V W X V V X X V V V V Y X Z ",
"`  . . . . . . . . . . .`  . ."};
