/* XPM */
static char * hide_inactive_xpm[] = {
"15 18 87 1",
" 	c None",
".	c #707070",
"+	c #6F6F6F",
"@	c #6F6F70",
"#	c #706F70",
"$	c #6F7070",
"%	c #6E6E6E",
"&	c #6E6E6F",
"*	c #6F6E6E",
"=	c #6F6F6E",
"-	c #6F6E6F",
";	c #6E6F6E",
">	c #6D6E6D",
",	c #6D6D6D",
"'	c #6D6E6E",
")	c #6E6E6D",
"!	c #6D6D6E",
"~	c #6C6C6C",
"{	c #6D6C6C",
"]	c #6D6C6D",
"^	c #6C6C6D",
"/	c #6D6D6C",
"(	c #6C6D6C",
"_	c #6B6C6B",
":	c #6C6B6C",
"<	c #6C6B6B",
"[	c #6B6B6C",
"}	c #6B6B6B",
"|	c #6B6C6C",
"1	c #6C6C6B",
"2	c #6A6A6A",
"3	c #6A6B6A",
"4	c #6A6B6B",
"5	c #6B6A6B",
"6	c #6A6A6B",
"7	c #6B6B6A",
"8	c #696A69",
"9	c #6A6A69",
"0	c #787879",
"a	c #70706F",
"b	c #787978",
"c	c #696A6A",
"d	c #696969",
"e	c #69696A",
"f	c #878787",
"g	c #858585",
"h	c #696869",
"i	c #686868",
"j	c #676768",
"k	c #676867",
"l	c #676767",
"m	c #666667",
"n	c #666666",
"o	c #666766",
"p	c #6B6A6A",
"q	c #676666",
"r	c #676667",
"s	c #656565",
"t	c #656566",
"u	c #666565",
"v	c #666665",
"w	c #656666",
"x	c #656665",
"y	c #656464",
"z	c #646565",
"A	c #656564",
"B	c #646564",
"C	c #646464",
"D	c #646465",
"E	c #656465",
"F	c #646363",
"G	c #646463",
"H	c #636363",
"I	c #636364",
"J	c #646364",
"K	c #636463",
"L	c #626362",
"M	c #636262",
"N	c #626363",
"O	c #636263",
"P	c #626262",
"Q	c #616261",
"R	c #626261",
"S	c #626161",
"T	c #616262",
"U	c #616061",
"V	c #616161",
"...............",
"++++@++#++++$+#",
"%%&%%*=-%%%%;*;",
">,')>'>,!!>>!>>",
"~~~{],{]^//(~(^",
"_:<[[_~}[|1|_::",
"2345}5444647}4}",
"282980-92ab928c",
"ddddefg}}gfedhd",
"iiiii}gggg~iiii",
"jkllkl(gg,klllk",
"mnlnommp4onqrnn",
"sstuuuvwtuxstxs",
"syzABBCDCCABsEB",
"CCFGHICGGJKGIHF",
"LHHHHMNNHNHOHMM",
"PPQRPPRRPPPPSRT",
"UVVVVVVVVVVVUVV"};
