/* XPM */
static char * hide_active_xpm[] = {
"15 18 91 1",
" 	c None",
".	c #656565",
"+	c #555555",
"@	c #545454",
"#	c #545554",
"$	c #545455",
"%	c #555454",
"&	c #535353",
"*	c #535354",
"=	c #535454",
"-	c #545453",
";	c #545353",
">	c #525253",
",	c #525252",
"'	c #525353",
")	c #525352",
"!	c #535253",
"~	c #535252",
"{	c #515152",
"]	c #515151",
"^	c #515252",
"/	c #515251",
"(	c #525152",
"_	c #525251",
":	c #515050",
"<	c #505050",
"[	c #505150",
"}	c #505051",
"|	c #505151",
"1	c #515051",
"2	c #4F4F50",
"3	c #504F4F",
"4	c #4F4F4F",
"5	c #949494",
"6	c #636263",
"7	c #4F5050",
"8	c #6A6B6B",
"9	c #504F50",
"0	c #4E4F4F",
"a	c #4F4E4F",
"b	c #C9CACA",
"c	c #C4C4C4",
"d	c #5A595A",
"e	c #5D5D5D",
"f	c #CACACA",
"g	c #4E4E4F",
"h	c #4E4D4E",
"i	c #4E4E4E",
"j	c #4D4E4E",
"k	c #4D4D4E",
"l	c #5D5E5E",
"m	c #4C4D4D",
"n	c #4D4C4D",
"o	c #4D4D4D",
"p	c #666667",
"q	c #656466",
"r	c #4C4C4E",
"s	c #4C4C4D",
"t	c #4B4C4C",
"u	c #4B4B4C",
"v	c #4B4C4D",
"w	c #4C4B4D",
"x	c #606060",
"y	c #5F5F60",
"z	c #4C4C4C",
"A	c #4C4B4C",
"B	c #4B4B4B",
"C	c #4B4A4B",
"D	c #4A4B4B",
"E	c #4B4A4C",
"F	c #4A4A4B",
"G	c #4A4A4A",
"H	c #4A494A",
"I	c #494A4A",
"J	c #494A4B",
"K	c #49494A",
"L	c #4A494B",
"M	c #49484A",
"N	c #484949",
"O	c #48494A",
"P	c #494949",
"Q	c #474849",
"R	c #484848",
"S	c #484849",
"T	c #484749",
"U	c #474748",
"V	c #474747",
"W	c #464747",
"X	c #464647",
"Y	c #464546",
"Z	c #464646",
"...............",
"+++++++++++++++",
"@@@@@@##@@@@$%@",
"&**=&*&&&**-&&;",
">,''>)!'>)~~>>~",
"{]^^]/{]{{](^_(",
":<:[}:}}}}<}]|1",
"2<34]567285|929",
"00aa&bcdecf~ggg",
"hiijkeccccljjjk",
"mmmmnopccqrsono",
"stuuvwwxyztAvtz",
"BBCCDBBEBuDuBCu",
"FFGGHIJJHFGKGLJ",
"MNKKMNOMKPKOKKK",
"QQRSSSSSTSTRSSS",
"UVWUUUUUUUUUUVV",
"XXXYXXXXXZXXXXX"};
