/* XPM */
static char * hide_inactive_xpm[] = {
"15 18 100 2",
"  	c None",
". 	c #707070",
"+ 	c #6F6F6F",
"@ 	c #6F6F70",
"# 	c #706F70",
"$ 	c #6F7070",
"% 	c #6E6E6E",
"& 	c #6E6E6F",
"* 	c #6F6E6E",
"= 	c #6F6F6E",
"- 	c #6F6E6F",
"; 	c #6E6F6E",
"> 	c #6D6E6D",
", 	c #6D6D6D",
"' 	c #6D6E6E",
") 	c #6E6E6D",
"! 	c #767777",
"~ 	c #828282",
"{ 	c #878787",
"] 	c #767776",
"^ 	c #6D6D6E",
"/ 	c #6C6C6C",
"( 	c #717070",
"_ 	c #888888",
": 	c #808080",
"< 	c #7B7B7B",
"[ 	c #6C6D6C",
"} 	c #6C6C6D",
"| 	c #6B6C6B",
"1 	c #6C6B6C",
"2 	c #6D6C6C",
"3 	c #717271",
"4 	c #6B6B6B",
"5 	c #6B6B6C",
"6 	c #6B6C6C",
"7 	c #727271",
"8 	c #6D6C6D",
"9 	c #6A6A6A",
"0 	c #6A6B6A",
"a 	c #747575",
"b 	c #717171",
"c 	c #6B6A6B",
"d 	c #6A6B6B",
"e 	c #6A6A6B",
"f 	c #717170",
"g 	c #696A69",
"h 	c #7F7F7F",
"i 	c #69696A",
"j 	c #6A696A",
"k 	c #6A6A69",
"l 	c #818281",
"m 	c #696A6A",
"n 	c #696969",
"o 	c #797979",
"p 	c #696869",
"q 	c #696968",
"r 	c #686868",
"s 	c #676768",
"t 	c #676867",
"u 	c #818181",
"v 	c #676767",
"w 	c #666667",
"x 	c #666666",
"y 	c #737373",
"z 	c #676666",
"A 	c #666767",
"B 	c #666766",
"C 	c #6E6D6D",
"D 	c #727272",
"E 	c #656565",
"F 	c #818080",
"G 	c #666665",
"H 	c #656666",
"I 	c #656566",
"J 	c #666565",
"K 	c #808081",
"L 	c #656464",
"M 	c #646565",
"N 	c #7E7E7E",
"O 	c #777777",
"P 	c #656465",
"Q 	c #646564",
"R 	c #646464",
"S 	c #646363",
"T 	c #646463",
"U 	c #707170",
"V 	c #656564",
"W 	c #636364",
"X 	c #636363",
"Y 	c #626362",
"Z 	c #636262",
"` 	c #626363",
" .	c #636263",
"..	c #626262",
"+.	c #616261",
"@.	c #626261",
"#.	c #626161",
"$.	c #616262",
"%.	c #616061",
"&.	c #616161",
". . . . . . . . . . . . . . . ",
"+ + + + @ + + # + + + + $ + # ",
"% % & % % * = - % % % % ; * ; ",
"> , ' ) ; ! ~ { { ~ ] ; ^ > > ",
"/ / / ( ~ _ : < < : _ ~ . [ } ",
"| 1 2 ~ _ 3 / 4 5 6 7 _ ~ 8 1 ",
"9 0 a _ b c d d d e d f _ a 4 ",
"9 g ~ h g i j k 9 k g k h l m ",
"n n { o p n n n n q n n o { n ",
"r r { o r r r r r r r r o { r ",
"s t u h t v t t v v t v h u t ",
"w x y _ > w w z A B x C _ D x ",
"E E w F _ , G H I J , _ K B E ",
"E L M k : _ N O O N _ : 9 P Q ",
"R R S T R . : { { : U V W X S ",
"Y X X X X Z ` ` X ` X  .X Z Z ",
"....+.@.....@.@.........#.@.$.",
"%.&.&.&.&.&.&.&.&.&.&.&.%.&.&."};
