/* XPM */
static char * maximize_inactive_xpm[] = {
"15 18 94 2",
"  	c None",
". 	c #707070",
"+ 	c #6F6F6F",
"@ 	c #6F6F70",
"# 	c #706F70",
"$ 	c #6F7070",
"% 	c #6E6E6E",
"& 	c #6E6E6F",
"* 	c #6F6E6E",
"= 	c #6F6F6E",
"- 	c #6F6E6F",
"; 	c #6E6F6E",
"> 	c #6D6E6D",
", 	c #6D6D6D",
"' 	c #6D6E6E",
") 	c #767776",
"! 	c #828282",
"~ 	c #878787",
"{ 	c #767677",
"] 	c #6D6D6E",
"^ 	c #6C6C6C",
"/ 	c #888888",
"( 	c #808080",
"_ 	c #7B7B7B",
": 	c #707170",
"< 	c #6C6D6C",
"[ 	c #6C6C6D",
"} 	c #6B6C6B",
"| 	c #6D6C6D",
"1 	c #717172",
"2 	c #6B6B6B",
"3 	c #6B6B6C",
"4 	c #717272",
"5 	c #6C6B6C",
"6 	c #6A6A6A",
"7 	c #747574",
"8 	c #717071",
"9 	c #6B6A6B",
"0 	c #6A6B6B",
"a 	c #6A6A6B",
"b 	c #707171",
"c 	c #757575",
"d 	c #818281",
"e 	c #7F7F7F",
"f 	c #6A6A69",
"g 	c #696A69",
"h 	c #69696A",
"i 	c #6A696A",
"j 	c #696A6A",
"k 	c #696969",
"l 	c #797979",
"m 	c #696869",
"n 	c #696968",
"o 	c #686868",
"p 	c #676768",
"q 	c #818181",
"r 	c #676767",
"s 	c #676867",
"t 	c #666667",
"u 	c #727272",
"v 	c #666766",
"w 	c #676666",
"x 	c #666767",
"y 	c #737273",
"z 	c #666666",
"A 	c #656565",
"B 	c #808081",
"C 	c #666565",
"D 	c #666665",
"E 	c #656666",
"F 	c #656566",
"G 	c #656665",
"H 	c #656464",
"I 	c #7E7E7E",
"J 	c #777777",
"K 	c #656465",
"L 	c #646564",
"M 	c #646464",
"N 	c #646363",
"O 	c #656564",
"P 	c #646463",
"Q 	c #636364",
"R 	c #636363",
"S 	c #626362",
"T 	c #636262",
"U 	c #626363",
"V 	c #636263",
"W 	c #626262",
"X 	c #616261",
"Y 	c #626261",
"Z 	c #626161",
"` 	c #616262",
" .	c #616061",
"..	c #616161",
". . . . . . . . . . . . . . . ",
"+ + + + @ + + # + + + + $ + # ",
"% % & % % * = - % % % % ; * ; ",
"> , ' = ) ! ~ ~ ! { ; > ] > > ",
"^ ^ . ! / ( _ _ ( / ! : ^ < [ ",
"} | ! / 1 } ^ 2 3 4 / ! < 5 5 ",
"6 7 / 8 2 9 0 0 0 a b / c 0 2 ",
"6 d e f g h i f 6 f g e ! g j ",
"k ~ l k m k k k k n k l ~ m k ",
"o ~ l o o o o o o o o l ~ o o ",
"p q e r s r s s r r s e q r s ",
"t u / , v t t w x v , / y z z ",
"A z B / , C D E F , / ( t G A ",
"A H j ( / I J J I / ( g A K L ",
"M M N O . ( ~ ~ ( 8 L P Q R N ",
"S R R R R T U U R U R V R T T ",
"W W X Y W W Y Y W W W W Z Y ` ",
" ....................... ....."};
