/* XPM */
static char * maximize_active_xpm[] = {
"15 18 91 1",
" 	c None",
".	c #656565",
"+	c #555555",
"@	c #545454",
"#	c #545554",
"$	c #545455",
"%	c #555454",
"&	c #535353",
"*	c #535354",
"=	c #535454",
"-	c #545453",
";	c #545353",
">	c #525253",
",	c #525252",
"'	c #525353",
")	c #525352",
"!	c #535253",
"~	c #535252",
"{	c #515152",
"]	c #515151",
"^	c #515252",
"/	c #515251",
"(	c #525152",
"_	c #525251",
":	c #515050",
"<	c #505050",
"[	c #505150",
"}	c #505051",
"|	c #606061",
"1	c #656566",
"2	c #505151",
"3	c #515051",
"4	c #4F4F50",
"5	c #504F4F",
"6	c #4F4F4F",
"7	c #C4C4C4",
"8	c #686869",
"9	c #4F5050",
"0	c #504F50",
"a	c #4E4F4F",
"b	c #4F4E4F",
"c	c #5F5F5F",
"d	c #4F4E4E",
"e	c #4E4E4F",
"f	c #4E4D4E",
"g	c #4E4E4E",
"h	c #C9C9C9",
"i	c #595A5A",
"j	c #5B5C5C",
"k	c #4D4E4E",
"l	c #4D4D4E",
"m	c #4C4D4D",
"n	c #939293",
"o	c #4D4C4E",
"p	c #4D4D4D",
"q	c #636364",
"r	c #908F90",
"s	c #4D4D4F",
"t	c #4C4C4D",
"u	c #4D4C4D",
"v	c #4B4C4C",
"w	c #4B4B4C",
"x	c #4B4C4D",
"y	c #4C4B4D",
"z	c #4C4C4C",
"A	c #4C4B4C",
"B	c #4B4B4B",
"C	c #4B4A4B",
"D	c #4A4B4B",
"E	c #4B4A4C",
"F	c #4A4A4B",
"G	c #4A4A4A",
"H	c #4A494A",
"I	c #494A4A",
"J	c #494A4B",
"K	c #49494A",
"L	c #4A494B",
"M	c #49484A",
"N	c #484949",
"O	c #48494A",
"P	c #494949",
"Q	c #474849",
"R	c #484848",
"S	c #484849",
"T	c #484749",
"U	c #474748",
"V	c #474747",
"W	c #464747",
"X	c #464647",
"Y	c #464546",
"Z	c #464646",
"...............",
"+++++++++++++++",
"@@@@@@##@@@@$%@",
"&**=&*&&&**-&&;",
">,''>)!'>)~~>>~",
"{]^^]/{]{{](^_(",
":<:[}:|1}}<}]23",
"4<56<1778999040",
"aabbc7777c6deee",
"fgg^h7ij7h'kkkl",
"mmmkn.opqrstpup",
"tvwwxyyvxzvAxvz",
"BBCCDBBEBwDwBCw",
"FFGGHIJJHFGKGLJ",
"MNKKMNOMKPKOKKK",
"QQRSSSSSTSTRSSS",
"UVWUUUUUUUUUUVV",
"XXXYXXXXXZXXXXX"};
