/* XPM */
static char * maximize_inactive_xpm[] = {
"15 18 88 1",
" 	c None",
".	c #707070",
"+	c #6F6F6F",
"@	c #6F6F70",
"#	c #706F70",
"$	c #6F7070",
"%	c #6E6E6E",
"&	c #6E6E6F",
"*	c #6F6E6E",
"=	c #6F6F6E",
"-	c #6F6E6F",
";	c #6E6F6E",
">	c #6D6E6D",
",	c #6D6D6D",
"'	c #6D6E6E",
")	c #6E6E6D",
"!	c #6D6D6E",
"~	c #6C6C6C",
"{	c #6D6C6C",
"]	c #6D6C6D",
"^	c #6C6C6D",
"/	c #6D6D6C",
"(	c #6C6D6C",
"_	c #6B6C6B",
":	c #6C6B6C",
"<	c #6C6B6B",
"[	c #6B6B6C",
"}	c #6B6B6B",
"|	c #6B6C6C",
"1	c #6C6C6B",
"2	c #6A6A6A",
"3	c #6A6B6A",
"4	c #6A6B6B",
"5	c #6B6A6B",
"6	c #6E6F6F",
"7	c #6A6A6B",
"8	c #6B6B6A",
"9	c #696A69",
"0	c #6A6A69",
"a	c #858585",
"b	c #696A6A",
"c	c #696969",
"d	c #696869",
"e	c #686868",
"f	c #686869",
"g	c #868686",
"h	c #686969",
"i	c #676768",
"j	c #676867",
"k	c #676767",
"l	c #787978",
"m	c #777777",
"n	c #666667",
"o	c #666666",
"p	c #666766",
"q	c #676666",
"r	c #666767",
"s	c #676667",
"t	c #656565",
"u	c #656566",
"v	c #666565",
"w	c #666665",
"x	c #656666",
"y	c #656665",
"z	c #656464",
"A	c #646565",
"B	c #656564",
"C	c #646564",
"D	c #646464",
"E	c #646465",
"F	c #656465",
"G	c #646363",
"H	c #646463",
"I	c #636363",
"J	c #636364",
"K	c #646364",
"L	c #636463",
"M	c #626362",
"N	c #636262",
"O	c #626363",
"P	c #636263",
"Q	c #626262",
"R	c #616261",
"S	c #626261",
"T	c #626161",
"U	c #616262",
"V	c #616061",
"W	c #616161",
"...............",
"++++@++#++++$+#",
"%%&%%*=-%%%%;*;",
">,')>'>,!!>>!>>",
"~~~{],{]^//(~(^",
"_:<[[_~}[|1|_::",
"2345}5664748}4}",
"29209%aa+09029b",
"cccc~aaaa/cccdc",
"eeefga}}agheeee",
"ijkil,jj~mjkkkj",
"nokopnnqrpoqsoo",
"ttuvvvwxuvytuyt",
"tzABCCDEDDBCtFC",
"DDGHIJDHHKLHJIG",
"MIIIINOOIOIPINN",
"QQRSQQSSQQQQTSU",
"VWWWWWWWWWWWVWW"};
