/* XPM */
static char * title_2_inactive_xpm[] = {
"15 18 84 1",
" 	c None",
".	c #707070",
"+	c #6F6F6F",
"@	c #6F6F70",
"#	c #706F70",
"$	c #6F7070",
"%	c #6E6E6E",
"&	c #6E6E6F",
"*	c #6F6E6E",
"=	c #6F6F6E",
"-	c #6F6E6F",
";	c #6E6F6E",
">	c #6D6E6D",
",	c #6D6D6D",
"'	c #6D6E6E",
")	c #6E6E6D",
"!	c #6D6D6E",
"~	c #6C6C6C",
"{	c #6D6C6C",
"]	c #6D6C6D",
"^	c #6C6C6D",
"/	c #6D6D6C",
"(	c #6C6D6C",
"_	c #6B6C6B",
":	c #6C6B6C",
"<	c #6C6B6B",
"[	c #6B6B6C",
"}	c #6B6B6B",
"|	c #6B6C6C",
"1	c #6C6C6B",
"2	c #6A6A6A",
"3	c #6A6B6A",
"4	c #6A6B6B",
"5	c #6B6A6B",
"6	c #6A6A6B",
"7	c #6B6B6A",
"8	c #696A69",
"9	c #6A6A69",
"0	c #69696A",
"a	c #6A696A",
"b	c #696A6A",
"c	c #696969",
"d	c #696869",
"e	c #696968",
"f	c #686868",
"g	c #676768",
"h	c #676867",
"i	c #676767",
"j	c #666667",
"k	c #666666",
"l	c #666766",
"m	c #676666",
"n	c #666767",
"o	c #676667",
"p	c #656565",
"q	c #656566",
"r	c #666565",
"s	c #666665",
"t	c #656666",
"u	c #656665",
"v	c #656464",
"w	c #646565",
"x	c #656564",
"y	c #646564",
"z	c #646464",
"A	c #646465",
"B	c #656465",
"C	c #646363",
"D	c #646463",
"E	c #636363",
"F	c #636364",
"G	c #646364",
"H	c #636463",
"I	c #626362",
"J	c #636262",
"K	c #626363",
"L	c #636263",
"M	c #626262",
"N	c #616261",
"O	c #626261",
"P	c #626161",
"Q	c #616262",
"R	c #616061",
"S	c #616161",
"...............",
"++++@++#++++$+#",
"%%&%%*=-%%%%;*;",
">,')>'>,!!>>!>>",
"~~~{],{]^//(~(^",
"_:<[[_~}[|1|_::",
"2345}5444647}4}",
"282980a9298928b",
"ccccdccccecccdc",
"fffffffffffffff",
"ghiihihhiihiiih",
"jkikljjmnlkmokk",
"ppqrrrstqrupqup",
"pvwxyyzAzzxypBy",
"zzCDEFzDDGHDFEC",
"IEEEEJKKEKELEJJ",
"MMNOMMOOMMMMPOQ",
"RSSSSSSSSSSSRSS"};
