/* XPM */
static char * hide_active_xpm[] = {
"23 23 84 1",
" 	c None",
".	c #CECECE",
"+	c #C8C8C8",
"@	c #BBBBBB",
"#	c #B4B4B4",
"$	c #ACACAC",
"%	c #A9A9A9",
"&	c #DDDDDD",
"*	c #EAEAEA",
"=	c #DEDEDE",
"-	c #CDCDCD",
";	c #B6B6B6",
">	c #E8E8E8",
",	c #ECECEC",
"'	c #B5B5B5",
")	c #B8B8B8",
"!	c #B3B3B3",
"~	c #E5E5E5",
"{	c #E3E3E3",
"]	c #C6C6C6",
"^	c #999999",
"/	c #DCDCDC",
"(	c #DBDBDB",
"_	c #DADADA",
":	c #AEAEAE",
"<	c #D9D9D9",
"[	c #D2D2D2",
"}	c #D5D5D5",
"|	c #717171",
"1	c #D4D4D4",
"2	c #D3D3D3",
"3	c #CFCFCF",
"4	c #9D9D9D",
"5	c #C3C3C3",
"6	c #D0D0D0",
"7	c #CCCCCC",
"8	c #464646",
"9	c #757575",
"0	c #898989",
"a	c #CACACA",
"b	c #C5C5C5",
"c	c #626262",
"d	c #5F5F5F",
"e	c #787878",
"f	c #C7C7C7",
"g	c #848484",
"h	c #C0C0C0",
"i	c #BFBFBF",
"j	c #666666",
"k	c #7F7F7F",
"l	c #696969",
"m	c #7A7A7A",
"n	c #C1C1C1",
"o	c #929292",
"p	c #B1B1B1",
"q	c #BCBCBC",
"r	c #636363",
"s	c #7B7B7B",
"t	c #828282",
"u	c #6A6A6A",
"v	c #A1A1A1",
"w	c #9B9B9B",
"x	c #BDBDBD",
"y	c #545454",
"z	c #606060",
"A	c #646464",
"B	c #4E4E4E",
"C	c #6E6E6E",
"D	c #C2C2C2",
"E	c #737373",
"F	c #B7B7B7",
"G	c #A2A2A2",
"H	c #808080",
"I	c #B2B2B2",
"J	c #818181",
"K	c #9C9C9C",
"L	c #878787",
"M	c #9A9A9A",
"N	c #AAAAAA",
"O	c #BEBEBE",
"P	c #939393",
"Q	c #797979",
"R	c #616161",
"S	c #D1D1D1",
".......................",
".......................",
".......................",
".......+@#$$#@+........",
"......@%.&**=-%@.......",
".....$;>,*>>*,>'$......",
"....)!*~{{{{{{~*!).....",
"...]^/&(((_____&/^]....",
"...:)<[}|12[[[[[<):....",
"..34567.89.-77776543...",
"..60a]b+cdefbbbb]a03...",
"..6gbhi5jklmniiihbg6...",
"..3opiqirstueiqqipo3...",
"..3vwx)@yzrABC@)xwv3...",
"...DE#F).....5)F#ED....",
"...6GHF#IIIIII#FHG6....",
"....6Js$IIppII$sJ6.....",
".....6KrLMNNMLrK6......",
"......6OPQRRQPO6.......",
".......36S[[S6.........",
".......................",
".......................",
"......................."};
