/* XPM */
static char * maximize_active_xpm[] = {
"23 23 88 1",
" 	c None",
".	c #CECECE",
"+	c #C8C8C8",
"@	c #BBBBBB",
"#	c #B4B4B4",
"$	c #ACACAC",
"%	c #A9A9A9",
"&	c #DDDDDD",
"*	c #EAEAEA",
"=	c #DEDEDE",
"-	c #CDCDCD",
";	c #B6B6B6",
">	c #E8E8E8",
",	c #ECECEC",
"'	c #B8B8B8",
")	c #B3B3B3",
"!	c #E5E5E5",
"~	c #E3E3E3",
"{	c #C6C6C6",
"]	c #999999",
"^	c #DCDCDC",
"/	c #DADADA",
"(	c #DBDBDB",
"_	c #AEAEAE",
":	c #D9D9D9",
"<	c #D2D2D2",
"[	c #D4D4D4",
"}	c #B5B5B5",
"|	c #404040",
"1	c #3E3E3E",
"2	c #393939",
"3	c #D5D5D5",
"4	c #ADACAC",
"5	c #CFCFCF",
"6	c #9D9D9D",
"7	c #C3C3C3",
"8	c #D0D0D0",
"9	c #CCCCCC",
"0	c #AFAFAF",
"a	c #CACACA",
"b	c #727272",
"c	c #737373",
"d	c #626262",
"e	c #9A9A9A",
"f	c #898989",
"g	c #C5C5C5",
"h	c #484848",
"i	c #ABABAB",
"j	c #C9C9C9",
"k	c #C7C7C7",
"l	c #797979",
"m	c #6A6A6A",
"n	c #848484",
"o	c #C0C0C0",
"p	c #BFBFBF",
"q	c #565656",
"r	c #AAAAAA",
"s	c #C4C4C4",
"t	c #6E6E6E",
"u	c #929292",
"v	c #B1B1B1",
"w	c #BCBCBC",
"x	c #616161",
"y	c #757575",
"z	c #5A5A5A",
"A	c #A7A7A7",
"B	c #C2C2C2",
"C	c #C1C1C1",
"D	c #A1A1A1",
"E	c #9B9B9B",
"F	c #BDBDBD",
"G	c #525252",
"H	c #606060",
"I	c #4A4A4A",
"J	c #A4A4A4",
"K	c #B9B9B9",
"L	c #B7B7B7",
"M	c #A2A2A2",
"N	c #808080",
"O	c #B2B2B2",
"P	c #818181",
"Q	c #7B7B7B",
"R	c #9C9C9C",
"S	c #636363",
"T	c #878787",
"U	c #BEBEBE",
"V	c #939393",
"W	c #D1D1D1",
".......................",
".......................",
".......................",
".......+@#$$#@+........",
"......@%.&**=-%@.......",
".....$;>,*>>*,>;$......",
"....')*!~~~~~~!*)'.....",
"...{]^&//^((((^&^]{....",
"..._':<<[}|1123<:'4....",
"..56789.08abcd.987e5...",
"..8fa{g+hijklm+g{af5...",
"..8ngop7dqrgst7pogn8...",
"..5uvpwpxyzABCpwpvu5...",
"..5DEF'@GHxIJFK'FED5...",
"...Bc#L'...9w}}L#cB....",
"...8MNL#OOOOOO#LNM8....",
"....8PQ$OOvvOO$QP8.....",
".....8RSTerreTSR8......",
"......8UVlxxlVU8.......",
".......58WW<W8.........",
".......................",
".......................",
"......................."};
