/* XPM */
static char * maximize_toggled_pressed_xpm[] = {
"24 24 4 1",
" 	c None",
".	c #333333",
"+	c #D64937",
"@	c #2D2D2D",
"........................",
"........................",
"........................",
"........................",
"........................",
"........................",
"........................",
"........................",
"........++++++++........",
"........++++++++........",
"........++@@@@++........",
"........++@@@@++........",
"........++@@@@++........",
"........++@@@@++........",
"........++++++++........",
"........++++++++........",
"........................",
"........................",
"........................",
"........................",
"........................",
"........................",
"........................",
"........................"};
