/* XPM */
static char * close_active_xpm[] = {
"15 18 61 1",
" 	c None",
".	c #D6D6D6",
"+	c #D6D5D6",
"@	c #D5D6D6",
"#	c #D5D6D5",
"$	c #D6D5D5",
"%	c #D5D5D6",
"&	c #D5D5D5",
"*	c #D4D4D4",
"=	c #D4D5D5",
"-	c #D4C1BE",
";	c #D29991",
">	c #D17D71",
",	c #D3C0BD",
"'	c #D5D4D5",
")	c #D5D4D4",
"!	c #D4D5D4",
"~	c #D3D2D3",
"{	c #D29A92",
"]	c #D17669",
"^	c #D3D3D3",
"/	c #D4D4D3",
"(	c #D2C0BC",
"_	c #D3BFBC",
":	c #D19890",
"<	c #D2D2D3",
"[	c #D2D3D3",
"}	c #D3D3D2",
"|	c #D2D2D2",
"1	c #D2D1D2",
"2	c #D1978F",
"3	c #D1D2D1",
"4	c #D1D1D1",
"5	c #D2D2D1",
"6	c #D1BEBB",
"7	c #D2D1D1",
"8	c #D1D1D0",
"9	c #D09890",
"0	c #D1D0D1",
"a	c #D0D0D0",
"b	c #D0D0D1",
"c	c #D0CECE",
"d	c #D1CECE",
"e	c #D0CFD0",
"f	c #D0D0CF",
"g	c #CFD0D0",
"h	c #D0BDBA",
"i	c #D0978F",
"j	c #D07D71",
"k	c #D0BDB9",
"l	c #CFCFD0",
"m	c #D0CFCF",
"n	c #CFCFCF",
"o	c #CFD0CF",
"p	c #CFCFCE",
"q	c #CECFCF",
"r	c #CFCECF",
"s	c #CECFCE",
"t	c #CFCECE",
"u	c #CECECE",
"v	c #CECECF",
"...............",
"+@.++@#$.%.$&@@",
"&&&&&&&&&%&&&&&",
"*=&&-;>>;,')'&&",
"!)~{]]]]]]{^'*=",
"//;]]]]]]]];*/*",
"^(]]]]]]]]]]_*^",
"^:]]]]]]]]]]:^^",
"<>]]]]]]]]]]>[}",
"|>]]]]]]]]]]>||",
"12]]]]]]]]]]:34",
"56]]]]]]]]]]673",
"849]]]]]]]]:480",
"abc9]]]]]]9daaa",
"efeghijjikagegl",
"mngalaemlolnlno",
"npqnnpnqrpnrnpn",
"sttsstuunuussvt"};
