/* XPM */
static char * hide_active_xpm[] = {
"15 18 64 1",
" 	c None",
".	c #DBDBDB",
"+	c #D6D5D6",
"@	c #D5D6D6",
"#	c #D6D6D6",
"$	c #D5D6D5",
"%	c #D6D5D5",
"&	c #D5D5D6",
"*	c #D5D5D5",
"=	c #D4D4D4",
"-	c #D4D5D5",
";	c #D5CFBD",
">	c #D7C48C",
",	c #D8BD6B",
"'	c #D8BD6A",
")	c #D5CEBC",
"!	c #D5D4D5",
"~	c #D5D4D4",
"{	c #D4D5D4",
"]	c #D4D3D3",
"^	c #D7C48D",
"/	c #D9BB62",
"(	c #D4D4D3",
"_	c #D3D3D3",
":	c #D4CEBB",
"<	c #D5CEBB",
"[	c #D6C38C",
"}	c #D2D2D3",
"|	c #D8BC6A",
"1	c #D2D3D3",
"2	c #D3D3D2",
"3	c #D2D2D2",
"4	c #D2D1D2",
"5	c #D6C38B",
"6	c #D1D2D1",
"7	c #D1D1D1",
"8	c #D2D2D1",
"9	c #D2CCB9",
"0	c #D2D1D1",
"a	c #D1D1D0",
"b	c #D5C38C",
"c	c #D5C28C",
"d	c #D1D0D1",
"e	c #D0D0D0",
"f	c #D0D0D1",
"g	c #D0CFCE",
"h	c #D1CFCE",
"i	c #D0CFD0",
"j	c #D0D0CF",
"k	c #CFD0D0",
"l	c #D1CBB9",
"m	c #D5C28A",
"n	c #D1CBB8",
"o	c #CFCFD0",
"p	c #D0CFCF",
"q	c #CFCFCF",
"r	c #CFD0CF",
"s	c #CFCFCE",
"t	c #CECFCF",
"u	c #CFCECF",
"v	c #CECFCE",
"w	c #CFCECE",
"x	c #CECECE",
"y	c #CECECF",
"...............",
"+@#++@$%#&#%*@@",
"*********&*****",
"=-**;>,'>)!~!**",
"{~]^//////^(!=-",
"((>////////^=(=",
"_://////////<=_",
"_[//////////[__",
"}|//////////|12",
"3|//////////|33",
"45//////////567",
"89//////////906",
"a7b////////c7ad",
"efgc//////cheee",
"ijiklm||mnekiko",
"pqkeoeiporoqoqr",
"qstqqsqtusquqsq",
"vwwvvwxxqxxvvyw"};
