/* XPM */
static char * hide_active_xpm[] = {
"15 18 62 1",
" 	c None",
".	c #D6D6D6",
"+	c #D6D5D6",
"@	c #D5D6D6",
"#	c #D5D6D5",
"$	c #D6D5D5",
"%	c #D5D5D6",
"&	c #D5D5D5",
"*	c #D4D4D4",
"=	c #D4D5D5",
"-	c #D5D0C1",
";	c #D7C79A",
">	c #D8C17E",
",	c #D5CFC0",
"'	c #D5D4D5",
")	c #D5D4D4",
"!	c #D4D5D4",
"~	c #D4D3D3",
"{	c #D9C077",
"]	c #D4D4D3",
"^	c #D7C799",
"/	c #D3D3D3",
"(	c #D4CFBF",
"_	c #D5CFBF",
":	c #D6C799",
"<	c #D6C699",
"[	c #D2D2D3",
"}	c #D2D3D3",
"|	c #D3D3D2",
"1	c #D2D2D2",
"2	c #D2D1D2",
"3	c #D6C698",
"4	c #D1D2D1",
"5	c #D1D1D1",
"6	c #D2D2D1",
"7	c #D2CDBE",
"8	c #D2D1D1",
"9	c #D1D1D0",
"0	c #D5C699",
"a	c #D1D0D1",
"b	c #D0D0D0",
"c	c #D0D0D1",
"d	c #D0CFCE",
"e	c #D1CFCE",
"f	c #D0CFD0",
"g	c #D0D0CF",
"h	c #CFD0D0",
"i	c #D1CCBD",
"j	c #D5C598",
"k	c #D8C17D",
"l	c #D1CCBC",
"m	c #CFCFD0",
"n	c #D0CFCF",
"o	c #CFCFCF",
"p	c #CFD0CF",
"q	c #CFCFCE",
"r	c #CECFCF",
"s	c #CFCECF",
"t	c #CECFCE",
"u	c #CFCECE",
"v	c #CECECE",
"w	c #CECECF",
"...............",
"+@.++@#$.%.$&@@",
"&&&&&&&&&%&&&&&",
"*=&&-;>>;,')'&&",
"!)~;{{{{{{;]'*=",
"]]^{{{{{{{{;*]*",
"/({{{{{{{{{{_*/",
"/:{{{{{{{{{{<//",
"[>{{{{{{{{{{>}|",
"1>{{{{{{{{{{>11",
"23{{{{{{{{{{345",
"67{{{{{{{{{{784",
"950{{{{{{{{059a",
"bcd0{{{{{{0ebbb",
"fgfhijkkjlbhfhm",
"nohbmbfnmpmomop",
"oqrooqorsqosoqo",
"tuuttuvvovvttwu"};
