/* XPM */
static char * maximize_active_xpm[] = {
"15 18 63 1",
" 	c None",
".	c #DBDBDB",
"+	c #D6D5D6",
"@	c #D5D6D6",
"#	c #D6D6D6",
"$	c #D5D6D5",
"%	c #D6D5D5",
"&	c #D5D5D6",
"*	c #D5D5D5",
"=	c #D4D4D4",
"-	c #D4D5D5",
";	c #CCCFC0",
">	c #BCC495",
",	c #B0BC77",
"'	c #BCC395",
")	c #CCCEBF",
"!	c #D5D4D5",
"~	c #D5D4D4",
"{	c #D4D5D4",
"]	c #D3D3D3",
"^	c #BCC496",
"/	c #AEBA70",
"(	c #D3D4D3",
"_	c #D4D4D3",
":	c #BCC396",
"<	c #CBCEBE",
"[	c #CCCDBE",
"}	c #BBC394",
"|	c #BBC294",
"1	c #D2D2D3",
"2	c #B0BB77",
"3	c #D2D3D3",
"4	c #D3D3D2",
"5	c #D2D2D2",
"6	c #D2D1D2",
"7	c #D1D2D1",
"8	c #D1D1D1",
"9	c #D2D2D1",
"0	c #C9CCBC",
"a	c #D2D1D1",
"b	c #D1D1D0",
"c	c #BAC294",
"d	c #D1D0D1",
"e	c #D0D0D0",
"f	c #D0D0D1",
"g	c #CFCFCE",
"h	c #D0CFCE",
"i	c #D0CFD0",
"j	c #D0D0CF",
"k	c #CFD0D0",
"l	c #C8CBBC",
"m	c #BAC293",
"n	c #C8CBBB",
"o	c #CFCFD0",
"p	c #D0CFCF",
"q	c #CFCFCF",
"r	c #CFD0CF",
"s	c #CECFCF",
"t	c #CFCECF",
"u	c #CECFCE",
"v	c #CFCECE",
"w	c #CECECE",
"x	c #CECECF",
"...............",
"+@#++@$%#&#%*@@",
"*********&*****",
"=-**;>,,')!~!**",
"{~]^//////^(!=-",
"__'////////:=_=",
"]<//////////[=]",
"]}//////////|]]",
"12//////////234",
"52//////////255",
"6|//////////|78",
"90//////////0a7",
"b8c////////|8bd",
"efgc//////cheee",
"ijiklm22mnekiko",
"pqkeoeiporoqoqr",
"qgsqqgqstgqtqgq",
"uvvuuvwwqwwuuxv"};
