/* XPM */
static char * maximize_active_xpm[] = {
"15 18 62 1",
" 	c None",
".	c #D6D6D6",
"+	c #D6D5D6",
"@	c #D5D6D6",
"#	c #D5D6D5",
"$	c #D6D5D5",
"%	c #D5D5D6",
"&	c #D5D5D5",
"*	c #D4D4D4",
"=	c #D4D5D5",
"-	c #CCCFC0",
";	c #BCC495",
">	c #B0BC77",
",	c #BCC395",
"'	c #CCCEBF",
")	c #D5D4D5",
"!	c #D5D4D4",
"~	c #D4D5D4",
"{	c #D3D3D3",
"]	c #BCC496",
"^	c #AEBA70",
"/	c #D3D4D3",
"(	c #D4D4D3",
"_	c #BCC396",
":	c #CBCEBE",
"<	c #CCCDBE",
"[	c #BBC394",
"}	c #BBC294",
"|	c #D2D2D3",
"1	c #B0BB77",
"2	c #D2D3D3",
"3	c #D3D3D2",
"4	c #D2D2D2",
"5	c #D2D1D2",
"6	c #D1D2D1",
"7	c #D1D1D1",
"8	c #D2D2D1",
"9	c #C9CCBC",
"0	c #D2D1D1",
"a	c #D1D1D0",
"b	c #BAC294",
"c	c #D1D0D1",
"d	c #D0D0D0",
"e	c #D0D0D1",
"f	c #CFCFCE",
"g	c #D0CFCE",
"h	c #D0CFD0",
"i	c #D0D0CF",
"j	c #CFD0D0",
"k	c #C8CBBC",
"l	c #BAC293",
"m	c #C8CBBB",
"n	c #CFCFD0",
"o	c #D0CFCF",
"p	c #CFCFCF",
"q	c #CFD0CF",
"r	c #CECFCF",
"s	c #CFCECF",
"t	c #CECFCE",
"u	c #CFCECE",
"v	c #CECECE",
"w	c #CECECF",
"...............",
"+@.++@#$.%.$&@@",
"&&&&&&&&&%&&&&&",
"*=&&-;>>,')!)&&",
"~!{]^^^^^^]/)*=",
"((,^^^^^^^^_*(*",
"{:^^^^^^^^^^<*{",
"{[^^^^^^^^^^}{{",
"|1^^^^^^^^^^123",
"41^^^^^^^^^^144",
"5}^^^^^^^^^^}67",
"89^^^^^^^^^^906",
"a7b^^^^^^^^}7ac",
"defb^^^^^^bgddd",
"hihjkl11lmdjhjn",
"opjdndhonqnpnpq",
"pfrppfprsfpspfp",
"tuuttuvvpvvttwu"};
