/* XPM */
static char * hide_prelight_xpm[] = {
"23 23 190 2",
"  	c None",
". 	c #CECECE",
"+ 	c #D0D0D0",
"@ 	c #DFCBCD",
"# 	c #DEBCBF",
"$ 	c #DEAEB2",
"% 	c #DEA1A6",
"& 	c #DDA1A7",
"* 	c #DEAFB4",
"= 	c #DEBDC0",
"- 	c #DFCCCE",
"; 	c #CFC7C5",
"> 	c #DDA7AC",
", 	c #DD9AA0",
"' 	c #D9ABAB",
") 	c #CEC8C6",
"! 	c #D0BCB5",
"~ 	c #DC9BA1",
"{ 	c #DC999F",
"] 	c #D7969C",
"^ 	c #C98C92",
"/ 	c #C0868B",
"( 	c #B98186",
"_ 	c #CA8D93",
": 	c #D0BDB7",
"< 	c #DC9AA0",
"[ 	c #DC9A9F",
"} 	c #C88C91",
"| 	c #B58388",
"1 	c #CFC3BE",
"2 	c #DFD9D7",
"3 	c #EAE8E8",
"4 	c #EBE8E8",
"5 	c #CEC1BC",
"6 	c #CFBDB6",
"7 	c #CEC7C5",
"8 	c #DB9AA0",
"9 	c #DB9A9F",
"0 	c #B77F84",
"a 	c #BCA09F",
"b 	c #E8E6E6",
"c 	c #ECECEC",
"d 	c #EAEAEA",
"e 	c #E8E8E8",
"f 	c #BF9FA0",
"g 	c #DB999F",
"h 	c #DB9BA1",
"i 	c #CECDCD",
"j 	c #DBA6AB",
"k 	c #C2888D",
"l 	c #BA9B9E",
"m 	c #E5E5E5",
"n 	c #E3E3E3",
"o 	c #BA989B",
"p 	c #DAA7AC",
"q 	c #CFC2BE",
"r 	c #DA979D",
"s 	c #D29399",
"t 	c #A3767A",
"u 	c #DDDAD9",
"v 	c #DDDDDD",
"w 	c #DBDBDB",
"x 	c #DADADA",
"y 	c #DCDAD8",
"z 	c #A17478",
"A 	c #CEC3BF",
"B 	c #D0BAB2",
"C 	c #B98287",
"D 	c #BAACA7",
"E 	c #D9D9D9",
"F 	c #D2D2D2",
"G 	c #D5D5D5",
"H 	c #747474",
"I 	c #D4D4D4",
"J 	c #D3D3D3",
"K 	c #B8AAA5",
"L 	c #DA989E",
"M 	c #CFBAB3",
"N 	c #D6ABAB",
"O 	c #DA999F",
"P 	c #A57378",
"Q 	c #C4BDBB",
"R 	c #CFCFCF",
"S 	c #CCCCCC",
"T 	c #494949",
"U 	c #787878",
"V 	c #CDCDCD",
"W 	c #C3BCB9",
"X 	c #D4ADAC",
"Y 	c #D89BA1",
"Z 	c #DA9AA0",
"` 	c #8E6765",
" .	c #CDCACA",
"..	c #C6C6C6",
"+.	c #C5C5C5",
"@.	c #C8C8C8",
"#.	c #646464",
"$.	c #616161",
"%.	c #7B7B7B",
"&.	c #C7C7C7",
"*.	c #CCC9C9",
"=.	c #D99EA3",
"-.	c #8B6064",
";.	c #C5C3C3",
">.	c #C0C0C0",
",.	c #BFBFBF",
"'.	c #C3C3C3",
").	c #686868",
"!.	c #828282",
"~.	c #6A6A6A",
"{.	c #7E7E7E",
"].	c #C1C1C1",
"^.	c #C5C2C2",
"/.	c #DB9BA0",
"(.	c #D7AAAC",
"_.	c #986C6E",
":.	c #B2ABA9",
"<.	c #BCBCBC",
"[.	c #656565",
"}.	c #858585",
"|.	c #6C6C6C",
"1.	c #B2AAA8",
"2.	c #D5ACAC",
"3.	c #D8979D",
"4.	c #A9777B",
"5.	c #9F8A8C",
"6.	c #BDBDBD",
"7.	c #B8B8B8",
"8.	c #BBBBBB",
"9.	c #565656",
"0.	c #626262",
"a.	c #4F4F4F",
"b.	c #707070",
"c.	c #A08A8D",
"d.	c #D7959B",
"e.	c #CB9096",
"f.	c #7A5659",
"g.	c #B5B3B1",
"h.	c #B7B7B7",
"i.	c #B4B2AF",
"j.	c #795559",
"k.	c #D6A1A6",
"l.	c #D9999E",
"m.	c #A8767A",
"n.	c #84696B",
"o.	c #B4B4B4",
"p.	c #B2B2B2",
"q.	c #85686A",
"r.	c #D8989E",
"s.	c #D5A2A7",
"t.	c #D6959B",
"u.	c #D99BA0",
"v.	c #855D61",
"w.	c #7E6365",
"x.	c #ADA9A8",
"y.	c #B1B1B1",
"z.	c #7F6265",
"A.	c #DA9BA1",
"B.	c #D6979D",
"C.	c #A27276",
"D.	c #67494C",
"E.	c #8A7678",
"F.	c #9D9092",
"G.	c #ABA8A8",
"H.	c #9D9091",
"I.	c #897477",
"J.	c #67484B",
"K.	c #D89AA0",
"L.	c #D6949A",
"M.	c #D5949A",
"N.	c #D7989E",
"O.	c #C58D92",
"P.	c #976D6D",
"Q.	c #7E585B",
"R.	c #644548",
"S.	c #D7979D",
"T.	c #D49EA3",
"U.	c #D8999F",
"V.	c #D99BA1",
"W.	c #D7999E",
"X.	c #D7979C",
"Y.	c #D59399",
"Z.	c #D3A0A4",
"`.	c #CFC1BD",
" +	c #CFB8B1",
".+	c #D3A3A7",
"++	c #D4979C",
"@+	c #D3979D",
"#+	c #D2A3A8",
"$+	c #D0B9B2",
". . . . . . + + + + + + + + + + + + . . . . . ",
". . . . . . + @ # $ % & * = - + + + . . . . . ",
". . . . . ; > , , , , , , , , ' ) . . . . . . ",
". . . . ! ~ { ] ^ / ( ( / _ ] { ~ : . . . . . ",
". . . ! < [ } | 1 2 3 4 2 5 | } , { 6 . . . . ",
". . 7 8 9 0 a b c d e e d c b f 0 g h ) . . . ",
". i j g k l d m n n n n n n m d o k g p i . . ",
". q r s t u v w w w x x x x x v y z s r A . . ",
". B g C D E F G H I J F F F F F E K C L M . . ",
". N O P Q R S . T U . V S S S S R W P 8 X . . ",
". Y Z `  ...+.@.#.$.%.&.+.+.+.+...*.` O =.. . ",
". Y h -.;.>.,.'.).!.~.{.].,.,.,.>.^.-./.=.. . ",
". (.O _.:.,.<.,.[.{.}.|.%.,.<.<.,.1._.O 2.. . ",
". B 3.4.5.6.7.8.9.0.[.[.a.b.8.7.6.c.4.3.M . . ",
". q d.e.f.g.h.7.. . . . . '.7.h.i.j.e.d.A . . ",
". i k.l.m.n.h.o.p.p.p.p.p.p.o.h.q.m.r.s.i . . ",
". . 7 t.u.v.w.x.p.p.y.y.p.p.x.z.v.A.B.) . . . ",
". . . ! d.u.C.D.E.F.G.G.H.I.J.C.K.L.6 . . . . ",
". . . . ! M.N.O.P.Q.R.R.Q.P.O.S.t.: . . . . . ",
". . . . . ; T.M.S.U.V.Y W.X.Y.Z.) . . . . . . ",
". . . . . . i `. +.+++@+#+$+q i . . . . . . . ",
". . . . . . . . . . . . . . . . . . . . . . . ",
". . . . . . . . . . . . . . . . . . . . . . . "};
