/* XPM */
static char * title_4_inactive_xpm[] = {
"15 18 71 1",
" 	c None",
".	c #C2C2C2",
"+	c #C2C3C2",
"@	c #C3C3C3",
"#	c #C2C3C3",
"$	c #C3C2C3",
"%	c #C3C2C2",
"&	c #C4C3C3",
"*	c #C4C4C4",
"=	c #C4C3C4",
"-	c #C3C4C3",
";	c #C3C4C4",
">	c #C4C4C3",
",	c #C5C4C4",
"'	c #C4C4C5",
")	c #C4C5C4",
"!	c #C5C5C5",
"~	c #C5C4C5",
"{	c #C5C5C4",
"]	c #C4C5C5",
"^	c #C6C5C6",
"/	c #C5C6C5",
"(	c #C5C5C6",
"_	c #C6C6C5",
":	c #C6C5C5",
"<	c #C6C6C6",
"[	c #C5C6C6",
"}	c #C7C6C6",
"|	c #C7C7C7",
"1	c #C6C6C7",
"2	c #C6C7C7",
"3	c #C7C8C8",
"4	c #C8C7C7",
"5	c #C8C8C7",
"6	c #C8C8C8",
"7	c #C7C7C8",
"8	c #C9C9C9",
"9	c #C9C8C9",
"0	c #C8C9C9",
"a	c #C8C8C9",
"b	c #C9C9C8",
"c	c #C9C8C8",
"d	c #C9C9CA",
"e	c #CACACA",
"f	c #CAC9CA",
"g	c #CACAC9",
"h	c #C9CACA",
"i	c #CAC9C9",
"j	c #CACACB",
"k	c #CBCACA",
"l	c #CACBCA",
"m	c #CACBCB",
"n	c #CBCBCB",
"o	c #CBCBCA",
"p	c #CBCACB",
"q	c #CCCBCB",
"r	c #CBCCCB",
"s	c #CCCBCC",
"t	c #CBCBCC",
"u	c #CCCCCC",
"v	c #CCCCCB",
"w	c #CBCCCC",
"x	c #CDCDCD",
"y	c #CDCDCC",
"z	c #CCCDCD",
"A	c #CECDCE",
"B	c #CDCECD",
"C	c #CECDCD",
"D	c #CDCDCE",
"E	c #CECECD",
"F	c #CECECE",
"...............",
"+@@+#$$$.#+@@%#",
"&*&=*-*&**;-=>;",
",**'**)')****)*",
"!)*)!~!{'''~]!!",
"!^!!!!^!/^!(_:(",
"<<[[<<<_<<^<<[}",
"|}||||}1||||||2",
"3|3|43567437355",
"666666666666666",
"68900ab086c00ba",
"defgeg8eheihdfe",
"jekjelekkeeljel",
"mnoppppnnklnnnn",
"qqrnnsntqutntsv",
"uvuuusuwuvutuuu",
"xxxyxxzxxxxxxxx",
"ABCAxBDCEAFCxDx"};
