/* XPM */
static char * close_active_xpm[] = {
"15 18 80 1",
" 	c None",
".	c #656565",
"+	c #555555",
"@	c #545454",
"#	c #545554",
"$	c #545455",
"%	c #555454",
"&	c #535353",
"*	c #535354",
"=	c #535454",
"-	c #755553",
";	c #BB5A55",
">	c #EB5E56",
",	c #755554",
"'	c #545453",
")	c #545353",
"!	c #525253",
"~	c #525252",
"{	c #B95A55",
"]	c #F95F57",
"^	c #555252",
"/	c #535252",
"(	c #515152",
"_	c #515151",
":	c #B95955",
"<	c #515252",
"[	c #525251",
"}	c #525152",
"|	c #515050",
"1	c #735351",
"2	c #735352",
"3	c #505151",
"4	c #515051",
"5	c #4F4F50",
"6	c #BA5954",
"7	c #504F50",
"8	c #4E4F4F",
"9	c #EB5D56",
"0	c #4E4E4F",
"a	c #4E4D4E",
"b	c #4D4E4E",
"c	c #4D4D4E",
"d	c #4C4D4D",
"e	c #B85853",
"f	c #4D4C4D",
"g	c #4D4D4D",
"h	c #4C4C4D",
"i	c #6F4F4E",
"j	c #6F4F4F",
"k	c #4B4C4C",
"l	c #4C4C4C",
"m	c #4B4B4B",
"n	c #B65752",
"o	c #4B4A4B",
"p	c #4B4B4C",
"q	c #4A4A4B",
"r	c #4C4A4A",
"s	c #4B494A",
"t	c #4A4A4A",
"u	c #4A494B",
"v	c #494A4B",
"w	c #49484A",
"x	c #484949",
"y	c #49494A",
"z	c #6D4C4C",
"A	c #B75651",
"B	c #EB5D55",
"C	c #B75652",
"D	c #6D4D4B",
"E	c #48494A",
"F	c #474849",
"G	c #484848",
"H	c #484849",
"I	c #484749",
"J	c #474748",
"K	c #474747",
"L	c #464747",
"M	c #464647",
"N	c #464546",
"O	c #464646",
"...............",
"+++++++++++++++",
"@@@@@@##@@@@$%@",
"&**=-;>>;,*'&&)",
"!~){]]]]]]{^!!/",
"(_{]]]]]]]]:<[}",
"|1]]]]]]]]]]234",
"56]]]]]]]]]]657",
"89]]]]]]]]]]900",
"a9]]]]]]]]]]9bc",
"de]]]]]]]]]]efg",
"hi]]]]]]]]]]jkl",
"mmn]]]]]]]]nmop",
"qqrn]]]]]]nstuv",
"wxyyzABBCDyEyyy",
"FFGHHHHHIHIGHHH",
"JKLJJJJJJJJJJKK",
"MMMNMMMMMOMMMMM"};
