/* XPM */
static char * hide_active_xpm[] = {
"15 18 78 1",
" 	c None",
".	c #656565",
"+	c #555555",
"@	c #545454",
"#	c #545554",
"$	c #545455",
"%	c #555454",
"&	c #535353",
"*	c #535354",
"=	c #535454",
"-	c #75684B",
";	c #BB943B",
">	c #EBB32F",
",	c #545453",
"'	c #545353",
")	c #525253",
"!	c #525252",
"~	c #545452",
"{	c #B9943B",
"]	c #F9BC2D",
"^	c #B9933B",
"/	c #555351",
"(	c #535252",
"_	c #515152",
":	c #515151",
"<	c #515252",
"[	c #525251",
"}	c #525152",
"|	c #515050",
"1	c #736648",
"2	c #736749",
"3	c #505151",
"4	c #515051",
"5	c #4F4F50",
"6	c #BA933A",
"7	c #504F50",
"8	c #4E4F4F",
"9	c #4E4E4F",
"0	c #4E4D4E",
"a	c #4D4E4E",
"b	c #4D4D4E",
"c	c #4C4D4D",
"d	c #B89238",
"e	c #4D4C4D",
"f	c #4D4D4D",
"g	c #4C4C4D",
"h	c #6F6345",
"i	c #6F6346",
"j	c #4B4C4C",
"k	c #4C4C4C",
"l	c #4B4B4B",
"m	c #B69038",
"n	c #B69138",
"o	c #4B4A4B",
"p	c #4B4B4C",
"q	c #4A4A4B",
"r	c #4C4B49",
"s	c #4B4A49",
"t	c #4A4A4A",
"u	c #4A494B",
"v	c #494A4B",
"w	c #49484A",
"x	c #484949",
"y	c #49494A",
"z	c #6D6043",
"A	c #B79137",
"B	c #EBB22F",
"C	c #48494A",
"D	c #474849",
"E	c #484848",
"F	c #484849",
"G	c #484749",
"H	c #474748",
"I	c #474747",
"J	c #464747",
"K	c #464647",
"L	c #464546",
"M	c #464646",
"...............",
"+++++++++++++++",
"@@@@@@##@@@@$%@",
"&**=-;>>;-*,&&'",
")!~{]]]]]]^/))(",
"_:^]]]]]]]]^<[}",
"|1]]]]]]]]]]234",
"56]]]]]]]]]]657",
"8>]]]]]]]]]]>99",
"0>]]]]]]]]]]>ab",
"cd]]]]]]]]]]def",
"gh]]]]]]]]]]ijk",
"llm]]]]]]]]nlop",
"qqrm]]]]]]mstuv",
"wxyyzABBAzyCyyy",
"DDEFFFFFGFGEFFF",
"HIJHHHHHHHHHHII",
"KKKLKKKKKMKKKKK"};
