/* XPM */
static char * left_active_xpm[] = {
"1 24 3 1",
" 	c None",
".	c #CECECE",
"+	c #CDCDCD",
".",
"+",
".",
"+",
".",
"+",
".",
"+",
"+",
".",
"+",
"+",
".",
"+",
"+",
".",
"+",
"+",
".",
"+",
".",
"+",
".",
"+"};
