/* XPM */
static char * left_inactive_xpm[] = {
"2 24 3 1",
" 	c None",
".	c #CECECE",
"+	c #CDCDCD",
"..",
"++",
"..",
"++",
"..",
"++",
"..",
"++",
"++",
"..",
"++",
"++",
"..",
"++",
"++",
"..",
"++",
"++",
"..",
"++",
"..",
"++",
"..",
"++"};
