/* XPM */
static char * maximize_active_xpm[] = {
"15 18 84 1",
" 	c None",
".	c #656565",
"+	c #555555",
"@	c #545454",
"#	c #545554",
"$	c #545455",
"%	c #555454",
"&	c #535353",
"*	c #535354",
"=	c #535454",
"-	c #4A6C50",
";	c #399E4B",
">	c #2EC247",
",	c #399E4A",
"'	c #4A6C51",
")	c #545453",
"!	c #545353",
"~	c #525253",
"{	c #525252",
"]	c #515452",
"^	c #399D4A",
"/	c #2BCC46",
"(	c #3A9D4A",
"_	c #525351",
":	c #535252",
"<	c #515152",
"[	c #515151",
"}	c #515252",
"|	c #525251",
"1	c #525152",
"2	c #515050",
"3	c #48694D",
"4	c #496A4E",
"5	c #505151",
"6	c #515051",
"7	c #4F4F50",
"8	c #389D49",
"9	c #504F50",
"0	c #4E4F4F",
"a	c #2DC246",
"b	c #4E4E4F",
"c	c #4E4D4E",
"d	c #4D4E4E",
"e	c #4D4D4E",
"f	c #4C4D4D",
"g	c #379C48",
"h	c #4D4C4D",
"i	c #4D4D4D",
"j	c #4C4C4D",
"k	c #44664A",
"l	c #44664B",
"m	c #4B4C4C",
"n	c #4C4C4C",
"o	c #4B4B4B",
"p	c #379A47",
"q	c #379A48",
"r	c #4B4A4B",
"s	c #4B4B4C",
"t	c #4A4A4B",
"u	c #494C49",
"v	c #369A47",
"w	c #484B49",
"x	c #4A4A4A",
"y	c #4A494B",
"z	c #494A4B",
"A	c #49484A",
"B	c #484949",
"C	c #49494A",
"D	c #426349",
"E	c #359B47",
"F	c #2DC146",
"G	c #369B47",
"H	c #426448",
"I	c #48494A",
"J	c #474849",
"K	c #484848",
"L	c #484849",
"M	c #484749",
"N	c #474748",
"O	c #474747",
"P	c #464747",
"Q	c #464647",
"R	c #464546",
"S	c #464646",
"...............",
"+++++++++++++++",
"@@@@@@##@@@@$%@",
"&**=-;>>,'*)&&!",
"~{]^//////(_~~:",
"<[^////////^}|1",
"23//////////456",
"78//////////879",
"0a//////////abb",
"ca//////////ade",
"fg//////////ghi",
"jk//////////lmn",
"oop////////qors",
"ttuv//////vwxyz",
"ABCCDEFFGHCICCC",
"JJKLLLLLMLMKLLL",
"NOPNNNNNNNNNNOO",
"QQQRQQQQQSQQQQQ"};
