/* XPM */
static char * close_active_xpm[] = {
"15 18 57 1",
" 	c None",
".	c #D6D6D6",
"+	c #D6D5D6",
"@	c #D5D6D6",
"#	c #D5D6D5",
"$	c #D6D5D5",
"%	c #D5D5D6",
"&	c #D5D5D5",
"*	c #D4D4D4",
"=	c #D4D5D5",
"-	c #CDCDCD",
";	c #BFBFBF",
">	c #B4B4B4",
",	c #BEBEBF",
"'	c #CCCCCC",
")	c #D5D4D5",
"!	c #D5D4D4",
"~	c #D4D5D4",
"{	c #D3D3D4",
"]	c #BEBFBF",
"^	c #B2B2B2",
"/	c #D3D4D4",
"(	c #D4D4D3",
"_	c #BEBEBE",
":	c #D3D3D3",
"<	c #BDBDBE",
"[	c #D2D2D3",
"}	c #D2D3D3",
"|	c #D3D3D2",
"1	c #D2D2D2",
"2	c #D2D1D2",
"3	c #BDBDBD",
"4	c #D1D2D1",
"5	c #D1D1D1",
"6	c #D2D2D1",
"7	c #CACACA",
"8	c #D2D1D1",
"9	c #D1D1D0",
"0	c #D1D0D1",
"a	c #D0D0D0",
"b	c #D0D0D1",
"c	c #CFCFCF",
"d	c #D0CFCF",
"e	c #D0CFD0",
"f	c #D0D0CF",
"g	c #CFD0D0",
"h	c #C9C9C9",
"i	c #C9C9C8",
"j	c #CFCFD0",
"k	c #CFD0CF",
"l	c #CFCFCE",
"m	c #CECFCF",
"n	c #CFCECF",
"o	c #CECFCE",
"p	c #CFCECE",
"q	c #CECECE",
"r	c #CECECF",
"...............",
"+@.++@#$.%.$&@@",
"&&&&&&&&&%&&&&&",
"*=&&-;>>,')!)&&",
"~!{]^^^^^^;/)*=",
"((_^^^^^^^^_*(*",
":'^^^^^^^^^^'*:",
":_^^^^^^^^^^<::",
"[>^^^^^^^^^^>}|",
"1>^^^^^^^^^^>11",
"23^^^^^^^^^^345",
"67^^^^^^^^^^784",
"953^^^^^^^^3590",
"abc3^^^^^^3daaa",
"efegh3>>3iagegj",
"dcgajaedjkjcjck",
"clmcclcmnlcnclc",
"oppoopqqcqqoorp"};
