/* XPM */
static char * maximize_active_xpm[] = {
"15 18 58 1",
" 	c None",
".	c #DBDBDB",
"+	c #D6D5D6",
"@	c #D5D6D6",
"#	c #D6D6D6",
"$	c #D5D6D5",
"%	c #D6D5D5",
"&	c #D5D5D6",
"*	c #D5D5D5",
"=	c #D4D4D4",
"-	c #D4D5D5",
";	c #CDCDCD",
">	c #BFBFBF",
",	c #B4B4B4",
"'	c #BEBEBF",
")	c #CCCCCC",
"!	c #D5D4D5",
"~	c #D5D4D4",
"{	c #D4D5D4",
"]	c #D3D3D4",
"^	c #BEBFBF",
"/	c #B2B2B2",
"(	c #D3D4D4",
"_	c #D4D4D3",
":	c #BEBEBE",
"<	c #D3D3D3",
"[	c #BDBDBE",
"}	c #D2D2D3",
"|	c #D2D3D3",
"1	c #D3D3D2",
"2	c #D2D2D2",
"3	c #D2D1D2",
"4	c #BDBDBD",
"5	c #D1D2D1",
"6	c #D1D1D1",
"7	c #D2D2D1",
"8	c #CACACA",
"9	c #D2D1D1",
"0	c #D1D1D0",
"a	c #D1D0D1",
"b	c #D0D0D0",
"c	c #D0D0D1",
"d	c #CFCFCF",
"e	c #D0CFCF",
"f	c #D0CFD0",
"g	c #D0D0CF",
"h	c #CFD0D0",
"i	c #C9C9C9",
"j	c #C9C9C8",
"k	c #CFCFD0",
"l	c #CFD0CF",
"m	c #CFCFCE",
"n	c #CECFCF",
"o	c #CFCECF",
"p	c #CECFCE",
"q	c #CFCECE",
"r	c #CECECE",
"s	c #CECECF",
"...............",
"+@#++@$%#&#%*@@",
"*********&*****",
"=-**;>,,')!~!**",
"{~]^//////>(!=-",
"__:////////:=_=",
"<)//////////)=<",
"<://////////[<<",
"},//////////,|1",
"2,//////////,22",
"34//////////456",
"78//////////895",
"064////////460a",
"bcd4//////4ebbb",
"fgfhi4,,4jbhfhk",
"edhbkbfeklkdkdl",
"dmnddmdnomdodmd",
"pqqppqrrdrrppsq"};
