/* XPM */
static char * close_active_xpm[] = {
"15 18 62 1",
" 	c None",
".	c #DBDBDB",
"+	c #D6D5D6",
"@	c #D5D6D6",
"#	c #D6D6D6",
"$	c #D5D6D5",
"%	c #D6D5D5",
"&	c #D5D5D6",
"*	c #D5D5D5",
"=	c #D4D4D4",
"-	c #D4D5D5",
";	c #D4C1BE",
">	c #D29991",
",	c #D17D71",
"'	c #D3C0BD",
")	c #D5D4D5",
"!	c #D5D4D4",
"~	c #D4D5D4",
"{	c #D3D2D3",
"]	c #D29A92",
"^	c #D17669",
"/	c #D3D3D3",
"(	c #D4D4D3",
"_	c #D2C0BC",
":	c #D3BFBC",
"<	c #D19890",
"[	c #D2D2D3",
"}	c #D2D3D3",
"|	c #D3D3D2",
"1	c #D2D2D2",
"2	c #D2D1D2",
"3	c #D1978F",
"4	c #D1D2D1",
"5	c #D1D1D1",
"6	c #D2D2D1",
"7	c #D1BEBB",
"8	c #D2D1D1",
"9	c #D1D1D0",
"0	c #D09890",
"a	c #D1D0D1",
"b	c #D0D0D0",
"c	c #D0D0D1",
"d	c #D0CECE",
"e	c #D1CECE",
"f	c #D0CFD0",
"g	c #D0D0CF",
"h	c #CFD0D0",
"i	c #D0BDBA",
"j	c #D0978F",
"k	c #D07D71",
"l	c #D0BDB9",
"m	c #CFCFD0",
"n	c #D0CFCF",
"o	c #CFCFCF",
"p	c #CFD0CF",
"q	c #CFCFCE",
"r	c #CECFCF",
"s	c #CFCECF",
"t	c #CECFCE",
"u	c #CFCECE",
"v	c #CECECE",
"w	c #CECECF",
"...............",
"+@#++@$%#&#%*@@",
"*********&*****",
"=-**;>,,>')!)**",
"~!{]^^^^^^]/)=-",
"((>^^^^^^^^>=(=",
"/_^^^^^^^^^^:=/",
"/<^^^^^^^^^^<//",
"[,^^^^^^^^^^,}|",
"1,^^^^^^^^^^,11",
"23^^^^^^^^^^<45",
"67^^^^^^^^^^784",
"950^^^^^^^^<59a",
"bcd0^^^^^^0ebbb",
"fgfhijkkjlbhfhm",
"nohbmbfnmpmomop",
"oqrooqorsqosoqo",
"tuuttuvvovvttwu"};
