/* XPM */
static char * hide_active_xpm[] = {
"15 18 103 2",
"  	c None",
". 	c #DBDBDB",
"+ 	c #D6D5D6",
"@ 	c #D5D6D6",
"# 	c #D6D6D6",
"$ 	c #D5D6D5",
"% 	c #D6D5D5",
"& 	c #D5D5D6",
"* 	c #D5D5D5",
"= 	c #C5C5C5",
"- 	c #929292",
"; 	c #666666",
"> 	c #545454",
", 	c #D4D4D4",
"' 	c #D2D3D3",
") 	c #A6A6A6",
"! 	c #5B5B5B",
"~ 	c #828282",
"{ 	c #9B9B9B",
"] 	c #818182",
"^ 	c #A6A5A5",
"/ 	c #D3D2D3",
"( 	c #D4D5D4",
"_ 	c #848484",
": 	c #CAC9C9",
"< 	c #D4D5D5",
"[ 	c #D5D4D5",
"} 	c #C9C9C9",
"| 	c #A6A5A6",
"1 	c #C4C4C3",
"2 	c #838383",
"3 	c #D3D3D3",
"4 	c #D4D3D4",
"5 	c #D4D4D3",
"6 	c #D3D4D4",
"7 	c #C4C4C4",
"8 	c #919191",
"9 	c #C9CAC9",
"0 	c #D4D3D3",
"a 	c #CFCFCF",
"b 	c #D3D4D3",
"c 	c #CFD0D0",
"d 	c #818181",
"e 	c #989898",
"f 	c #696869",
"g 	c #BFBFBF",
"h 	c #686869",
"i 	c #D3D2D2",
"j 	c #808081",
"k 	c #999A9A",
"l 	c #505050",
"m 	c #5D5D5D",
"n 	c #C5C5C4",
"o 	c #C4C4C5",
"p 	c #99999A",
"q 	c #D3D3D2",
"r 	c #999999",
"s 	c #D2D2D2",
"t 	c #888888",
"u 	c #515151",
"v 	c #5E5E5E",
"w 	c #656565",
"x 	c #808080",
"y 	c #D1D1D1",
"z 	c #D1D2D1",
"A 	c #D2D2D1",
"B 	c #858585",
"C 	c #909090",
"D 	c #C6C6C6",
"E 	c #868686",
"F 	c #D1D1D2",
"G 	c #C1C1C0",
"H 	c #828383",
"I 	c #CECFCF",
"J 	c #D0D1D1",
"K 	c #D0D0D0",
"L 	c #D1D0D0",
"M 	c #D1D1D0",
"N 	c #CFCECF",
"O 	c #D1D0D1",
"P 	c #A2A2A3",
"Q 	c #C5C6C6",
"R 	c #828283",
"S 	c #A2A2A2",
"T 	c #D0CFD0",
"U 	c #CECECD",
"V 	c #5A5B5B",
"W 	c #5B5B5A",
"X 	c #CECDCE",
"Y 	c #CFCFD0",
"Z 	c #D0CFCF",
"` 	c #C1C1C1",
" .	c #8F8F90",
"..	c #545354",
"+.	c #545353",
"@.	c #8F8F8F",
"#.	c #C0C0C0",
"$.	c #CFD0CF",
"%.	c #CFCFCE",
"&.	c #CECFCE",
"*.	c #CFCECE",
"=.	c #CECECE",
"-.	c #CECECF",
". . . . . . . . . . . . . . . ",
"+ @ # + + @ $ % # & # % * @ @ ",
"* * * = - ; > > ; - = * * * * ",
", ' ) ! ! ~ { { ] ! ! ^ / * * ",
"( ^ > _ : < , [ , } _ > | , < ",
"1 ! 2 3 4 , , , 5 6 3 2 ! 7 , ",
"8 ! 9 0 a 3 b 3 3 c 3 } ! - 3 ",
"; d 3 e f g 3 3 g h e i j ; 3 ",
"> k / - l m n o m l - i p > q ",
"> r s s t u v v u t s s r > s ",
"w x y z A B u u B z z s x w y ",
"C ! D y y z E E y y F D ! C z ",
"G ! H I J J K K L M N ~ ! G O ",
"K P > ~ = M O L K Q R > S K K ",
"T U S V ! x e e x W ! S X c Y ",
"Z a c `  .w ..+.w @.#.a Y a $.",
"a %.I a a %.a I N %.a N a %.a ",
"&.*.*.&.&.*.=.=.a =.=.&.&.-.*."};
