/* XPM */
static char * hide_inactive_xpm[] = {
"15 18 69 1",
" 	c None",
".	c #C2C2C2",
"+	c #C3C2C3",
"@	c #C3C2C2",
"#	c #C2C3C2",
"$	c #C2C2C3",
"%	c #C2C3C3",
"&	c #C3C3C2",
"*	c #C3C3C3",
"=	c #C4C4C4",
"-	c #C3C4C4",
";	c #C4C4C3",
">	c #C4C3C4",
",	c #C3C3C4",
"'	c #C4C4C5",
")	c #C5C4C5",
"!	c #C5C4C4",
"~	c #BFBFBF",
"{	c #B6B6B6",
"]	c #AFAFAF",
"^	c #C5C5C5",
"/	c #C4C5C5",
"(	c #AEAEAE",
"_	c #C6C5C5",
":	c #C5C5C6",
"<	c #C5C6C6",
"[	c #B6B7B6",
"}	c #C6C6C6",
"|	c #C1C1C1",
"1	c #C7C7C7",
"2	c #C7C6C7",
"3	c #B7B7B7",
"4	c #C8C8C7",
"5	c #C7C8C7",
"6	c #AFB0B0",
"7	c #C8C8C8",
"8	c #B0B0B0",
"9	c #C9C9C9",
"0	c #C9C8C9",
"a	c #C8C9C8",
"b	c #B7B7B8",
"c	c #B8B7B7",
"d	c #CAC9CA",
"e	c #CACACA",
"f	c #CACBCA",
"g	c #CBCACA",
"h	c #CBCBCA",
"i	c #B8B8B8",
"j	c #CACACB",
"k	c #CBCACB",
"l	c #CBCBCB",
"m	c #B8B9B9",
"n	c #B8B9B8",
"o	c #C9C9CA",
"p	c #CCCCCB",
"q	c #CBCCCC",
"r	c #CBCCCB",
"s	c #CBCBCC",
"t	c #B8B8B9",
"u	c #CCCCCC",
"v	c #CCCBCC",
"w	c #CDCCCC",
"x	c #CDCDCD",
"y	c #CCCDCD",
"z	c #CECDCD",
"A	c #CECECD",
"B	c #CDCECD",
"C	c #CECDCE",
"D	c #CDCECE",
"...............",
"+@.##.$%+@&$*++",
"=-=-=;>,==;-;>;",
"'=)=!=~{]]{~===",
"^^^/-{(((((({=!",
"_^:<[(((((((([:",
":}}|((((((((((|",
"1123((((((((((3",
"445]((((((((((6",
"7778((((((((((8",
"90ab((((((((((c",
"d9e;((((((((((=",
"fgehi((((((((ig",
"jkflem((((((nol",
"pqrsls!t88n!sll",
"uvpuuupuuuuquuw",
"xxxxxxxxxxxxyxy",
"zxAzBCDzBxDAxCC"};
