/* XPM */
static char * close_active_xpm[] = {
"15 18 61 1",
" 	c None",
".	c #C2C2C2",
"+	c #C3C3C3",
"@	c #C2C3C2",
"#	c #C2C2C3",
"$	c #C3C3C2",
"%	c #C3C2C3",
"&	c #C3C4C3",
"*	c #C4C4C3",
"=	c #C3C4C4",
"-	c #C4C4C4",
";	c #C3C3C4",
">	c #C4C3C3",
",	c #E3A2A7",
"'	c #FF4D50",
")	c #C5C4C4",
"!	c #C5C5C5",
"~	c #C4C5C5",
"{	c #C5C5C4",
"]	c #C5C5C6",
"^	c #C5C6C6",
"/	c #C6C6C6",
"(	c #F55053",
"_	c #F54F52",
":	c #C6C5C6",
"<	c #E2989E",
"[	c #E2979D",
"}	c #C7C6C7",
"|	c #C7C7C7",
"1	c #C8C7C7",
"2	c #C8C8C8",
"3	c #C9C9C9",
"4	c #C8C9C9",
"5	c #C8C8C9",
"6	c #C9CAC9",
"7	c #CACAC9",
"8	c #CACACA",
"9	c #CBCBCA",
"0	c #CACBCA",
"a	c #CBCBCB",
"b	c #CBCACA",
"c	c #CCCBCB",
"d	c #CBCCCB",
"e	c #E3A1A6",
"f	c #CCCCCB",
"g	c #CBCBCC",
"h	c #CCCCCC",
"i	c #CCCDCC",
"j	c #CCCBCC",
"k	c #CDCCCC",
"l	c #CBCCCC",
"m	c #CCCDCB",
"n	c #CDCDCD",
"o	c #CDCCCD",
"p	c #CCCDCD",
"q	c #CECDCD",
"r	c #CDCECE",
"s	c #CECECD",
"t	c #CDCDCE",
"u	c #CECECE",
"v	c #CDCECD",
"...............",
"+@+#$.+#$+$+@$%",
"&*=-;=*=+=-&*->",
"------,'''',-)-",
"!)~!{'''''''')!",
"]^//(''''''''_!",
"://<''''''''''[",
"}||''''''''''''",
"11|''''''''''''",
"222''''''''''''",
"345''''''''''''",
"667[''''''''''[",
"8908_'''''''''8",
"a9aaa''''''''ab",
"acadaa,''''edfg",
"hhihhjkfhlmhhjf",
"nnonpnpppnonnnn",
"qrqstuvrqrsvqqs"};
