/* XPM */
static char * maximize_active_xpm[] = {
"15 18 60 1",
" 	c None",
".	c #C2C2C2",
"+	c #C3C3C3",
"@	c #C2C3C2",
"#	c #C2C2C3",
"$	c #C3C3C2",
"%	c #C3C2C3",
"&	c #C3C4C3",
"*	c #C4C4C3",
"=	c #C3C4C4",
"-	c #C4C4C4",
";	c #C3C3C4",
">	c #C4C3C3",
",	c #9BDCA0",
"'	c #2BCC46",
")	c #A0DCA3",
"!	c #C5C4C4",
"~	c #C5C5C5",
"{	c #C4C5C5",
"]	c #C5C5C4",
"^	c #C5C5C6",
"/	c #C5C6C6",
"(	c #C6C6C6",
"_	c #C6C5C6",
":	c #9BDB9F",
"<	c #A0DDA4",
"[	c #C7C6C7",
"}	c #C7C7C7",
"|	c #C8C7C7",
"1	c #C8C8C8",
"2	c #C9C9C9",
"3	c #C8C9C9",
"4	c #C8C8C9",
"5	c #C9CAC9",
"6	c #CACAC9",
"7	c #CACACA",
"8	c #CBCBCA",
"9	c #CACBCA",
"0	c #CBCBCB",
"a	c #CBCACA",
"b	c #CCCBCB",
"c	c #CBCCCB",
"d	c #9DDCA1",
"e	c #CCCCCB",
"f	c #CBCBCC",
"g	c #CCCCCC",
"h	c #CCCDCC",
"i	c #CCCBCC",
"j	c #CDCCCC",
"k	c #CBCCCC",
"l	c #CCCDCB",
"m	c #CDCDCD",
"n	c #CDCCCD",
"o	c #CCCDCD",
"p	c #CECDCD",
"q	c #CDCECE",
"r	c #CECECD",
"s	c #CDCDCE",
"t	c #CECECE",
"u	c #CDCECD",
"...............",
"+@+#$.+#$+$+@$%",
"&*=-;=*=+=-&*->",
"------,'''')-!-",
"~!{~]''''''''!~",
"^/((''''''''''~",
"_((:''''''''''<",
"[}}''''''''''''",
"||}''''''''''''",
"111''''''''''''",
"234''''''''''''",
"556:''''''''''<",
"7897''''''''''7",
"08000''''''''0a",
"0b0c00:''''dcef",
"gghggijegklggie",
"mmnmomooomnmmmm",
"pqprstuqpqruppr"};
