/* XPM */
static char * maximize_inactive_xpm[] = {
"23 23 24 1",
" 	c None",
".	c #CACACA",
"+	c #CECECE",
"@	c #C8C9C9",
"#	c #BBBCBF",
"$	c #B4B6BA",
"%	c #ADB0B5",
"&	c #CDCDCD",
"*	c #BDBFC1",
"=	c #AEB0B5",
"-	c #B9B9BC",
";	c #BDBEC1",
">	c #C4C4C5",
",	c #BEBFC2",
"'	c #B2B4B8",
")	c #C3C3C5",
"!	c #C7C7C8",
"~	c #BABCBF",
"{	c #C2C3C4",
"]	c #ABAEB3",
"^	c #C2C2C5",
"/	c #C2C3C5",
"(	c #ADB0B4",
"_	c #C8C9C8",
".......................",
"+++++++++++++++++++++++",
"+++++++++++++++++++++++",
"+++++++@#$%%$#@++++++++",
"+++++&*=-;>>,-=*&++++++",
"++++&$')!!!!!!)'$&+++++",
"++++*'!!!!!!!!!!'*+++++",
"+++@=)!!!!!!!!!!)=@++++",
"+++~-!!!!{%]]]!!!-~++++",
"+++$,!!!^!{%]]!!!,$++++",
"+++%>!!!%/!{%]!!!>%++++",
"+++%>!!!]%{!{%!!!>%++++",
"+++$,!!!]]()!{!!!,$++++",
"+++~-!!!]]]={!!!!-~++++",
"+++@=)!!!!!!!!!!)=@++++",
"++++*'!!!!!!!!!!'*+++++",
"++++&$')!!!!!!)'$&+++++",
"+++++&*=-,>>,-=*&++++++",
"+++++++_#$%%$#@++++++++",
"+++++++++++++++++++++++",
"+++++++++++++++++++++++",
"+++++++++++++++++++++++",
"+++++++++++++++++++++++"};
