/* XPM */
static char * maximize_prelight_xpm[] = {
"23 23 213 2",
"  	c None",
". 	c #CECECE",
"+ 	c #DFCBCD",
"@ 	c #DEBCBF",
"# 	c #DEAEB2",
"$ 	c #DEA1A6",
"% 	c #DDA1A7",
"& 	c #DEAFB4",
"* 	c #DEBDC0",
"= 	c #DFCCCE",
"- 	c #D2C9C8",
"; 	c #DDA7AC",
"> 	c #DD9AA0",
", 	c #DDAAAE",
"' 	c #CFC8C7",
") 	c #DDBFC2",
"! 	c #DC9BA1",
"~ 	c #DC999F",
"{ 	c #D7969C",
"] 	c #C98C92",
"^ 	c #C0868B",
"/ 	c #B98186",
"( 	c #CA8D93",
"_ 	c #DCC0C2",
": 	c #DCBEC1",
"< 	c #DC9AA0",
"[ 	c #DC9A9F",
"} 	c #C88C91",
"| 	c #B58388",
"1 	c #D5C2C5",
"2 	c #DEDAD9",
"3 	c #EAE8E8",
"4 	c #EBE9E9",
"5 	c #DFD9D7",
"6 	c #D5C0C3",
"7 	c #DBC0C2",
"8 	c #D4CBCA",
"9 	c #DB9AA0",
"0 	c #DB9A9F",
"a 	c #B77F84",
"b 	c #BCA09F",
"c 	c #E8E6E6",
"d 	c #ECECEC",
"e 	c #EAEAEA",
"f 	c #E8E8E8",
"g 	c #BF9FA0",
"h 	c #DB999F",
"i 	c #DB9BA1",
"j 	c #D2CBCA",
"k 	c #CECDCD",
"l 	c #DBA6AB",
"m 	c #C2888D",
"n 	c #BA9B9E",
"o 	c #E5E5E5",
"p 	c #E3E3E3",
"q 	c #BA989B",
"r 	c #DAA7AC",
"s 	c #DAC6C8",
"t 	c #DA979D",
"u 	c #D29399",
"v 	c #A3767A",
"w 	c #DDDAD9",
"x 	c #DDDDDD",
"y 	c #DADADA",
"z 	c #DCDCDC",
"A 	c #DBDBDB",
"B 	c #DCDAD8",
"C 	c #A17478",
"D 	c #D9C8CA",
"E 	c #D9B8BB",
"F 	c #B98287",
"G 	c #BAACA7",
"H 	c #D9D9D9",
"I 	c #D2D2D2",
"J 	c #D4D4D4",
"K 	c #B5B5B5",
"L 	c #404040",
"M 	c #3E3E3E",
"N 	c #393939",
"O 	c #D5D5D5",
"P 	c #B8AAA5",
"Q 	c #DA989E",
"R 	c #D9BABD",
"S 	c #D9AAAE",
"T 	c #DA999F",
"U 	c #A57378",
"V 	c #C5BDBC",
"W 	c #D0D0D0",
"X 	c #AFAFAF",
"Y 	c #CDCDCD",
"Z 	c #727272",
"` 	c #737373",
" .	c #626262",
"..	c #CFCFCF",
"+.	c #C5BCBB",
"@.	c #D8ABAF",
"#.	c #D89BA1",
"$.	c #DA9AA0",
"%.	c #8E6765",
"&.	c #D0CCCD",
"*.	c #C8C8C8",
"=.	c #484848",
"-.	c #ABABAB",
";.	c #797979",
">.	c #6A6A6A",
",.	c #D0CCCC",
"'.	c #D99EA3",
").	c #8B6064",
"!.	c #C8C4C5",
"~.	c #C0C0C0",
"{.	c #BFBFBF",
"].	c #C3C3C3",
"^.	c #575757",
"/.	c #AAAAAA",
"(.	c #C6C6C6",
"_.	c #C5C5C5",
":.	c #6E6E6E",
"<.	c #C8C3C3",
"[.	c #DB9BA0",
"}.	c #D8A9AD",
"|.	c #986C6E",
"1.	c #B2ABA9",
"2.	c #BCBCBC",
"3.	c #616161",
"4.	c #757575",
"5.	c #5A5A5A",
"6.	c #A7A7A7",
"7.	c #C2C2C2",
"8.	c #C1C1C1",
"9.	c #B2AAA8",
"0.	c #D7AAAE",
"a.	c #D6B5B8",
"b.	c #D8979D",
"c.	c #A9777B",
"d.	c #9C8C8A",
"e.	c #BDBDBD",
"f.	c #B8B8B8",
"g.	c #BBBBBB",
"h.	c #545454",
"i.	c #606060",
"j.	c #4A4A4A",
"k.	c #A4A4A4",
"l.	c #B9B9B9",
"m.	c #9D8B8A",
"n.	c #D6B7BA",
"o.	c #D4C0C2",
"p.	c #D7959B",
"q.	c #CB9096",
"r.	c #7A5659",
"s.	c #B5B3B1",
"t.	c #B7B7B7",
"u.	c #B4B2AF",
"v.	c #795559",
"w.	c #D4C3C5",
"x.	c #CFCECE",
"y.	c #D6A1A6",
"z.	c #D9999E",
"A.	c #A8767A",
"B.	c #836A6A",
"C.	c #B4B4B4",
"D.	c #B2B2B2",
"E.	c #846869",
"F.	c #D8989E",
"G.	c #D5A2A7",
"H.	c #D2C8C8",
"I.	c #D6959B",
"J.	c #D99BA0",
"K.	c #855D61",
"L.	c #7E6365",
"M.	c #ADA9A8",
"N.	c #B1B1B1",
"O.	c #7F6265",
"P.	c #DA9BA1",
"Q.	c #D6979D",
"R.	c #D2C9C9",
"S.	c #D3B5B8",
"T.	c #A27276",
"U.	c #67494C",
"V.	c #897B77",
"W.	c #9B9390",
"X.	c #ABA8A8",
"Y.	c #877975",
"Z.	c #67484B",
"`.	c #D89AA0",
" +	c #D6949A",
".+	c #D2B7B9",
"++	c #D2B4B7",
"@+	c #D5949A",
"#+	c #D7989E",
"$+	c #C58D92",
"%+	c #976D6D",
"&+	c #7E585B",
"*+	c #644548",
"=+	c #D7979D",
"-+	c #D1B5B7",
";+	c #CFC4C5",
">+	c #D49EA3",
",+	c #D8999F",
"'+	c #D99BA1",
")+	c #D7999E",
"!+	c #D7979C",
"~+	c #D59399",
"{+	c #D3A0A4",
"]+	c #CFC5C6",
"^+	c #CDCCCC",
"/+	c #CFBBBD",
"(+	c #D1AFB2",
"_+	c #D3A3A7",
":+	c #D4979C",
"<+	c #D3979D",
"[+	c #D2A3A8",
"}+	c #D0AFB2",
"|+	c #CFBCBE",
". . . . . . . . . . . . . . . . . . . . . . . ",
". . . . . . . + @ # $ % & * = . . . . . . . . ",
". . . . . - ; > > > > > > > > , ' . . . . . . ",
". . . . ) ! ~ { ] ^ / / ^ ( { ~ ! _ . . . . . ",
". . . : < [ } | 1 2 3 4 5 6 | } > ~ 7 . . . . ",
". . 8 9 0 a b c d e f f e d c g a h i j . . . ",
". k l h m n e o p p p p p p o e q m h r k . . ",
". s t u v w x y y z A A A A z x B C u t D . . ",
". E h F G H I I J K L M M N O I H P F Q R . . ",
". S T U V W . . X W Y Z `  .... W +.U 9 @.. . ",
". #.$.%.&.*.*.Y =.-.Y *.;.>.Y *.*.,.%.T '.. . ",
". #.i ).!.~.{.]. .^./.(._.:.].{.~.<.).[.'.. . ",
". }.T |.1.{.2.{.3.4.5.6.7.8.{.2.{.9.|.T 0.. . ",
". a.b.c.d.e.f.g.h.i.3.j.k.e.l.f.e.m.c.b.n.. . ",
". o.p.q.r.s.t.f........ 2.K K t.u.v.q.p.w.. . ",
". x.y.z.A.B.t.C.D.D.D.D.D.D.C.t.E.A.F.G.x.. . ",
". ..H.I.J.K.L.M.D.D.N.N.D.D.M.O.K.P.Q.R.... . ",
". ....S.p.J.T.U.V.W.X.X.W.Y.Z.T.`. +.+..... . ",
". . . . ++@+#+$+%+&+*+*+&+%+$+=+I.-+. . . . . ",
". . . . . ;+>+@+=+,+'+#.)+!+~+{+]+. . . . . . ",
". Y Y Y Y Y ^+/+(+_+:+<+[+}+|+^+Y Y Y Y Y . . ",
". . . . . . . . . . . . . . . . . . . . . . . ",
". . . . . . . . . . . . . . . . . . . . . . . "};
