/* XPM */
static char * shade_toggled_active_xpm[] = {
"23 23 80 1",
" 	c None",
".	c #CECECE",
"+	c #CAC9C9",
"@	c #CAC9C8",
"#	c #C6C5C4",
"$	c #FCFCFC",
"%	c #FBFBFB",
"&	c #C5C4C3",
"*	c #C3C3C2",
"=	c #F5F5F5",
"-	c #F7F7F7",
";	c #F1F1F1",
">	c #C2C2C1",
",	c #BDBCBB",
"'	c #D7D7D6",
")	c #E6E6E5",
"!	c #D2D2D2",
"~	c #E1E1E0",
"{	c #D6D6D6",
"]	c #CBCACA",
"^	c #D7D6D6",
"/	c #A7A6A6",
"(	c #151414",
"_	c #999898",
":	c #DBDBDB",
"<	c #CDCCCC",
"[	c #BAB9B8",
"}	c #A1A09F",
"|	c #21201F",
"1	c #989796",
"2	c #232221",
"3	c #979695",
"4	c #B1B0B0",
"5	c #A09E9D",
"6	c #1F1F1E",
"7	c #BABAB9",
"8	c #F9F9F8",
"9	c #C6C6C6",
"0	c #939391",
"a	c #ADACAB",
"b	c #828282",
"c	c #F0EFEF",
"d	c #DAD9D9",
"e	c #EEEDED",
"f	c #C5C4C4",
"g	c #7C7B7A",
"h	c #AEADAC",
"i	c #C7C6C5",
"j	c #B4B3B2",
"k	c #737271",
"l	c #141312",
"m	c #676665",
"n	c #CECDCD",
"o	c #C1C0BF",
"p	c #999999",
"q	c #CBC9C8",
"r	c #DCDCDB",
"s	c #959393",
"t	c #AFAEAD",
"u	c #B5B5B5",
"v	c #CCCCCB",
"w	c #9D9C9C",
"x	c #ACACAB",
"y	c #C4C3C2",
"z	c #C0BFBE",
"A	c #C4C4C3",
"B	c #A9A8A8",
"C	c #C4C3C3",
"D	c #A8A8A7",
"E	c #7E7D7D",
"F	c #B5B4B4",
"G	c #CCCBC9",
"H	c #CECCCB",
"I	c #CCCAC8",
"J	c #B5B5B3",
"K	c #7E7C7C",
"L	c #CECECD",
"M	c #B9B8B7",
"N	c #939291",
"O	c #8B8A89",
".......................",
".......................",
".......................",
".......................",
".........+...@.........",
".......#.$$$$%.&.......",
"......*=-=;;;=-=>......",
".....,')!!!.!!!~{,.....",
"....].^.../(_...:<]....",
"....[....}|123....[....",
"....4...56789|0...4....",
"....a...b7cdefg...a....",
"....h.....iii.....h....",
"....j...klllllm..nj....",
"....op.q.rrrrr.q.so....",
".....tu.v.....<.4t.....",
".....#wx.yzzzA.Bw#.....",
"......CDEFGHIJKDC......",
".......LMaNONaML.......",
"..........v@v..........",
".......................",
".......................",
"......................."};
