/* XPM */
static char * stick_prelight_xpm[] = {
"23 23 70 1",
" 	c None",
".	c #CECECE",
"+	c #CADAE2",
"@	c #D0D4D6",
"#	c #C6D9E4",
"$	c #EAF2F7",
"%	c #FCFCFC",
"&	c #FBFBFB",
"*	c #E9F1F6",
"=	c #C5D8E4",
"-	c #C3D9E7",
";	c #F5F6F7",
">	c #F7F7F7",
",	c #F5F5F5",
"'	c #F1F1F1",
")	c #F5F7F8",
"!	c #C2D8E6",
"~	c #BDD4E2",
"{	c #E9EAEB",
"]	c #E6E6E5",
"^	c #D2D2D2",
"/	c #E1E1E0",
"(	c #ECEFF1",
"_	c #CBD5DC",
":	c #CED0D1",
"<	c #D7D6D6",
"[	c #DBDBDB",
"}	c #CDD7DE",
"|	c #BAD2E2",
"1	c #D4D6D6",
"2	c #B1D0E4",
"3	c #BFD5E1",
"4	c #ADCFE4",
"5	c #79BFE8",
"6	c #AECFE4",
"7	c #B4D1E3",
"8	c #CED1D3",
"9	c #C1D5E1",
"0	c #99CAE7",
"a	c #CBC9C8",
"b	c #95C8E6",
"c	c #AFD0E4",
"d	c #B5D0E0",
"e	c #C5C4C3",
"f	c #B1CEE0",
"g	c #C6D7E1",
"h	c #9DCBE8",
"i	c #ACCCDE",
"j	c #D1D3D2",
"k	c #C4C3C2",
"l	c #C0BFBE",
"m	c #C4C4C3",
"n	c #D0D2D3",
"o	c #A9CBDF",
"p	c #C4D6E1",
"q	c #A8CEE6",
"r	c #7EC1E8",
"s	c #B5CCDB",
"t	c #CCD3D6",
"u	c #CED2D5",
"v	c #CCD2D5",
"w	c #B5CEDB",
"x	c #7EC0E8",
"y	c #CED0D2",
"z	c #B9D2E2",
"A	c #ADD0E4",
"B	c #93C9E8",
"C	c #8BC5E8",
"D	c #CCD4D9",
"E	c #CAD6DE",
".......................",
".......................",
".......................",
".......................",
".........+.@.+.........",
".......#$%%%%&*=.......",
"......-;>,''',>)!......",
".....~{]^^^^^^^/(~.....",
"...._:<.........[}_....",
"....|............1|....",
"....2......3......2....",
"....4......5......4....",
"....6.............6....",
"....78...........87....",
"....90.aaaaaaaaa.b9....",
".....cd.eeeeeee.fc.....",
".....ghijklllmnohg.....",
"......pqrstuvwxqp......",
".......yzABCBAzy.......",
"..........DED..........",
".......................",
".......................",
"......................."};
