/* XPM */
static char * stick_toggled_inactive_xpm[] = {
"23 23 52 1",
" 	c None",
".	c #CACACA",
"+	c #CECECE",
"@	c #C2C1C1",
"#	c #BCBAB9",
"$	c #BDBBBA",
"%	c #BBBAB9",
"&	c #C3C2C0",
"*	c #BFBEBD",
"=	c #CBCBCA",
"-	c #CDCCCC",
";	c #BFBDBC",
">	c #BAB9B8",
",	c #C9C7C6",
"'	c #C5C3C2",
")	c #CAC8C8",
"!	c #CBCACA",
"~	c #C6C5C4",
"{	c #CECECD",
"]	c #C3C2C1",
"^	c #B1B0B0",
"/	c #ADACAB",
"(	c #BABAB8",
"_	c #AEADAC",
":	c #EBEBEB",
"<	c #B4B3B2",
"[	c #C1C0BF",
"}	c #9B9B9B",
"|	c #D2D2D2",
"1	c #979696",
"2	c #AFAEAD",
"3	c #BEBDBD",
"4	c #ECEBEB",
"5	c #B9B8B8",
"6	c #9D9C9C",
"7	c #B7B6B5",
"8	c #F2F1F1",
"9	c #F9F8F8",
"0	c #B3B1B1",
"a	c #C4C3C3",
"b	c #A8A8A7",
"c	c #7F7E7E",
"d	c #C1C0C0",
"e	c #D8D7D6",
"f	c #DCDBDA",
"g	c #C0C0BF",
"h	c #7F7D7D",
"i	c #B9B8B7",
"j	c #939291",
"k	c #8B8A89",
"l	c #CCCCCB",
"m	c #CAC9C8",
".......................",
"+++++++++++++++++++++++",
"+++++++++++++++++++++++",
"+++++++++++++++++++++++",
"+++++++++@#$%&+++++++++",
"+++++++*=+++++-;+++++++",
"++++++>++,''',++%++++++",
"+++++%++)))))))++#+++++",
"++++!~+{{{{{{{{{+]!++++",
"++++>+++++++++++++>++++",
"++++^++++++-++++++^++++",
"++++/++++++(++++++/++++",
"++++_++++++:++++++_++++",
"++++<+++++++++++++<++++",
"++++[}+|||||||||+1[++++",
"+++++23+4444444+52+++++",
"+++++~67+89998+06~+++++",
"++++++abcdefeghba++++++",
"+++++++{i/jkj/i{+++++++",
"++++++++++lml++++++++++",
"+++++++++++++++++++++++",
"+++++++++++++++++++++++",
"+++++++++++++++++++++++"};
