/* XPM */
static char * maximize_prelight_xpm[] = {
"23 23 100 2",
"  	c None",
". 	c #CECECE",
"+ 	c #D2D2D2",
"@ 	c #C8C8C8",
"# 	c #BFBFBF",
"$ 	c #B7B7B7",
"% 	c #C0C0C0",
"& 	c #C9C9C9",
"* 	c #D3D3D3",
"= 	c #CCCCCC",
"- 	c #BBBBBB",
"; 	c #B2B2B2",
"> 	c #BCBCBC",
", 	c #CACACA",
"' 	c #B3B3B3",
") 	c #B1B1B1",
"! 	c #AEAEAE",
"~ 	c #A2A2A2",
"{ 	c #9B9B9B",
"] 	c #959595",
"^ 	c #A3A3A3",
"/ 	c #DBDBDB",
"( 	c #E9E9E9",
"_ 	c #EAEAEA",
": 	c #DADADA",
"< 	c #939393",
"[ 	c #A9A9A9",
"} 	c #E7E7E7",
"| 	c #ECECEC",
"1 	c #E8E8E8",
"2 	c #AAAAAA",
"3 	c #CDCDCD",
"4 	c #B9B9B9",
"5 	c #9D9D9D",
"6 	c #A6A6A6",
"7 	c #E5E5E5",
"8 	c #E3E3E3",
"9 	c #A4A4A4",
"0 	c #BABABA",
"a 	c #AFAFAF",
"b 	c #868686",
"c 	c #DDDDDD",
"d 	c #DCDCDC",
"e 	c #848484",
"f 	c #C4C4C4",
"g 	c #969696",
"h 	c #D9D9D9",
"i 	c #D4D4D4",
"j 	c #B5B5B5",
"k 	c #404040",
"l 	c #3E3E3E",
"m 	c #393939",
"n 	c #D5D5D5",
"o 	c #ADADAD",
"p 	c #B0B0B0",
"q 	c #C5C5C5",
"r 	c #858585",
"s 	c #D0D0D0",
"t 	c #727272",
"u 	c #737373",
"v 	c #626262",
"w 	c #CFCFCF",
"x 	c #484848",
"y 	c #ABABAB",
"z 	c #797979",
"A 	c #6A6A6A",
"B 	c #707070",
"C 	c #C6C6C6",
"D 	c #C3C3C3",
"E 	c #575757",
"F 	c #6E6E6E",
"G 	c #7B7B7B",
"H 	c #616161",
"I 	c #757575",
"J 	c #5A5A5A",
"K 	c #A7A7A7",
"L 	c #C2C2C2",
"M 	c #C1C1C1",
"N 	c #ACACAC",
"O 	c #898989",
"P 	c #919191",
"Q 	c #BDBDBD",
"R 	c #B8B8B8",
"S 	c #545454",
"T 	c #606060",
"U 	c #4A4A4A",
"V 	c #C7C7C7",
"W 	c #636363",
"X 	c #B4B4B4",
"Y 	c #888888",
"Z 	c #CBCBCB",
"` 	c #6C6C6C",
" .	c #6D6D6D",
"..	c #838383",
"+.	c #7E7E7E",
"@.	c #7C7C7C",
"#.	c #535353",
"$.	c #A1A1A1",
"%.	c #666666",
"&.	c #505050",
". . . . . . . . . . . . . . . . . . . . . . . ",
". . . . . . . + @ # $ $ % & * . . . . . . . . ",
". . . . . = - ; ; ; ; ; ; ; ; > , . . . . . . ",
". . . . , ' ) ! ~ { ] ] { ^ ! ) ' , . . . . . ",
". . . & ; ; ~ ] & / ( _ : @ ] ~ ; ) , . . . . ",
". . . ; ) < [ } | _ 1 1 _ | } 2 < ) ; 3 . . . ",
". 3 4 ) 5 6 _ 7 8 8 8 8 8 8 7 _ 9 5 ) 0 3 . . ",
". 3 a 2 b / c : : d / / / / d c : e 2 a . . . ",
". f ) g a h + + i j k l l m n + h o g p q . . ",
". - ) r # s . . a s 3 t u v w . s # r ; - . . ",
". ) ) u . @ @ 3 x y 3 @ z A 3 @ @ 3 u ) ' . . ",
". ) ; B C % # D v E 2 C q F D # % q B ; ' . . ",
". 0 ) G o # > # H I J K L M # > # N G ) 0 . . ",
". M a O P Q R - S T H U 9 Q 4 R Q P O a L . . ",
". V o 6 W ' $ R w w w . > j j $ ; v 6 o & . . ",
". . X p Y t $ X ; ; ; ; ; ; X $ t Y a j . . . ",
". w Z o ) `  .2 ; ; ) ) ; ; 2  .` ; ! = w . . ",
". w w % o ) ..S +.] [ [ ] @.#...) N M w w . . ",
". . . . # N a $.G %.&.&.%.G $.! o # . . . . . ",
". . . . . @ ; N ! p ; ) a ! y ; & . . . . . . ",
". 3 3 3 3 3 = L - X o o X - D = 3 3 3 3 3 . . ",
". . . . . . . . . . . . . . . . . . . . . . . ",
". . . . . . . . . . . . . . . . . . . . . . . "};
