/* XPM */
static char * stick_inactive_xpm[] = {
"23 23 59 1",
" 	c None",
".	c #CACACA",
"+	c #CECECE",
"@	c #CAC9C9",
"#	c #CAC9C8",
"$	c #C6C5C4",
"%	c #FCFCFC",
"&	c #FBFBFB",
"*	c #C5C4C3",
"=	c #C3C3C2",
"-	c #F5F5F5",
";	c #F7F7F7",
">	c #F1F1F1",
",	c #C2C2C1",
"'	c #BDBCBB",
")	c #D7D7D6",
"!	c #E6E6E5",
"~	c #D2D2D2",
"{	c #E1E1E0",
"]	c #D6D6D6",
"^	c #CBCACA",
"/	c #D7D6D6",
"(	c #DBDBDB",
"_	c #CDCCCC",
":	c #BAB9B8",
"<	c #B1B0B0",
"[	c #ADACAB",
"}	c #B7B7B6",
"|	c #AEADAC",
"1	c #B4B3B2",
"2	c #CECDCD",
"3	c #C1C0BF",
"4	c #999999",
"5	c #CBC9C8",
"6	c #959393",
"7	c #AFAEAD",
"8	c #B5B5B5",
"9	c #9D9C9C",
"0	c #ACACAB",
"a	c #D1D1CF",
"b	c #C4C3C2",
"c	c #C0BFBE",
"d	c #C4C4C3",
"e	c #D0D0D0",
"f	c #A9A8A8",
"g	c #C4C3C3",
"h	c #A8A8A7",
"i	c #7E7D7D",
"j	c #B5B4B4",
"k	c #CCCBC9",
"l	c #CECCCB",
"m	c #CCCAC8",
"n	c #B5B5B3",
"o	c #7E7C7C",
"p	c #CECECD",
"q	c #B9B8B7",
"r	c #939291",
"s	c #8B8A89",
"t	c #CCCCCB",
".......................",
"+++++++++++++++++++++++",
"+++++++++++++++++++++++",
"+++++++++++++++++++++++",
"+++++++++@+++#+++++++++",
"+++++++$+%%%%&+*+++++++",
"++++++=-;->>>-;-,++++++",
"+++++')!~~~~~~~{]'+++++",
"++++^+/+++++++++(_^++++",
"++++:+++++++++++++:++++",
"++++<+++++++++++++<++++",
"++++[++++++}++++++[++++",
"++++|+++++++++++++|++++",
"++++1++++++++++++21++++",
"++++34+555555555+63++++",
"+++++78+*******+<7+++++",
"+++++$90abcccdef9$+++++",
"++++++ghijklmnohg++++++",
"+++++++pq[rsr[qp+++++++",
"++++++++++t#t++++++++++",
"+++++++++++++++++++++++",
"+++++++++++++++++++++++",
"+++++++++++++++++++++++"};
