/* XPM */
static char * close_active_xpm[] = {
"15 18 65 1",
" 	c None",
".	c #D6D6D6",
"+	c #D6D5D6",
"@	c #D5D6D6",
"#	c #D5D6D5",
"$	c #D6D5D5",
"%	c #D5D5D6",
"&	c #D5D5D5",
"*	c #D4D4D4",
"=	c #D4D5D5",
"-	c #DCBCBA",
";	c #EB8A85",
">	c #F66860",
",	c #DBBBBA",
"'	c #D5D4D5",
")	c #D5D4D4",
"!	c #D4D5D4",
"~	c #D4D2D3",
"{	c #EA8B86",
"]	c #F95F57",
"^	c #EB8B86",
"/	c #D4D3D3",
"(	c #D4D4D3",
"_	c #D3D3D3",
":	c #DABBB9",
"<	c #DBBAB9",
"[	c #EA8A85",
"}	c #EA8985",
"|	c #D2D2D3",
"1	c #F56860",
"2	c #D2D3D3",
"3	c #D3D3D2",
"4	c #D2D2D2",
"5	c #D2D1D2",
"6	c #EA8984",
"7	c #D1D2D1",
"8	c #D1D1D1",
"9	c #D2D2D1",
"0	c #D9B9B7",
"a	c #D2D1D1",
"b	c #D1D1D0",
"c	c #E98A85",
"d	c #E98985",
"e	c #D1D0D1",
"f	c #D0D0D0",
"g	c #D0D0D1",
"h	c #D0CECE",
"i	c #D1CECE",
"j	c #D0CFD0",
"k	c #D0D0CF",
"l	c #CFD0D0",
"m	c #D8B8B6",
"n	c #E98984",
"o	c #F56760",
"p	c #CFCFD0",
"q	c #D0CFCF",
"r	c #CFCFCF",
"s	c #CFD0CF",
"t	c #CFCFCE",
"u	c #CECFCF",
"v	c #CFCECF",
"w	c #CECFCE",
"x	c #CFCECE",
"y	c #CECECE",
"z	c #CECECF",
"...............",
"+@.++@#$.%.$&@@",
"&&&&&&&&&%&&&&&",
"*=&&-;>>;,')'&&",
"!)~{]]]]]]^/'*=",
"(({]]]]]]]]{*(*",
"_:]]]]]]]]]]<*_",
"_[]]]]]]]]]]}__",
"|1]]]]]]]]]]123",
"41]]]]]]]]]]144",
"56]]]]]]]]]]678",
"90]]]]]]]]]]0a7",
"b8c]]]]]]]]d8be",
"fghd]]]]]]difff",
"jkjlmnoonmfljlp",
"qrlfpfjqpsprprs",
"rturrtruvtrvrtr",
"wxxwwxyyryywwzx"};
