/* XPM */
static char * close_active_xpm[] = {
"15 18 67 1",
" 	c None",
".	c #C2C2C2",
"+	c #C2C3C2",
"@	c #C3C3C2",
"#	c #C3C3C3",
"$	c #C2C3C3",
"%	c #C3C2C2",
"&	c #C4C3C3",
"*	c #C4C4C3",
"=	c #C3C3C4",
"-	c #C3C4C3",
";	c #C4C3C4",
">	c #C4C4C4",
",	c #CFAFAD",
"'	c #E5847F",
")	c #F4665F",
"!	c #C5C4C5",
"~	c #C5C2C2",
"{	c #E58580",
"]	c #F95F57",
"^	c #C5C2C3",
"/	c #C5C5C4",
"(	c #C5C5C5",
"_	c #C5C6C6",
":	c #C5C5C6",
"<	c #C5C6C5",
"[	c #C6C6C6",
"}	c #D0B0AE",
"|	c #C7C7C7",
"1	c #E68580",
"2	c #C7C6C6",
"3	c #C6C7C6",
"4	c #C7C7C8",
"5	c #F5675F",
"6	c #C7C8C8",
"7	c #C8C8C8",
"8	c #C9C8C9",
"9	c #E78681",
"0	c #C8C9C9",
"a	c #C9C9C9",
"b	c #D3B3B1",
"c	c #D3B2B2",
"d	c #CACACA",
"e	c #E78782",
"f	c #CBCBCB",
"g	c #CBCACA",
"h	c #CBC9C9",
"i	c #E78883",
"j	c #E78783",
"k	c #CBC8C8",
"l	c #CBCACB",
"m	c #CCCBCC",
"n	c #CCCBCB",
"o	c #CBCCCB",
"p	c #D5B4B2",
"q	c #F56760",
"r	c #D4B4B2",
"s	c #CCCCCC",
"t	c #CBCBCC",
"u	c #CDCDCD",
"v	c #CDCCCD",
"w	c #CDCDCC",
"x	c #CECECD",
"y	c #CDCECD",
"z	c #CECDCD",
"A	c #CDCDCE",
"B	c #CDCECE",
"...............",
"++@#@#$+#@+%+$%",
"&#&*=#&#-&=#=;-",
">>>>,'))',>>>>>",
"!!~{]]]]]]{^/((",
"_({]]]]]]]]{:(<",
"[}]]]]]]]]]]}[[",
"|1]]]]]]]]]]123",
"45]]]]]]]]]]56|",
"75]]]]]]]]]]577",
"89]]]]]]]]]]980",
"ab]]]]]]]]]]cad",
"dde]]]]]]]]eddd",
"fghi]]]]]]jklld",
"mfnopeqqermsftf",
"sssssssssssssss",
"usvvuuvwuuwuvwu",
"xyzyAuuyuAzBxAu"};
