/* XPM */
static char * close_active_xpm[] = {
"15 18 66 1",
" 	c None",
".	c #DBDBDB",
"+	c #D6D5D6",
"@	c #D5D6D6",
"#	c #D6D6D6",
"$	c #D5D6D5",
"%	c #D6D5D5",
"&	c #D5D5D6",
"*	c #D5D5D5",
"=	c #D4D4D4",
"-	c #D4D5D5",
";	c #DCBCBA",
">	c #EB8A85",
",	c #F66860",
"'	c #DBBBBA",
")	c #D5D4D5",
"!	c #D5D4D4",
"~	c #D4D5D4",
"{	c #D4D2D3",
"]	c #EA8B86",
"^	c #F95F57",
"/	c #EB8B86",
"(	c #D4D3D3",
"_	c #D4D4D3",
":	c #D3D3D3",
"<	c #DABBB9",
"[	c #DBBAB9",
"}	c #EA8A85",
"|	c #EA8985",
"1	c #D2D2D3",
"2	c #F56860",
"3	c #D2D3D3",
"4	c #D3D3D2",
"5	c #D2D2D2",
"6	c #D2D1D2",
"7	c #EA8984",
"8	c #D1D2D1",
"9	c #D1D1D1",
"0	c #D2D2D1",
"a	c #D9B9B7",
"b	c #D2D1D1",
"c	c #D1D1D0",
"d	c #E98A85",
"e	c #E98985",
"f	c #D1D0D1",
"g	c #D0D0D0",
"h	c #D0D0D1",
"i	c #D0CECE",
"j	c #D1CECE",
"k	c #D0CFD0",
"l	c #D0D0CF",
"m	c #CFD0D0",
"n	c #D8B8B6",
"o	c #E98984",
"p	c #F56760",
"q	c #CFCFD0",
"r	c #D0CFCF",
"s	c #CFCFCF",
"t	c #CFD0CF",
"u	c #CFCFCE",
"v	c #CECFCF",
"w	c #CFCECF",
"x	c #CECFCE",
"y	c #CFCECE",
"z	c #CECECE",
"A	c #CECECF",
"...............",
"+@#++@$%#&#%*@@",
"*********&*****",
"=-**;>,,>')!)**",
"~!{]^^^^^^/()=-",
"__]^^^^^^^^]=_=",
":<^^^^^^^^^^[=:",
":}^^^^^^^^^^|::",
"12^^^^^^^^^^234",
"52^^^^^^^^^^255",
"67^^^^^^^^^^789",
"0a^^^^^^^^^^ab8",
"c9d^^^^^^^^e9cf",
"ghie^^^^^^ejggg",
"klkmnoppongmkmq",
"rsmgqgkrqtqsqst",
"suvssusvwuswsus",
"xyyxxyzzszzxxAy"};
