/* XPM */
static char * hide_active_xpm[] = {
"15 18 65 1",
" 	c None",
".	c #D6D6D6",
"+	c #D6D5D6",
"@	c #D5D6D6",
"#	c #D5D6D5",
"$	c #D6D5D5",
"%	c #D5D5D6",
"&	c #D5D5D5",
"*	c #D4D4D4",
"=	c #D4D5D5",
"-	c #DCCFB2",
";	c #EBC56B",
">	c #F6BD3A",
",	c #EBC46B",
"'	c #DBCFB1",
")	c #D5D4D5",
"!	c #D5D4D4",
"~	c #D4D5D4",
"{	c #D4D3D2",
"]	c #EAC56C",
"^	c #F9BC2D",
"/	c #EBC56C",
"(	c #D4D4D2",
"_	c #D4D4D3",
":	c #D3D3D3",
"<	c #DACFB0",
"[	c #DBCEB0",
"}	c #EAC46A",
"|	c #D2D2D3",
"1	c #F5BD3A",
"2	c #D2D3D3",
"3	c #D3D3D2",
"4	c #D2D2D2",
"5	c #F5BD39",
"6	c #D2D1D2",
"7	c #EAC36A",
"8	c #D1D2D1",
"9	c #D1D1D1",
"0	c #D2D2D1",
"a	c #D9CCAE",
"b	c #D2D1D1",
"c	c #D1D1D0",
"d	c #E9C36B",
"e	c #D1D0D1",
"f	c #D0D0D0",
"g	c #D0D0D1",
"h	c #D0CFCD",
"i	c #D1CFCD",
"j	c #D0CFD0",
"k	c #D0D0CF",
"l	c #CFD0D0",
"m	c #D8CBAE",
"n	c #E9C369",
"o	c #D8CBAD",
"p	c #CFCFD0",
"q	c #D0CFCF",
"r	c #CFCFCF",
"s	c #CFD0CF",
"t	c #CFCFCE",
"u	c #CECFCF",
"v	c #CFCECF",
"w	c #CECFCE",
"x	c #CFCECE",
"y	c #CECECE",
"z	c #CECECF",
"...............",
"+@.++@#$.%.$&@@",
"&&&&&&&&&%&&&&&",
"*=&&-;>>,')!)&&",
"~!{]^^^^^^/()*=",
"__]^^^^^^^^]*_*",
":<^^^^^^^^^^[*:",
":}^^^^^^^^^^}::",
"|1^^^^^^^^^^123",
"45^^^^^^^^^^544",
"67^^^^^^^^^^}89",
"0a^^^^^^^^^^ab8",
"c9d^^^^^^^^d9ce",
"fghd^^^^^^difff",
"jkjlmn55nofljlp",
"qrlfpfjqpsprprs",
"rturrtruvtrvrtr",
"wxxwwxyyryywwzx"};
