/* XPM */
static char * hide_active_xpm[] = {
"15 18 66 1",
" 	c None",
".	c #DBDBDB",
"+	c #D6D5D6",
"@	c #D5D6D6",
"#	c #D6D6D6",
"$	c #D5D6D5",
"%	c #D6D5D5",
"&	c #D5D5D6",
"*	c #D5D5D5",
"=	c #D4D4D4",
"-	c #D4D5D5",
";	c #DCCFB2",
">	c #EBC56B",
",	c #F6BD3A",
"'	c #EBC46B",
")	c #DBCFB1",
"!	c #D5D4D5",
"~	c #D5D4D4",
"{	c #D4D5D4",
"]	c #D4D3D2",
"^	c #EAC56C",
"/	c #F9BC2D",
"(	c #EBC56C",
"_	c #D4D4D2",
":	c #D4D4D3",
"<	c #D3D3D3",
"[	c #DACFB0",
"}	c #DBCEB0",
"|	c #EAC46A",
"1	c #D2D2D3",
"2	c #F5BD3A",
"3	c #D2D3D3",
"4	c #D3D3D2",
"5	c #D2D2D2",
"6	c #F5BD39",
"7	c #D2D1D2",
"8	c #EAC36A",
"9	c #D1D2D1",
"0	c #D1D1D1",
"a	c #D2D2D1",
"b	c #D9CCAE",
"c	c #D2D1D1",
"d	c #D1D1D0",
"e	c #E9C36B",
"f	c #D1D0D1",
"g	c #D0D0D0",
"h	c #D0D0D1",
"i	c #D0CFCD",
"j	c #D1CFCD",
"k	c #D0CFD0",
"l	c #D0D0CF",
"m	c #CFD0D0",
"n	c #D8CBAE",
"o	c #E9C369",
"p	c #D8CBAD",
"q	c #CFCFD0",
"r	c #D0CFCF",
"s	c #CFCFCF",
"t	c #CFD0CF",
"u	c #CFCFCE",
"v	c #CECFCF",
"w	c #CFCECF",
"x	c #CECFCE",
"y	c #CFCECE",
"z	c #CECECE",
"A	c #CECECF",
"...............",
"+@#++@$%#&#%*@@",
"*********&*****",
"=-**;>,,')!~!**",
"{~]^//////(_!=-",
"::^////////^=:=",
"<[//////////}=<",
"<|//////////|<<",
"12//////////234",
"56//////////655",
"78//////////|90",
"ab//////////bc9",
"d0e////////e0df",
"ghie//////ejggg",
"klkmno66opgmkmq",
"rsmgqgkrqtqsqst",
"suvssusvwuswsus",
"xyyxxyzzszzxxAy"};
