/* XPM */
static char * maximize_active_xpm[] = {
"15 18 66 1",
" 	c None",
".	c #D6D6D6",
"+	c #D6D5D6",
"@	c #D5D6D6",
"#	c #D5D6D5",
"$	c #D6D5D5",
"%	c #D5D5D6",
"&	c #D5D5D5",
"*	c #D4D4D4",
"=	c #D4D5D5",
"-	c #B1D3B7",
";	c #6ACF7B",
">	c #38CC51",
",	c #69CE7B",
"'	c #B0D2B6",
")	c #D5D4D5",
"!	c #D5D4D4",
"~	c #D4D5D4",
"{	c #D1D3D2",
"]	c #6BCF7C",
"^	c #2BCC46",
"/	c #D1D4D2",
"(	c #D4D4D3",
"_	c #6BCF7B",
":	c #D3D3D3",
"<	c #B0D2B5",
"[	c #B0D1B5",
"}	c #69CE7A",
"|	c #D2D2D3",
"1	c #D2D3D3",
"2	c #D3D3D2",
"3	c #D2D2D2",
"4	c #38CC50",
"5	c #D2D1D2",
"6	c #69CD79",
"7	c #D1D2D1",
"8	c #D1D1D1",
"9	c #D2D2D1",
"0	c #AECFB4",
"a	c #D2D1D1",
"b	c #D1D1D0",
"c	c #69CD7A",
"d	c #6ACD7A",
"e	c #D1D0D1",
"f	c #D0D0D0",
"g	c #D0D0D1",
"h	c #CDCFCD",
"i	c #CECFCD",
"j	c #D0CFD0",
"k	c #D0D0CF",
"l	c #CFD0D0",
"m	c #ADCFB3",
"n	c #68CD79",
"o	c #37CC50",
"p	c #ADCFB2",
"q	c #CFCFD0",
"r	c #D0CFCF",
"s	c #CFCFCF",
"t	c #CFD0CF",
"u	c #CFCFCE",
"v	c #CECFCF",
"w	c #CFCECF",
"x	c #CECFCE",
"y	c #CFCECE",
"z	c #CECECE",
"A	c #CECECF",
"...............",
"+@.++@#$.%.$&@@",
"&&&&&&&&&%&&&&&",
"*=&&-;>>,')!)&&",
"~!{]^^^^^^]/)*=",
"((_^^^^^^^^]*(*",
":<^^^^^^^^^^[*:",
":}^^^^^^^^^^}::",
"|>^^^^^^^^^^>12",
"34^^^^^^^^^^433",
"56^^^^^^^^^^}78",
"90^^^^^^^^^^0a7",
"b8c^^^^^^^^d8be",
"fghc^^^^^^cifff",
"jkjlmnoonpfljlq",
"rslfqfjrqtqsqst",
"suvssusvwuswsus",
"xyyxxyzzszzxxAy"};
