/* XPM */
static char * maximize_active_xpm[] = {
"15 18 66 1",
" 	c None",
".	c #C2C2C2",
"+	c #C2C3C2",
"@	c #C3C3C2",
"#	c #C3C3C3",
"$	c #C2C3C3",
"%	c #C3C2C2",
"&	c #C4C3C3",
"*	c #C4C4C3",
"=	c #C3C3C4",
"-	c #C3C4C3",
";	c #C4C3C4",
">	c #C4C4C4",
",	c #A4C5A9",
"'	c #64C974",
")	c #37CB4F",
"!	c #C5C4C5",
"~	c #C2C4C2",
"{	c #65C976",
"]	c #2BCC46",
"^	c #65C876",
"/	c #C2C4C3",
"(	c #C5C5C4",
"_	c #C5C5C5",
":	c #C5C6C6",
"<	c #C5C5C6",
"[	c #C5C6C5",
"}	c #C6C6C6",
"|	c #A5C7AB",
"1	c #C7C7C7",
"2	c #64C976",
"3	c #C7C6C6",
"4	c #C6C7C6",
"5	c #C7C7C8",
"6	c #37CB50",
"7	c #C7C8C8",
"8	c #C8C8C8",
"9	c #C9C8C9",
"0	c #65CA76",
"a	c #C8C9C9",
"b	c #C9C9C9",
"c	c #A8CAAD",
"d	c #A8C9AE",
"e	c #CACACA",
"f	c #67CB78",
"g	c #CBCBCB",
"h	c #CBCACA",
"i	c #C8CBC8",
"j	c #C8CAC7",
"k	c #CBCACB",
"l	c #CCCBCC",
"m	c #CCCBCB",
"n	c #CBCCCB",
"o	c #AACBAF",
"p	c #66CB77",
"q	c #A9CBAF",
"r	c #CCCCCC",
"s	c #CBCBCC",
"t	c #CDCDCD",
"u	c #CDCCCD",
"v	c #CDCDCC",
"w	c #CECECD",
"x	c #CDCECD",
"y	c #CECDCD",
"z	c #CDCDCE",
"A	c #CDCECE",
"...............",
"++@#@#$+#@+%+$%",
"&#&*=#&#-&=#=;-",
">>>>,'))',>>>>>",
"!!~{]]]]]]^/(__",
":_{]]]]]]]]{<_[",
"}|]]]]]]]]]]|}}",
"1{]]]]]]]]]]234",
"56]]]]]]]]]]671",
"86]]]]]]]]]]688",
"90]]]]]]]]]]09a",
"bc]]]]]]]]]]dbe",
"eef]]]]]]]]feee",
"ghif]]]]]]fjkke",
"lgmnop66pqlrgsg",
"rrrrrrrrrrrrrrr",
"truuttuvttvtuvt",
"wxyxzttxtzyAwzt"};
