/* XPM */
static char * title_3_active_xpm[] = {
"15 18 56 1",
" 	c None",
".	c #DBDBDB",
"+	c #D5D6D5",
"@	c #D6D5D5",
"#	c #D5D6D6",
"$	c #D5D5D5",
"%	c #D6D6D5",
"&	c #D5D5D6",
"*	c #D6D5D6",
"=	c #D4D5D5",
"-	c #D4D5D4",
";	c #D5D5D4",
">	c #D4D4D4",
",	c #D4D4D5",
"'	c #D5D4D5",
")	c #D5D4D4",
"!	c #D4D4D3",
"~	c #D4D3D4",
"{	c #D3D4D4",
"]	c #D3D3D4",
"^	c #D3D3D3",
"/	c #D3D4D3",
"(	c #D4D3D3",
"_	c #D2D2D3",
":	c #D3D3D2",
"<	c #D2D3D3",
"[	c #D3D2D2",
"}	c #D3D2D3",
"|	c #D2D3D2",
"1	c #D2D2D2",
"2	c #D1D2D2",
"3	c #D1D1D2",
"4	c #D2D2D1",
"5	c #D1D1D1",
"6	c #D2D1D2",
"7	c #D2D1D1",
"8	c #D1D2D1",
"9	c #D1D1D0",
"0	c #D1D0D1",
"a	c #D0D0D1",
"b	c #D1D0D0",
"c	c #D0D1D1",
"d	c #D0D0D0",
"e	c #D0D1D0",
"f	c #D0CFCF",
"g	c #CFD0CF",
"h	c #D0D0CF",
"i	c #CFD0D0",
"j	c #D0CFD0",
"k	c #CFCFD0",
"l	c #CFCFCF",
"m	c #CECFCF",
"n	c #CFCFCE",
"o	c #CECECF",
"p	c #CECFCE",
"q	c #CECECE",
"...............",
"+@##$@$#%@&*#*%",
"$$$$$$+$%+$$$$$",
"$=--;>$,;'-$$;>",
">,,>),--)>'>,-)",
"!>>>~!{]>>{~>{!",
"]~^/^^^(^]/!^^(",
"_^^^:<[:}:^^<^^",
"<_||:1:1|1}:1}:",
"111111111111111",
"221344441516434",
"557575555553558",
"595590a9b5ccc00",
"0dcddeaba5eddad",
"fghdddiigdjhdfd",
"klgliilgiglgilh",
"lmnmllllmlmllll",
"olpnmlnpqpolqqo"};
