/* XPM */
static char * title_1_inactive_xpm[] = {
"15 18 85 1",
" 	c None",
".	c #CECECE",
"+	c #CECECF",
"@	c #CECFCF",
"#	c #CFCFCF",
"$	c #CFCECF",
"%	c #CFCFCE",
"&	c #CECFCE",
"*	c #D0D0CF",
"=	c #D0CFD0",
"-	c #D0CFCF",
";	c #CFCFD0",
">	c #CFD0D0",
",	c #D0D0D0",
"'	c #D1D0D0",
")	c #D0D0D1",
"!	c #D1D1D0",
"~	c #D0D1D0",
"{	c #D1D0D1",
"]	c #D1D1D1",
"^	c #D2D2D2",
"/	c #D1D2D2",
"(	c #D2D1D1",
"_	c #D2D1D2",
":	c #D1D2D1",
"<	c #D2D2D1",
"[	c #D1D1D2",
"}	c #D3D2D2",
"|	c #D3D3D3",
"1	c #D2D3D3",
"2	c #D3D3D2",
"3	c #D3D2D3",
"4	c #D2D2D3",
"5	c #D3D4D3",
"6	c #D3D3D4",
"7	c #D4D4D4",
"8	c #D4D4D3",
"9	c #D4D3D4",
"0	c #D3D4D4",
"a	c #D4D3D3",
"b	c #D4D5D4",
"c	c #D5D4D4",
"d	c #D4D5D5",
"e	c #D5D5D4",
"f	c #D5D5D5",
"g	c #D4D4D5",
"h	c #D5D4D5",
"i	c #D6D5D5",
"j	c #D5D6D5",
"k	c #D5D5D6",
"l	c #D6D6D5",
"m	c #D6D5D6",
"n	c #D6D6D6",
"o	c #D7D7D7",
"p	c #D6D7D6",
"q	c #D6D6D7",
"r	c #D7D6D7",
"s	c #D7D6D6",
"t	c #D6D7D7",
"u	c #D7D7D6",
"v	c #D7D8D7",
"w	c #D7D7D8",
"x	c #D8D8D8",
"y	c #D7D8D8",
"z	c #D8D7D7",
"A	c #D8D7D8",
"B	c #D8D8D9",
"C	c #D9D9D8",
"D	c #D9D8D8",
"E	c #D8D9D8",
"F	c #D9D9D9",
"G	c #D9D8D9",
"H	c #D8D9D9",
"I	c #DADAD9",
"J	c #D9DADA",
"K	c #D9DAD9",
"L	c #DAD9DA",
"M	c #D9D9DA",
"N	c #DAD9D9",
"O	c #DADADA",
"P	c #DADBDA",
"Q	c #DBDADB",
"R	c #DBDADA",
"S	c #DBDBDA",
"T	c #DADADB",
"...............",
"+@##$$###@#%#@&",
"*=#-#;##>#,=*#>",
"'))!,~,,{,',',,",
"]!]{]]]{]]]]]{]",
"^//(__]^:<<[_<^",
"}}^|112^|3}^}24",
"56||5||||||||||",
"78977809959a068",
"b7bcdb77efgehfd",
"fifjjfikflfmkfn",
"nnnnnnnnlnnnnnn",
"opqprrrrstrutro",
"oovwxvowoyxzAzz",
"xxBxxxxCxDDBExx",
"FFFCFEGGHCFFFHF",
"IJIKJLMINFJJLOL",
"POOOQRSRSQPTQRT"};
