/* XPM */
static char * close_active_xpm[] = {
"15 18 79 1",
" 	c None",
".	c #656565",
"+	c #555555",
"@	c #545454",
"#	c #545554",
"$	c #545455",
"%	c #555454",
"&	c #535353",
"*	c #535354",
"=	c #535454",
"-	c #6D5A57",
";	c #A26861",
">	c #C77367",
",	c #A26860",
"'	c #6D5A58",
")	c #545453",
"!	c #545353",
"~	c #525253",
"{	c #525252",
"]	c #A06860",
"^	c #D17669",
"/	c #A16860",
"(	c #545252",
"_	c #535252",
":	c #515152",
"<	c #515151",
"[	c #A06760",
"}	c #515252",
"|	c #525251",
"1	c #525152",
"2	c #515050",
"3	c #6A5755",
"4	c #6B5855",
"5	c #505151",
"6	c #515051",
"7	c #4F4F50",
"8	c #A0675F",
"9	c #504F50",
"0	c #4E4F4F",
"a	c #C67266",
"b	c #4E4E4F",
"c	c #4E4D4E",
"d	c #4D4E4E",
"e	c #4D4D4E",
"f	c #4C4D4D",
"g	c #9F665E",
"h	c #4D4C4D",
"i	c #4D4D4D",
"j	c #4C4C4D",
"k	c #665452",
"l	c #4B4C4C",
"m	c #4C4C4C",
"n	c #4B4B4B",
"o	c #9E655D",
"p	c #4B4A4B",
"q	c #4B4B4C",
"r	c #4A4A4B",
"s	c #4C4A4A",
"t	c #9D655D",
"u	c #4B494A",
"v	c #4A4A4A",
"w	c #4A494B",
"x	c #494A4B",
"y	c #49484A",
"z	c #484949",
"A	c #49494A",
"B	c #655150",
"C	c #65524F",
"D	c #48494A",
"E	c #474849",
"F	c #484848",
"G	c #484849",
"H	c #484749",
"I	c #474748",
"J	c #474747",
"K	c #464747",
"L	c #464647",
"M	c #464546",
"N	c #464646",
"...............",
"+++++++++++++++",
"@@@@@@##@@@@$%@",
"&**=-;>>,'*)&&!",
"~{&]^^^^^^/(~~_",
":<]^^^^^^^^[}|1",
"23^^^^^^^^^^456",
"78^^^^^^^^^^879",
"0a^^^^^^^^^^abb",
"ca^^^^^^^^^^ade",
"fg^^^^^^^^^^ghi",
"jk^^^^^^^^^^klm",
"nno^^^^^^^^onpq",
"rrst^^^^^^tuvwx",
"yzAABtaaoCADAAA",
"EEFGGGGGHGHFGGG",
"IJKIIIIIIIIIIJJ",
"LLLMLLLLLNLLLLL"};
