/* XPM */
static char * close_inactive_xpm[] = {
"15 18 76 1",
" 	c None",
".	c #707070",
"+	c #6F6F6F",
"@	c #6F6F70",
"#	c #706F70",
"$	c #6F7070",
"%	c #6E6E6E",
"&	c #6E6E6F",
"*	c #6F6E6E",
"=	c #6F6F6E",
"-	c #6F6E6F",
";	c #6E6F6E",
">	c #6D6E6D",
",	c #6D6D6D",
"'	c #6D6E6E",
")	c #6E6E6D",
"!	c #7A7B7A",
"~	c #959696",
"{	c #A8A8A8",
"]	c #959596",
"^	c #7A7A7B",
"/	c #6D6D6E",
"(	c #6C6C6C",
"_	c #959494",
":	c #AEAEAE",
"<	c #959594",
"[	c #6C6D6C",
"}	c #6C6C6D",
"|	c #6B6C6B",
"1	c #6C6B6C",
"2	c #949494",
"3	c #6A6A6A",
"4	c #787878",
"5	c #6A6B6B",
"6	c #6B6B6B",
"7	c #696A69",
"8	c #696A6A",
"9	c #696969",
"0	c #696869",
"a	c #686868",
"b	c #676768",
"c	c #939393",
"d	c #676767",
"e	c #676867",
"f	c #666667",
"g	c #747474",
"h	c #757475",
"i	c #666666",
"j	c #656565",
"k	c #929292",
"l	c #656566",
"m	c #656665",
"n	c #656464",
"o	c #656666",
"p	c #929291",
"q	c #656465",
"r	c #646564",
"s	c #646464",
"t	c #646363",
"u	c #646463",
"v	c #727272",
"w	c #737273",
"x	c #636463",
"y	c #636364",
"z	c #636363",
"A	c #626362",
"B	c #636262",
"C	c #626363",
"D	c #636263",
"E	c #626262",
"F	c #616261",
"G	c #626261",
"H	c #626161",
"I	c #616262",
"J	c #616061",
"K	c #616161",
"...............",
"++++@++#++++$+#",
"%%&%%*=-%%%%;*;",
">,')!~{{]^>>/>>",
"((,_::::::<>([}",
"|12::::::::2|11",
"34::::::::::456",
"32::::::::::278",
"9{::::::::::{09",
"a{::::::::::{aa",
"bc::::::::::cde",
"fg::::::::::hii",
"jjk::::::::klmj",
"jnop::::::pmjqr",
"sstuvk{{kwxuyzt",
"AzzzzBCCzCzDzBB",
"EEFGEEGGEEEEHGI",
"JKKKKKKKKKKKJKK"};
