/* XPM */
static char * hide_active_xpm[] = {
"15 18 80 1",
" 	c None",
".	c #656565",
"+	c #555555",
"@	c #545454",
"#	c #545554",
"$	c #545455",
"%	c #555454",
"&	c #535353",
"*	c #535354",
"=	c #535454",
"-	c #6E6856",
";	c #A7945C",
">	c #CEB260",
",	c #545453",
"'	c #545353",
")	c #525253",
"!	c #525252",
"~	c #A5935C",
"{	c #D9BB62",
"]	c #A6935B",
"^	c #555352",
"/	c #535252",
"(	c #515152",
"_	c #515151",
":	c #A5935B",
"<	c #A5925B",
"[	c #515252",
"}	c #525251",
"|	c #525152",
"1	c #515050",
"2	c #6C6653",
"3	c #6D6754",
"4	c #505151",
"5	c #515051",
"6	c #4F4F50",
"7	c #504F50",
"8	c #4E4F4F",
"9	c #4E4E4F",
"0	c #4E4D4E",
"a	c #4D4E4E",
"b	c #4D4D4E",
"c	c #4C4D4D",
"d	c #A4925A",
"e	c #4D4C4D",
"f	c #4D4D4D",
"g	c #4C4C4D",
"h	c #686350",
"i	c #686351",
"j	c #4B4C4C",
"k	c #4C4C4C",
"l	c #4B4B4B",
"m	c #A29059",
"n	c #4B4A4B",
"o	c #4B4B4C",
"p	c #4A4A4B",
"q	c #4C4B4A",
"r	c #A29058",
"s	c #4B4A4A",
"t	c #4A4A4A",
"u	c #4A494B",
"v	c #494A4B",
"w	c #49484A",
"x	c #484949",
"y	c #49494A",
"z	c #665F4E",
"A	c #CDB260",
"B	c #CDB160",
"C	c #A39059",
"D	c #66604E",
"E	c #48494A",
"F	c #474849",
"G	c #484848",
"H	c #484849",
"I	c #484749",
"J	c #474748",
"K	c #474747",
"L	c #464747",
"M	c #464647",
"N	c #464546",
"O	c #464646",
"...............",
"+++++++++++++++",
"@@@@@@##@@@@$%@",
"&**=-;>>;-*,&&'",
")!,~{{{{{{]^))/",
"(_:{{{{{{{{<[}|",
"12{{{{{{{{{{345",
"6:{{{{{{{{{{<67",
"8>{{{{{{{{{{>99",
"0>{{{{{{{{{{>ab",
"cd{{{{{{{{{{def",
"gh{{{{{{{{{{ijk",
"llm{{{{{{{{mlno",
"ppqr{{{{{{rstuv",
"wxyyzrABCDyEyyy",
"FFGHHHHHIHIGHHH",
"JKLJJJJJJJJJJKK",
"MMMNMMMMMOMMMMM"};
