/* XPM */
static char * title_4_active_xpm[] = {
"15 18 80 1",
" 	c None",
".	c #656565",
"+	c #555555",
"@	c #545454",
"#	c #545554",
"$	c #545455",
"%	c #555454",
"&	c #535353",
"*	c #535354",
"=	c #535454",
"-	c #545453",
";	c #545353",
">	c #525253",
",	c #525252",
"'	c #525353",
")	c #525352",
"!	c #535253",
"~	c #535252",
"{	c #515152",
"]	c #515151",
"^	c #515252",
"/	c #515251",
"(	c #525152",
"_	c #525251",
":	c #515050",
"<	c #505050",
"[	c #505150",
"}	c #505051",
"|	c #505151",
"1	c #515051",
"2	c #4F4F50",
"3	c #504F4F",
"4	c #4F4F4F",
"5	c #504F50",
"6	c #4F5050",
"7	c #4E4F4F",
"8	c #4F4E4F",
"9	c #4E4E4F",
"0	c #4F4E4E",
"a	c #4E4D4E",
"b	c #4E4E4E",
"c	c #4D4E4E",
"d	c #4D4D4E",
"e	c #4C4D4D",
"f	c #4D4C4D",
"g	c #4D4D4D",
"h	c #4D4C4E",
"i	c #4C4C4D",
"j	c #4C4C4E",
"k	c #4B4C4C",
"l	c #4B4B4C",
"m	c #4B4C4D",
"n	c #4C4B4D",
"o	c #4C4C4C",
"p	c #4C4B4C",
"q	c #4B4B4B",
"r	c #4B4A4B",
"s	c #4A4B4B",
"t	c #4B4A4C",
"u	c #4A4A4B",
"v	c #4A4A4A",
"w	c #4A494A",
"x	c #494A4A",
"y	c #494A4B",
"z	c #49494A",
"A	c #4A494B",
"B	c #49484A",
"C	c #484949",
"D	c #48494A",
"E	c #494949",
"F	c #474849",
"G	c #484848",
"H	c #484849",
"I	c #484749",
"J	c #474748",
"K	c #474747",
"L	c #464747",
"M	c #464647",
"N	c #464546",
"O	c #464646",
"...............",
"+++++++++++++++",
"@@@@@@##@@@@$%@",
"&**=&*&&&**-&&;",
">,''>)!'>)~~>>~",
"{]^^]/{]{{](^_(",
":<:[}:}}}}<}]|1",
"2<34<2562666525",
"778847789440999",
"abbcdbccbbccccd",
"eeeefghgihjigfg",
"ikllmnnkmokpmko",
"qqrrsqqtqlslqrl",
"uuvvwxyywuvzvAy",
"BCzzBCDBzEzDzzz",
"FFGHHHHHIHIGHHH",
"JKLJJJJJJJJJJKK",
"MMMNMMMMMOMMMMM"};
