/* XPM */
static char * close_pressed_xpm[] = {
"23 23 188 2",
"  	c None",
". 	c #CECECE",
"+ 	c #DEAEB2",
"@ 	c #DEA1A6",
"# 	c #DDA1A7",
"$ 	c #DEAFB4",
"% 	c #DDA7AC",
"& 	c #DD9AA0",
"* 	c #DDAAAE",
"= 	c #DC9BA1",
"- 	c #DC999F",
"; 	c #C98C92",
"> 	c #9B6C70",
", 	c #825A5E",
"' 	c #68484B",
") 	c #9C6D71",
"! 	c #DC9AA0",
"~ 	c #DC9A9F",
"{ 	c #A67478",
"] 	c #6D4E51",
"^ 	c #A38487",
"/ 	c #BA9C9E",
"( 	c #CDB1B3",
"_ 	c #DB9AA0",
": 	c #DB9A9F",
"< 	c #895F63",
"[ 	c #8D6B6F",
"} 	c #CAACAF",
"| 	c #C8A7AA",
"1 	c #C09A9E",
"2 	c #BB9296",
"3 	c #DB999F",
"4 	c #DB9BA1",
"5 	c #DBA6AB",
"6 	c #AA777B",
"7 	c #8E6B6E",
"8 	c #CFB1B4",
"9 	c #BC9397",
"0 	c #DAA7AC",
"a 	c #DA979D",
"b 	c #CC8F94",
"c 	c #7B575B",
"d 	c #C8AAAD",
"e 	c #C19B9F",
"f 	c #BE969A",
"g 	c #97787B",
"h 	c #AE8B8F",
"i 	c #BD9599",
"j 	c #AA767B",
"k 	c #A98688",
"l 	c #CAA8AC",
"m 	c #C1999D",
"n 	c #997A7E",
"o 	c #413435",
"p 	c #493A3B",
"q 	c #B18E92",
"r 	c #B28E92",
"s 	c #4D3D3F",
"t 	c #443637",
"u 	c #DA989E",
"v 	c #D9AAAE",
"w 	c #DA999F",
"x 	c #996A6F",
"y 	c #BB9A9D",
"z 	c #C7A3A6",
"A 	c #C39CA0",
"B 	c #B8979B",
"C 	c #675557",
"D 	c #5E4B4D",
"E 	c #554546",
"F 	c #574547",
"G 	c #685355",
"H 	c #715D5F",
"I 	c #B9979B",
"J 	c #D8ABAF",
"K 	c #D89BA1",
"L 	c #DA9AA0",
"M 	c #8B6064",
"N 	c #CEADB1",
"O 	c #C8A3A6",
"P 	c #C7A1A4",
"Q 	c #C8A4A7",
"R 	c #C9B0B2",
"S 	c #796567",
"T 	c #725D5F",
"U 	c #796364",
"V 	c #826C6E",
"W 	c #CCB2B3",
"X 	c #D99EA3",
"Y 	c #906367",
"Z 	c #CFAFB2",
"` 	c #CDAAAD",
" .	c #CCA8AB",
"..	c #CCA9AC",
"+.	c #BEA0A2",
"@.	c #7A6768",
"#.	c #876F71",
"$.	c #91787A",
"%.	c #877375",
"&.	c #BFA1A3",
"*.	c #DB9BA0",
"=.	c #D8A9AD",
"-.	c #A47377",
";.	c #C5A1A4",
">.	c #D4B1B5",
",.	c #D3AFB3",
"'.	c #C0A1A5",
").	c #5A4B4D",
"!.	c #786466",
"~.	c #8C7779",
"{.	c #927C7E",
"].	c #8D7677",
"^.	c #685858",
"/.	c #C2A2A6",
"(.	c #D7AAAE",
"_.	c #D6B5B8",
":.	c #D8979D",
"<.	c #B78084",
"[.	c #B79194",
"}.	c #DBBBBF",
"|.	c #D8B6B9",
"1.	c #B19599",
"2.	c #675759",
"3.	c #816F71",
"4.	c #D6BEC2",
"5.	c #8B7779",
"6.	c #786667",
"7.	c #B2989C",
"8.	c #D7959B",
"9.	c #D09499",
"0.	c #9F6F74",
"a.	c #D8B8BB",
"b.	c #DFBEC2",
"c.	c #E2C2C6",
"d.	c #C7B3B6",
"e.	c #DAC3C5",
"f.	c #DBC4C7",
"g.	c #CAB5B8",
"h.	c #D6A1A6",
"i.	c #D9999E",
"j.	c #C0878C",
"k.	c #B48589",
"l.	c #E9CACD",
"m.	c #E7C7CA",
"n.	c #E8C9CC",
"o.	c #E8C8CB",
"p.	c #E7C6C9",
"q.	c #D8989E",
"r.	c #D5A2A7",
"s.	c #D6959B",
"t.	c #D99BA0",
"u.	c #B37D82",
"v.	c #B7888D",
"w.	c #E4C2C5",
"x.	c #EBCCCE",
"y.	c #EBCBCE",
"z.	c #DA9BA1",
"A.	c #D6979D",
"B.	c #D3B5B8",
"C.	c #C58A90",
"D.	c #AE7B7F",
"E.	c #C89DA1",
"F.	c #D8B0B3",
"G.	c #E5C3C6",
"H.	c #D89AA0",
"I.	c #D6949A",
"J.	c #D2B4B7",
"K.	c #D5949A",
"L.	c #D7989E",
"M.	c #D3969C",
"N.	c #C4898E",
"O.	c #BC8388",
"P.	c #B37C81",
"Q.	c #D7979D",
"R.	c #D1B5B7",
"S.	c #D49EA3",
"T.	c #D8999F",
"U.	c #D99BA1",
"V.	c #D7999E",
"W.	c #D7979C",
"X.	c #D59399",
"Y.	c #D3A0A4",
"Z.	c #D1AFB2",
"`.	c #D3A3A7",
" +	c #D4979C",
".+	c #D3979D",
"++	c #D2A3A8",
"@+	c #D0AFB2",
". . . . . . . . . . . . . . . . . . . . . . . ",
". . . . . . . . . + @ # $ . . . . . . . . . . ",
". . . . . . % & & & & & & & & * . . . . . . . ",
". . . . . = - ; > , ' ' , ) ; - = . . . . . . ",
". . . . ! ~ { ] ^ / ( ( / ^ ] { & - . . . . . ",
". . . _ : < [ } | 1 2 2 1 | } [ < 3 4 . . . . ",
". . 5 3 6 7 8 1 9 2 2 2 2 9 1 8 7 6 3 0 . . . ",
". . a b c d e f g h i i h g f e d c b a . . . ",
". . 3 j k l m n o p q r s t n m l k j u . . . ",
". v w x y z A B C D E F G H I A z y x _ J . . ",
". K L M N O P Q R S T U V W Q P O N M w X . . ",
". K 4 Y Z `  ...+.@.#.$.%.&... .` Z Y *.X . . ",
". =.w -.;.>.,.'.).!.~.{.].^./.,.>.;.-.w (.. . ",
". _.:.<.[.}.|.1.2.3.4.4.5.6.7.|.}.[.<.:.. . . ",
". . 8.9.0.a.b.c.d.e.b.b.f.g.c.b.a.0.9.8.. . . ",
". . h.i.j.k.l.m.n.o.p.p.o.n.m.l.k.j.q.r.. . . ",
". . . s.t.u.v.w.x.y.y.y.y.x.w.v.u.z.A.. . . . ",
". . . B.8.t.C.D.E.F.G.G.F.E.D.C.H.I.. . . . . ",
". . . . J.K.L.M.N.O.P.P.O.N.M.Q.s.R.. . . . . ",
". . . . . . S.K.Q.T.U.K V.W.X.Y.. . . . . . . ",
". . . . . . . . Z.`. +.+++@+. . . . . . . . . ",
". . . . . . . . . . . . . . . . . . . . . . . ",
". . . . . . . . . . . . . . . . . . . . . . . "};
