/* XPM */
static char * title_2_active_xpm[] = {
"1 23 3 1",
" 	c None",
".	c #CDCDCD",
"+	c #CECECE",
".",
"+",
"+",
"+",
"+",
"+",
"+",
"+",
"+",
"+",
"+",
"+",
"+",
"+",
"+",
"+",
"+",
"+",
"+",
"+",
"+",
"+",
"+"};
