/* XPM */
static char * title_3_inactive_xpm[] = {
"1 25 3 1",
" 	c None",
".	c #CECECE",
"+	c #CDCDCD",
".",
"+",
".",
".",
".",
".",
".",
".",
".",
".",
".",
".",
".",
".",
".",
".",
".",
".",
".",
".",
".",
".",
".",
".",
"."};
