/* XPM */
static char * title_1_inactive_xpm[] = {
"1 25 4 1",
" 	c None",
".	c #CACACA",
"+	c #CDCDCD",
"@	c #CECECE",
".",
"+",
"@",
"@",
"@",
"@",
"@",
"@",
"@",
"@",
"@",
"@",
"@",
"@",
"@",
"@",
"@",
"@",
"@",
"@",
"@",
"@",
"@",
"@",
"@"};
