/* XPM */
static char * maximize_active_xpm[] = {
"15 18 67 1",
" 	c None",
".	c #DBDBDB",
"+	c #D6D5D6",
"@	c #D5D6D6",
"#	c #D6D6D6",
"$	c #D5D6D5",
"%	c #D6D5D5",
"&	c #D5D5D6",
"*	c #D5D5D5",
"=	c #D4D4D4",
"-	c #D4D5D5",
";	c #B1D3B7",
">	c #6ACF7B",
",	c #38CC51",
"'	c #69CE7B",
")	c #B0D2B6",
"!	c #D5D4D5",
"~	c #D5D4D4",
"{	c #D4D5D4",
"]	c #D1D3D2",
"^	c #6BCF7C",
"/	c #2BCC46",
"(	c #D1D4D2",
"_	c #D4D4D3",
":	c #6BCF7B",
"<	c #D3D3D3",
"[	c #B0D2B5",
"}	c #B0D1B5",
"|	c #69CE7A",
"1	c #D2D2D3",
"2	c #D2D3D3",
"3	c #D3D3D2",
"4	c #D2D2D2",
"5	c #38CC50",
"6	c #D2D1D2",
"7	c #69CD79",
"8	c #D1D2D1",
"9	c #D1D1D1",
"0	c #D2D2D1",
"a	c #AECFB4",
"b	c #D2D1D1",
"c	c #D1D1D0",
"d	c #69CD7A",
"e	c #6ACD7A",
"f	c #D1D0D1",
"g	c #D0D0D0",
"h	c #D0D0D1",
"i	c #CDCFCD",
"j	c #CECFCD",
"k	c #D0CFD0",
"l	c #D0D0CF",
"m	c #CFD0D0",
"n	c #ADCFB3",
"o	c #68CD79",
"p	c #37CC50",
"q	c #ADCFB2",
"r	c #CFCFD0",
"s	c #D0CFCF",
"t	c #CFCFCF",
"u	c #CFD0CF",
"v	c #CFCFCE",
"w	c #CECFCF",
"x	c #CFCECF",
"y	c #CECFCE",
"z	c #CFCECE",
"A	c #CECECE",
"B	c #CECECF",
"...............",
"+@#++@$%#&#%*@@",
"*********&*****",
"=-**;>,,')!~!**",
"{~]^//////^(!=-",
"__:////////^=_=",
"<[//////////}=<",
"<|//////////|<<",
"1,//////////,23",
"45//////////544",
"67//////////|89",
"0a//////////ab8",
"c9d////////e9cf",
"ghid//////djggg",
"klkmnoppoqgmkmr",
"stmgrgksrurtrtu",
"tvwttvtwxvtxtvt",
"yzzyyzAAtAAyyBz"};
