/* XPM */
static char * close_inactive_xpm[] = {
"23 23 24 1",
" 	c None",
".	c #CECECE",
"+	c #C8C9C9",
"@	c #BBBCBF",
"#	c #B4B6BA",
"$	c #ADB0B5",
"%	c #CDCDCD",
"&	c #BDBFC1",
"*	c #AEB0B5",
"=	c #B9B9BC",
"-	c #BDBEC1",
";	c #C4C4C5",
">	c #BEBFC2",
",	c #B7B8BB",
"'	c #B2B4B8",
")	c #C3C3C5",
"!	c #C7C7C8",
"~	c #B2B4B7",
"{	c #C2C3C4",
"]	c #BABCBF",
"^	c #ACAFB4",
"/	c #B0B2B7",
"(	c #BDBDC0",
"_	c #ABAEB3",
".......................",
".......................",
".......................",
".......+@#$$#@+........",
".....%&*=-;;>,*&%......",
"....%#')!!!!!!)~#%.....",
"....&'!!!!!!!!!!'&.....",
"...+*)!!{;!!;{!!)*+....",
"...],!!{^/;;/^{!!=]....",
"...#(!!;/_//_/;!!>#....",
"...$;!!!;/__/;!!!;$....",
"...$;!!!;/__/;!!!;$....",
"...#>!!;/_//_/;!!>#....",
"...]=!!{^/;;/^{!!=]....",
"...+*)!!{;!!;{!!)*+....",
"....&'!!!!!!!!!!'&.....",
"....%#')!!!!!!)'#%.....",
".....%&*=>;;>=*&%......",
".......+@#$$#@+........",
".......................",
".......................",
".......................",
"......................."};
