/* XPM */
static char * close_active_xpm[] = {
"23 23 87 1",
" 	c None",
".	c #CECECE",
"+	c #C8C8C8",
"@	c #BBBBBB",
"#	c #B4B4B4",
"$	c #ACACAC",
"%	c #A9A9A9",
"&	c #DEDEDE",
"*	c #EAEAEA",
"=	c #CDCDCD",
"-	c #B6B6B6",
";	c #E8E8E8",
">	c #ECECEC",
",	c #B8B8B8",
"'	c #B3B3B3",
")	c #E5E5E5",
"!	c #E3E3E3",
"~	c #E4E4E4",
"{	c #C6C6C6",
"]	c #999999",
"^	c #DCDCDC",
"/	c #DDDDDD",
"(	c #DADADA",
"_	c #C7C7C7",
":	c #DBDBDB",
"<	c #AEAEAE",
"[	c #D9D9D9",
"}	c #D2D2D2",
"|	c #A8A8A8",
"1	c #484848",
"2	c #4E4E4E",
"3	c #C0C0C0",
"4	c #C1C1C1",
"5	c #535353",
"6	c #4C4C4C",
"7	c #CFCFCF",
"8	c #9D9D9D",
"9	c #C3C3C3",
"0	c #D0D0D0",
"a	c #CCCCCC",
"b	c #BEBEBE",
"c	c #6B6B6B",
"d	c #626262",
"e	c #575757",
"f	c #5A5A5A",
"g	c #6D6D6D",
"h	c #737373",
"i	c #BFBFBF",
"j	c #898989",
"k	c #CACACA",
"l	c #C5C5C5",
"m	c #787878",
"n	c #717171",
"o	c #818181",
"p	c #848484",
"q	c #7F7F7F",
"r	c #888888",
"s	c #828282",
"t	c #929292",
"u	c #B1B1B1",
"v	c #BCBCBC",
"w	c #515151",
"x	c #6A6A6A",
"y	c #7D7D7D",
"z	c #5D5D5D",
"A	c #B0B0B0",
"B	c #A1A1A1",
"C	c #9B9B9B",
"D	c #BDBDBD",
"E	c #969696",
"F	c #6F6F6F",
"G	c #676767",
"H	c #9A9A9A",
"I	c #C2C2C2",
"J	c #B7B7B7",
"K	c #A2A2A2",
"L	c #808080",
"M	c #B2B2B2",
"N	c #7B7B7B",
"O	c #9C9C9C",
"P	c #636363",
"Q	c #878787",
"R	c #AAAAAA",
"S	c #939393",
"T	c #797979",
"U	c #616161",
"V	c #D1D1D1",
".......................",
".......................",
".......................",
".......+@#$$#@+........",
"......@%.&**&=%@.......",
".....$-;>*;;*>;-$......",
"....,'*)!!!!!~)*',.....",
"...{]^/($_::_$(/^]{....",
"...<,[}|123456|}[,<....",
"..7890abcdefghia0987...",
"..0jk{l_kmnmok_l{kj7...",
"..0pl3i3#hqrs-3i3lp0...",
"..7tuiv<wxqpyzAviut7...",
"..7BCD,EfF44mGH,DCB7...",
"...Ih#J@<bJJbu@J#hI....",
"...0KLJ#J#MM#J#JLK0....",
"....0oN$MMuuMM$No0.....",
".....0OPQHRRHQPO0......",
"......0bSTUUTSb0.......",
".......70V}}V0.........",
".......................",
".......................",
"......................."};
