/* XPM */
static char * hide_pressed_xpm[] = {
"23 23 103 2",
"  	c None",
". 	c #CECECE",
"+ 	c #D0D0D0",
"@ 	c #CFCFCF",
"# 	c #C3C3C3",
"$ 	c #B8B8B8",
"% 	c #AEAEAE",
"& 	c #B9B9B9",
"* 	c #C4C4C4",
"= 	c #C9C9C9",
"- 	c #B3B3B3",
"; 	c #A9A9A9",
"> 	c #B5B5B5",
", 	c #C0C0C0",
"' 	c #A8A8A8",
") 	c #A4A4A4",
"! 	c #999999",
"~ 	c #939393",
"{ 	c #8D8D8D",
"] 	c #9A9A9A",
"^ 	c #C1C1C1",
"/ 	c #8E8E8E",
"( 	c #C5C5C5",
"_ 	c #DADADA",
": 	c #E8E8E8",
"< 	c #E9E9E9",
"[ 	c #C8C8C8",
"} 	c #8B8B8B",
"| 	c #A6A6A6",
"1 	c #E6E6E6",
"2 	c #ECECEC",
"3 	c #EAEAEA",
"4 	c #A7A7A7",
"5 	c #CDCDCD",
"6 	c #B2B2B2",
"7 	c #959595",
"8 	c #A2A2A2",
"9 	c #E5E5E5",
"0 	c #E3E3E3",
"a 	c #9F9F9F",
"b 	c #A1A1A1",
"c 	c #808080",
"d 	c #DBDBDB",
"e 	c #DDDDDD",
"f 	c #7E7E7E",
"g 	c #BEBEBE",
"h 	c #AFAFAF",
"i 	c #D9D9D9",
"j 	c #D2D2D2",
"k 	c #D5D5D5",
"l 	c #747474",
"m 	c #D4D4D4",
"n 	c #D3D3D3",
"o 	c #ADADAD",
"p 	c #B4B4B4",
"q 	c #CCCCCC",
"r 	c #494949",
"s 	c #787878",
"t 	c #BDBDBD",
"u 	c #6F6F6F",
"v 	c #CBCBCB",
"w 	c #C6C6C6",
"x 	c #646464",
"y 	c #616161",
"z 	c #7B7B7B",
"A 	c #C7C7C7",
"B 	c #CACACA",
"C 	c #ABABAB",
"D 	c #696969",
"E 	c #BFBFBF",
"F 	c #686868",
"G 	c #828282",
"H 	c #6A6A6A",
"I 	c #757575",
"J 	c #ACACAC",
"K 	c #BCBCBC",
"L 	c #656565",
"M 	c #858585",
"N 	c #6C6C6C",
"O 	c #A5A5A5",
"P 	c #8F8F8F",
"Q 	c #BBBBBB",
"R 	c #565656",
"S 	c #626262",
"T 	c #4F4F4F",
"U 	c #707070",
"V 	c #A3A3A3",
"W 	c #9D9D9D",
"X 	c #5E5E5E",
"Y 	c #B7B7B7",
"Z 	c #5D5D5D",
"` 	c #818181",
" .	c #6E6E6E",
"..	c #666666",
"+.	c #AAAAAA",
"@.	c #B1B1B1",
"#.	c #7C7C7C",
"$.	c #505050",
"%.	c #7A7A7A",
"&.	c #797979",
"*.	c #767676",
"=.	c #606060",
"-.	c #4C4C4C",
". . . . . . + + + + + + + + + + + + . . . . . ",
". . . . . . + @ # $ % % & * + + + + . . . . . ",
". . . . . = - ; ; ; ; ; ; ; ; > = . . . . . . ",
". . . . , ; ' ) ! ~ { { ~ ] ) ' ; ^ . . . . . ",
". . . , ' ' ! / ( _ : < _ # / ! ; ' , . . . . ",
". . [ ' ' } | 1 2 3 : : 3 2 1 | } 4 ; = . . . ",
". 5 6 4 7 8 3 9 0 0 0 0 0 0 9 3 a 7 4 6 5 . . ",
". * | b c d e d d d _ _ _ _ _ e _ f b | ( . . ",
". g 4 / h i j k l m n j j j j j i o / | g . . ",
". p 4 f g @ q . r s . 5 q q q q @ t f ' > . . ",
". ' ' u v w ( [ x y z A ( ( ( ( w B u 4 C . . ",
". ' ; D # , E # F G H f ^ E E E , # D ; C . . ",
". p 4 I J E K E L f M N z E K K E J I 4 > . . ",
". g O G P t $ Q R S L L T U Q $ t P G O g . . ",
". * V W X - Y $ . . . . . # $ Y 6 Z W V ( . . ",
". 5 o 4 ` u Y p 6 6 6 6 6 6 p Y  .` | o 5 . . ",
". . [ V ; ..D +.6 6 @.@.6 6 +.F ..; O = . . . ",
". . . , V ; #.$.%.~ ; ; ~ &.T #.' 8 , . . . . ",
". . . . , 8 | ! *.=.-.-.=.*.! O V ^ . . . . . ",
". . . . . = +.8 O 4 ; ' 4 O b C = . . . . . . ",
". . . . . . 5 * K o ) ) o t * 5 . . . . . . . ",
". . . . . . . . . . . . . . . . . . . . . . . ",
". . . . . . . . . . . . . . . . . . . . . . . "};
