/* XPM */
static char * maximize_toggled_pressed_xpm[] = {
"23 23 105 2",
"  	c None",
". 	c #CECECE",
"+ 	c #CFCFCF",
"@ 	c #C3C3C3",
"# 	c #B8B8B8",
"$ 	c #AEAEAE",
"% 	c #B9B9B9",
"& 	c #C4C4C4",
"* 	c #D0D0D0",
"= 	c #CBCBCB",
"- 	c #B3B3B3",
"; 	c #A9A9A9",
"> 	c #B5B5B5",
", 	c #C9C9C9",
"' 	c #C6C6C6",
") 	c #A8A8A8",
"! 	c #A4A4A4",
"~ 	c #999999",
"{ 	c #939393",
"] 	c #8D8D8D",
"^ 	c #9A9A9A",
"/ 	c #C5C5C5",
"( 	c #8E8E8E",
"_ 	c #DBDBDB",
": 	c #E8E8E8",
"< 	c #E9E9E9",
"[ 	c #DADADA",
"} 	c #CDCDCD",
"| 	c #8B8B8B",
"1 	c #A6A6A6",
"2 	c #E6E6E6",
"3 	c #ECECEC",
"4 	c #EAEAEA",
"5 	c #A7A7A7",
"6 	c #CCCCCC",
"7 	c #B2B2B2",
"8 	c #959595",
"9 	c #A2A2A2",
"0 	c #E5E5E5",
"a 	c #E3E3E3",
"b 	c #E4E4E4",
"c 	c #C1C1C1",
"d 	c #9F9F9F",
"e 	c #CACACA",
"f 	c #A1A1A1",
"g 	c #808080",
"h 	c #DDDDDD",
"i 	c #DCDCDC",
"j 	c #454545",
"k 	c #BCBCBC",
"l 	c #7E7E7E",
"m 	c #BFBFBF",
"n 	c #AFAFAF",
"o 	c #D9D9D9",
"p 	c #D2D2D2",
"q 	c #D4D4D4",
"r 	c #5D5D5D",
"s 	c #525252",
"t 	c #B7B7B7",
"u 	c #D3D3D3",
"v 	c #ADADAD",
"w 	c #B4B4B4",
"x 	c #686868",
"y 	c #777777",
"z 	c #555555",
"A 	c #BEBEBE",
"B 	c #6F6F6F",
"C 	c #C8C8C8",
"D 	c #C7C7C7",
"E 	c #656565",
"F 	c #707070",
"G 	c #4C4C4C",
"H 	c #ABABAB",
"I 	c #696969",
"J 	c #C0C0C0",
"K 	c #404040",
"L 	c #494949",
"M 	c #484848",
"N 	c #757575",
"O 	c #ACACAC",
"P 	c #6B6B6B",
"Q 	c #787878",
"R 	c #6E6E6E",
"S 	c #A5A5A5",
"T 	c #828282",
"U 	c #8F8F8F",
"V 	c #BDBDBD",
"W 	c #6A6A6A",
"X 	c #A3A3A3",
"Y 	c #9D9D9D",
"Z 	c #5E5E5E",
"` 	c #BABABA",
" .	c #5C5C5C",
"..	c #818181",
"+.	c #B6B6B6",
"@.	c #666666",
"#.	c #AAAAAA",
"$.	c #B1B1B1",
"%.	c #7C7C7C",
"&.	c #505050",
"*.	c #949494",
"=.	c #4F4F4F",
"-.	c #BBBBBB",
";.	c #767676",
">.	c #606060",
". . . . . . . . . . . . . . . . . . . . . . . ",
". . . . . . . + @ # $ $ % & * . . . . . . . . ",
". . . . . = - ; ; ; ; ; ; ; ; > , . . . . . . ",
". . . . ' ; ) ! ~ { ] ] { ^ ! ) ; ' . . . . . ",
". . . / ) ) ~ ( ' _ : < [ / ( ~ ; ) ' . . . . ",
". . } ) ) | 1 2 3 4 : : 4 3 2 1 | 5 ; 6 . . . ",
". } 7 5 8 9 4 0 a a b c a a 0 4 d 8 5 7 } . . ",
". e 1 f g _ h [ [ [ i j k [ [ h [ l f 1 6 . . ",
". m 5 ( n o p p p p q r s t u p o v ( 1 c . . ",
". w 5 l m * 6 6 6 6 . x y z - 6 * A l ) > . . ",
". ) ) B } C C D D D C E F x G $ C } B 5 H . . ",
". ) ; I / J 5 K j L M q q q p / J & I ; H . . ",
". - 5 N O m J m P Q R m k k k k m O N 5 w . . ",
". k S T U V # V k W E k # # # # V U T S A . . ",
". & X Y Z - t > ` %  .% > > > t 7 r Y X D . . ",
". . v 5 ..B t w 7 t +.> 7 7 w t R ..1 v . . . ",
". + e X ; @.I #.7 7 $.$.7 7 #.x @.; S = + . . ",
". + + k X ; %.&.l *.; ; *.%.=.%.) 9 V + + . . ",
". . . . -.9 1 ~ ;.>.G G >.;.~ S X -.. . . . . ",
". . . . . ' #.9 S 5 ; ) 5 S f H D . . . . . . ",
". } } } } } 6 m +.v ! ! v +.J 6 } } } } } . . ",
". . . . . . . . . . . . . . . . . . . . . . . ",
". . . . . . . . . . . . . . . . . . . . . . . "};
