/* XPM */
static char * maximize_pressed_xpm[] = {
"23 23 105 2",
"  	c None",
". 	c #CECECE",
"+ 	c #CFCFCF",
"@ 	c #C3C3C3",
"# 	c #B8B8B8",
"$ 	c #AEAEAE",
"% 	c #B9B9B9",
"& 	c #C4C4C4",
"* 	c #D0D0D0",
"= 	c #CBCBCB",
"- 	c #B3B3B3",
"; 	c #A9A9A9",
"> 	c #B5B5B5",
", 	c #C9C9C9",
"' 	c #C6C6C6",
") 	c #A8A8A8",
"! 	c #A4A4A4",
"~ 	c #999999",
"{ 	c #939393",
"] 	c #8D8D8D",
"^ 	c #9A9A9A",
"/ 	c #C5C5C5",
"( 	c #8E8E8E",
"_ 	c #DBDBDB",
": 	c #E8E8E8",
"< 	c #E9E9E9",
"[ 	c #DADADA",
"} 	c #CDCDCD",
"| 	c #8B8B8B",
"1 	c #A6A6A6",
"2 	c #E6E6E6",
"3 	c #ECECEC",
"4 	c #EAEAEA",
"5 	c #A7A7A7",
"6 	c #CCCCCC",
"7 	c #B2B2B2",
"8 	c #959595",
"9 	c #A2A2A2",
"0 	c #E5E5E5",
"a 	c #E3E3E3",
"b 	c #9F9F9F",
"c 	c #CACACA",
"d 	c #A1A1A1",
"e 	c #808080",
"f 	c #DDDDDD",
"g 	c #DCDCDC",
"h 	c #7E7E7E",
"i 	c #BFBFBF",
"j 	c #AFAFAF",
"k 	c #D9D9D9",
"l 	c #D2D2D2",
"m 	c #D4D4D4",
"n 	c #404040",
"o 	c #3E3E3E",
"p 	c #393939",
"q 	c #D5D5D5",
"r 	c #ADADAD",
"s 	c #C1C1C1",
"t 	c #B4B4B4",
"u 	c #727272",
"v 	c #737373",
"w 	c #626262",
"x 	c #BEBEBE",
"y 	c #6F6F6F",
"z 	c #C8C8C8",
"A 	c #484848",
"B 	c #ABABAB",
"C 	c #797979",
"D 	c #6A6A6A",
"E 	c #696969",
"F 	c #C0C0C0",
"G 	c #575757",
"H 	c #AAAAAA",
"I 	c #6E6E6E",
"J 	c #757575",
"K 	c #ACACAC",
"L 	c #BCBCBC",
"M 	c #616161",
"N 	c #5A5A5A",
"O 	c #C2C2C2",
"P 	c #A5A5A5",
"Q 	c #828282",
"R 	c #8F8F8F",
"S 	c #BDBDBD",
"T 	c #BBBBBB",
"U 	c #545454",
"V 	c #606060",
"W 	c #4A4A4A",
"X 	c #A3A3A3",
"Y 	c #9D9D9D",
"Z 	c #5E5E5E",
"` 	c #B7B7B7",
" .	c #5D5D5D",
"..	c #C7C7C7",
"+.	c #818181",
"@.	c #666666",
"#.	c #B1B1B1",
"$.	c #686868",
"%.	c #7C7C7C",
"&.	c #505050",
"*.	c #949494",
"=.	c #4F4F4F",
"-.	c #767676",
";.	c #4C4C4C",
">.	c #B6B6B6",
". . . . . . . . . . . . . . . . . . . . . . . ",
". . . . . . . + @ # $ $ % & * . . . . . . . . ",
". . . . . = - ; ; ; ; ; ; ; ; > , . . . . . . ",
". . . . ' ; ) ! ~ { ] ] { ^ ! ) ; ' . . . . . ",
". . . / ) ) ~ ( ' _ : < [ / ( ~ ; ) ' . . . . ",
". . } ) ) | 1 2 3 4 : : 4 3 2 1 | 5 ; 6 . . . ",
". } 7 5 8 9 4 0 a a a a a a 0 4 b 8 5 7 } . . ",
". c 1 d e _ f [ [ g _ _ _ _ g f [ h d 1 6 . . ",
". i 5 ( j k l l m > n o o p q l k r ( 1 s . . ",
". t 5 h i * . . j * } u v w + . * x h ) > . . ",
". ) ) y } z z } A B } z C D } z z } y 5 B . . ",
". ) ; E / F i @ w G H ' / I @ i F & E ; B . . ",
". - 5 J K i L i M J N 5 O s i L i K J 5 t . . ",
". L P Q R S # T U V M W ! S % # S R Q P x . . ",
". & X Y Z - ` # + + + . L > > ` 7  .Y X ... . ",
". . r 5 +.y ` t 7 7 7 7 7 7 t ` I +.1 r . . . ",
". + c X ; @.E H 7 7 #.#.7 7 H $.@.; P = + . . ",
". + + L X ; %.&.h *.; ; *.%.=.%.) 9 S + + . . ",
". . . . T 9 1 ~ -.V ;.;.V -.~ P X T . . . . . ",
". . . . . ' H 9 P 5 ; ) 5 P d B ... . . . . . ",
". } } } } } 6 i >.r ! ! r >.F 6 } } } } } . . ",
". . . . . . . . . . . . . . . . . . . . . . . ",
". . . . . . . . . . . . . . . . . . . . . . . "};
