/* XPM */
static char * maximize_toggled_active_xpm[] = {
"23 23 87 1",
" 	c None",
".	c #CECECE",
"+	c #CDCECE",
"@	c #C8C8C8",
"#	c #BBBBBB",
"$	c #B4B4B4",
"%	c #ACACAC",
"&	c #A9A9A9",
"*	c #DEDEDE",
"=	c #EAEAEA",
"-	c #CDCDCD",
";	c #B6B6B6",
">	c #E8E8E8",
",	c #ECECEC",
"'	c #B8B8B8",
")	c #B3B3B3",
"!	c #E5E5E5",
"~	c #E3E3E3",
"{	c #E4E4E4",
"]	c #C1C1C1",
"^	c #C6C6C6",
"/	c #999999",
"(	c #DCDCDC",
"_	c #DDDDDD",
":	c #DADADA",
"<	c #454545",
"[	c #BCBCBC",
"}	c #AEAEAE",
"|	c #D9D9D9",
"1	c #D2D2D2",
"2	c #D4D4D4",
"3	c #5D5D5D",
"4	c #525252",
"5	c #B7B7B7",
"6	c #D3D3D3",
"7	c #CFCFCF",
"8	c #9D9D9D",
"9	c #C3C3C3",
"0	c #D0D0D0",
"a	c #CCCCCC",
"b	c #686868",
"c	c #777777",
"d	c #555555",
"e	c #898989",
"f	c #CACACA",
"g	c #C7C7C7",
"h	c #656565",
"i	c #707070",
"j	c #4C4C4C",
"k	c #848484",
"l	c #C5C5C5",
"m	c #A7A7A7",
"n	c #404040",
"o	c #494949",
"p	c #484848",
"q	c #C0C0C0",
"r	c #929292",
"s	c #B1B1B1",
"t	c #BFBFBF",
"u	c #6B6B6B",
"v	c #787878",
"w	c #6E6E6E",
"x	c #A1A1A1",
"y	c #9B9B9B",
"z	c #BDBDBD",
"A	c #6A6A6A",
"B	c #C2C2C2",
"C	c #737373",
"D	c #B5B5B5",
"E	c #BABABA",
"F	c #B9B9B9",
"G	c #5C5C5C",
"H	c #A2A2A2",
"I	c #808080",
"J	c #B2B2B2",
"K	c #818181",
"L	c #7B7B7B",
"M	c #9C9C9C",
"N	c #636363",
"O	c #878787",
"P	c #9A9A9A",
"Q	c #AAAAAA",
"R	c #BEBEBE",
"S	c #939393",
"T	c #797979",
"U	c #616161",
"V	c #D1D1D1",
".......................",
".....+.+.+.+...........",
".......................",
".......@#$%%$#@........",
"......#&.*==*-&#.......",
".....%;>,=>>=,>;%......",
"....')=!~~{]~~!=)'.....",
"...^/(_:::(<[::_(/^....",
"...}'|1111234561|'}....",
"..7890aaaa.bcd)a0987...",
"..0ef^@ggg@hibj}^fe7...",
"..0kl]mn<op2221lqlk0...",
"..7rstqtuvwt[[[[tsr7...",
"..7xyz'z[Ah[''''zyx7...",
"...BC$5DEFGFDDD5$CB....",
"...0HI5$J5;DJJ$5IH0....",
"....0KL%JJDJJJ%LK0.....",
".....0MNOPQQPONM0......",
"......0RSTUUTSR0.......",
".......70V11V0.........",
".......................",
".......................",
"......................."};
