/* XPM */
static char * maximize_toggled_prelight_xpm[] = {
"23 23 104 2",
"  	c None",
". 	c #CECECE",
"+ 	c #D2D2D2",
"@ 	c #C8C8C8",
"# 	c #BFBFBF",
"$ 	c #B7B7B7",
"% 	c #C0C0C0",
"& 	c #C9C9C9",
"* 	c #D3D3D3",
"= 	c #CCCCCC",
"- 	c #BBBBBB",
"; 	c #B2B2B2",
"> 	c #BCBCBC",
", 	c #CACACA",
"' 	c #B3B3B3",
") 	c #B1B1B1",
"! 	c #AEAEAE",
"~ 	c #A2A2A2",
"{ 	c #9B9B9B",
"] 	c #959595",
"^ 	c #A3A3A3",
"/ 	c #DBDBDB",
"( 	c #E9E9E9",
"_ 	c #EAEAEA",
": 	c #DADADA",
"< 	c #939393",
"[ 	c #A9A9A9",
"} 	c #E7E7E7",
"| 	c #ECECEC",
"1 	c #E8E8E8",
"2 	c #AAAAAA",
"3 	c #CDCDCD",
"4 	c #B9B9B9",
"5 	c #9D9D9D",
"6 	c #A6A6A6",
"7 	c #E5E5E5",
"8 	c #E3E3E3",
"9 	c #E4E4E4",
"0 	c #C1C1C1",
"a 	c #A4A4A4",
"b 	c #BABABA",
"c 	c #AFAFAF",
"d 	c #868686",
"e 	c #DDDDDD",
"f 	c #DCDCDC",
"g 	c #454545",
"h 	c #848484",
"i 	c #C4C4C4",
"j 	c #969696",
"k 	c #D9D9D9",
"l 	c #D4D4D4",
"m 	c #5D5D5D",
"n 	c #525252",
"o 	c #ADADAD",
"p 	c #B0B0B0",
"q 	c #C5C5C5",
"r 	c #858585",
"s 	c #D0D0D0",
"t 	c #686868",
"u 	c #777777",
"v 	c #555555",
"w 	c #737373",
"x 	c #C7C7C7",
"y 	c #656565",
"z 	c #707070",
"A 	c #4C4C4C",
"B 	c #C6C6C6",
"C 	c #A7A7A7",
"D 	c #404040",
"E 	c #494949",
"F 	c #484848",
"G 	c #7B7B7B",
"H 	c #6B6B6B",
"I 	c #787878",
"J 	c #6E6E6E",
"K 	c #ACACAC",
"L 	c #898989",
"M 	c #919191",
"N 	c #BDBDBD",
"O 	c #B8B8B8",
"P 	c #6A6A6A",
"Q 	c #C2C2C2",
"R 	c #636363",
"S 	c #B5B5B5",
"T 	c #5C5C5C",
"U 	c #626262",
"V 	c #B4B4B4",
"W 	c #888888",
"X 	c #727272",
"Y 	c #B6B6B6",
"Z 	c #CFCFCF",
"` 	c #CBCBCB",
" .	c #6C6C6C",
"..	c #6D6D6D",
"+.	c #838383",
"@.	c #545454",
"#.	c #7E7E7E",
"$.	c #7C7C7C",
"%.	c #535353",
"&.	c #A1A1A1",
"*.	c #666666",
"=.	c #505050",
"-.	c #ABABAB",
";.	c #C3C3C3",
". . . . . . . . . . . . . . . . . . . . . . . ",
". . . . . . . + @ # $ $ % & * . . . . . . . . ",
". . . . . = - ; ; ; ; ; ; ; ; > , . . . . . . ",
". . . . , ' ) ! ~ { ] ] { ^ ! ) ' , . . . . . ",
". . . & ; ; ~ ] & / ( _ : @ ] ~ ; ) , . . . . ",
". . . ; ) < [ } | _ 1 1 _ | } 2 < ) ; 3 . . . ",
". 3 4 ) 5 6 _ 7 8 8 9 0 8 8 7 _ a 5 ) b 3 . . ",
". 3 c 2 d / e : : : f g > : : e : h 2 c . . . ",
". i ) j c k + + + + l m n $ * + k o j p q . . ",
". - ) r # s = = = = . t u v ' = s # r ; - . . ",
". ) ) w . @ @ x x x @ y z t A ! @ 3 w ) ' . . ",
". ) ; z B % C D g E F l l l + q % q z ; ' . . ",
". b ) G o # % # H I J # > > > > # K G ) b . . ",
". 0 c L M N O N > P y > O O O O N M L c Q . . ",
". x o 6 R ' $ S b 4 T 4 S S S $ ; U 6 o & . . ",
". . V p W X $ V ; $ Y S ; ; V $ X W c S . . . ",
". Z ` o )  ...2 ; ; ) ) ; ; 2 .. .; ! = Z . . ",
". Z Z % o ) +.@.#.] [ [ ] $.%.+.) K 0 Z Z . . ",
". . . . # K c &.G *.=.=.*.G &.! o # . . . . . ",
". . . . . @ ; K ! p ; ) c ! -.; & . . . . . . ",
". 3 3 3 3 3 = Q - V o o V - ;.= 3 3 3 3 3 . . ",
". . . . . . . . . . . . . . . . . . . . . . . ",
". . . . . . . . . . . . . . . . . . . . . . . "};
