/* XPM */
static char * menu_inactive_xpm[] = {
"23 23 20 1",
" 	c None",
".	c #CACACA",
"+	c #CECECE",
"@	c #CDCDCD",
"#	c #C9C9C9",
"$	c #C1C1C1",
"%	c #BABABA",
"&	c #BFBFBF",
"*	c #CFCFCF",
"=	c #ECECEC",
"-	c #FDFDFD",
";	c #E6E6E6",
">	c #F9F9F9",
",	c #E4E4E4",
"'	c #F5F5F5",
")	c #C8C8C8",
"!	c #F1F1F1",
"~	c #BDBDBD",
"{	c #C5C5C5",
"]	c #DDDDDD",
".......................",
"+++++++++++++++++++++++",
"+++++++++++++++++++++++",
"+++++++++++++++++++++++",
"+++++++++++++++++++++++",
"+++++++++++++++++++++++",
"+++++++++++++++++++++++",
"+++++++++++++++++++++++",
"++++++++@#$%%$#@+++++++",
"++++++++#&*==*&#+++++++",
"++++++++$+----+$+++++++",
"++++++++%;>>>>;%+++++++",
"++++++++%,'''',%+++++++",
"++++++++$)!!!!)$+++++++",
"++++++++#~{]]{~#+++++++",
"++++++++@#$%%$#@+++++++",
"+++++++++++++++++++++++",
"+++++++++++++++++++++++",
"+++++++++++++++++++++++",
"+++++++++++++++++++++++",
"+++++++++++++++++++++++",
"+++++++++++++++++++++++",
"+++++++++++++++++++++++"};
