/* XPM */
static char * hide_inactive_xpm[] = {
"15 18 63 1",
" 	c None",
".	c #C2C2C2",
"+	c #C2C3C2",
"@	c #C3C3C2",
"#	c #C3C3C3",
"$	c #C2C3C3",
"%	c #C3C2C2",
"&	c #C4C3C3",
"*	c #C4C4C3",
"=	c #C3C3C4",
"-	c #C3C4C3",
";	c #C4C3C4",
">	c #C4C4C4",
",	c #C5C4C4",
"'	c #BFBFBF",
")	c #B6B6B6",
"!	c #AFAFAF",
"~	c #C5C4C5",
"{	c #C4C5C5",
"]	c #C3C4C4",
"^	c #AEAEAE",
"/	c #C5C5C5",
"(	c #C5C6C6",
"_	c #B6B7B6",
":	c #C5C5C6",
"<	c #C5C6C5",
"[	c #C6C6C6",
"}	c #C1C1C1",
"|	c #C7C7C7",
"1	c #B7B7B7",
"2	c #C7C6C6",
"3	c #C6C7C6",
"4	c #C7C7C8",
"5	c #AFB0B0",
"6	c #C7C8C8",
"7	c #C8C8C8",
"8	c #B0B0B0",
"9	c #C9C8C9",
"0	c #B7B7B8",
"a	c #B8B7B7",
"b	c #C8C9C9",
"c	c #C9C9C9",
"d	c #CACACA",
"e	c #CBCBCA",
"f	c #B8B8B8",
"g	c #CBCACA",
"h	c #CBCBCB",
"i	c #B8B9B9",
"j	c #B8B9B8",
"k	c #C9C9CA",
"l	c #CBCACB",
"m	c #CCCBCC",
"n	c #CBCBCC",
"o	c #B8B8B9",
"p	c #CCCCCC",
"q	c #CDCDCD",
"r	c #CDCCCD",
"s	c #CDCDCC",
"t	c #CECECD",
"u	c #CDCECD",
"v	c #CECDCD",
"w	c #CDCDCE",
"x	c #CDCECE",
"...............",
"++@#@#$+#@+%+$%",
"&#&*=#&#-&=#=;-",
">>,>')!!)'>>>>>",
"~{])^^^^^^)>,//",
"((_^^^^^^^^_:/<",
"[}^^^^^^^^^^}[[",
"|1^^^^^^^^^^123",
"4!^^^^^^^^^^56|",
"78^^^^^^^^^^877",
"90^^^^^^^^^^a9b",
"c*^^^^^^^^^^>cd",
"def^^^^^^^^fgdd",
"hhdi^^^^^^jkhld",
"mnhn,o88j,nhhnh",
"ppppppppppppppp",
"qprrqqrsqqsqrsq",
"tuvuwqquqwvxtwq"};
