/* XPM */
static char * maximize_active_xpm[] = {
"15 18 59 1",
" 	c None",
".	c #DBDBDB",
"+	c #D6D5D6",
"@	c #D5D6D6",
"#	c #D6D6D6",
"$	c #D5D6D5",
"%	c #D6D5D5",
"&	c #D5D5D6",
"*	c #D5D5D5",
"=	c #D4D4D4",
"-	c #D4D5D5",
";	c #C6C6C6",
">	c #AAAAAA",
",	c #969696",
"'	c #A9A9AA",
")	c #D5D4D5",
"!	c #D5D4D4",
"~	c #D4D5D4",
"{	c #D2D2D3",
"]	c #919191",
"^	c #D2D3D3",
"/	c #D4D4D3",
"(	c #D3D3D3",
"_	c #C5C6C5",
":	c #C6C5C5",
"<	c #A9A9A9",
"[	c #D3D3D2",
"}	c #D2D2D2",
"|	c #D2D1D2",
"1	c #A9A8A8",
"2	c #D1D2D1",
"3	c #D1D1D1",
"4	c #D2D2D1",
"5	c #C3C3C3",
"6	c #D2D1D1",
"7	c #D1D1D0",
"8	c #A8A9A9",
"9	c #A9A8A9",
"0	c #D1D0D1",
"a	c #D0D0D0",
"b	c #D0D0D1",
"c	c #CFCFCF",
"d	c #A8A8A9",
"e	c #D0CFD0",
"f	c #D0D0CF",
"g	c #CFD0D0",
"h	c #C2C2C2",
"i	c #A8A8A8",
"j	c #959595",
"k	c #CFCFD0",
"l	c #D0CFCF",
"m	c #CFD0CF",
"n	c #CFCFCE",
"o	c #CECFCF",
"p	c #CFCECF",
"q	c #CECFCE",
"r	c #CFCECE",
"s	c #CECECE",
"t	c #CECECF",
"...............",
"+@#++@$%#&#%*@@",
"*********&*****",
"=-**;>,,';)!)**",
"~!{>]]]]]]>^)=-",
"//>]]]]]]]]>=/=",
"(_]]]]]]]]]]:=(",
"(<]]]]]]]]]]<((",
"{,]]]]]]]]]],^[",
"},]]]]]]]]]],}}",
"|1]]]]]]]]]]<23",
"45]]]]]]]]]]562",
"738]]]]]]]]9370",
"abcd]]]]]]dcaaa",
"efeghijjihagegk",
"lcgakaelkmkckcm",
"cnoccncopncpcnc",
"qrrqqrsscssqqtr"};
