/* XPM */
static char * close_active_xpm[] = {
"15 18 126 2",
"  	c None",
". 	c #656565",
"+ 	c #555555",
"@ 	c #545454",
"# 	c #6F6F6F",
"$ 	c #A4A4A4",
"% 	c #C2C2C2",
"& 	c #CACACA",
"* 	c #545455",
"= 	c #555454",
"- 	c #535353",
"; 	c #59595A",
"> 	c #9C9C9D",
", 	c #C7C7C7",
"' 	c #A9A9A9",
") 	c #878787",
"! 	c #7B7B7B",
"~ 	c #5A5A59",
"{ 	c #545353",
"] 	c #535354",
"^ 	c #9C9C9C",
"/ 	c #BCBCBC",
"( 	c #747474",
"_ 	c #525253",
": 	c #525352",
"< 	c #535253",
"[ 	c #525353",
"} 	c #535252",
"| 	c #6C6C6D",
"1 	c #737474",
"2 	c #535454",
"3 	c #A0A0A0",
"4 	c #515251",
"5 	c #515152",
"6 	c #515151",
"7 	c #737373",
"8 	c #6C6D6D",
"9 	c #525251",
"0 	c #525152",
"a 	c #A3A3A3",
"b 	c #A8A8A8",
"c 	c #515050",
"d 	c #CECECE",
"e 	c #ABABAB",
"f 	c #575758",
"g 	c #505050",
"h 	c #505151",
"i 	c #515051",
"j 	c #C1C1C1",
"k 	c #858585",
"l 	c #504F4F",
"m 	c #4F4F4F",
"n 	c #CDCDCD",
"o 	c #C9C9C9",
"p 	c #4F5050",
"q 	c #848585",
"r 	c #4F4F50",
"s 	c #504F50",
"t 	c #787878",
"u 	c #4F4E4F",
"v 	c #565656",
"w 	c #C8C9C9",
"x 	c #C9C8C9",
"y 	c #555556",
"z 	c #4E4E4F",
"A 	c #848484",
"B 	c #4E4E4E",
"C 	c #4E4F4F",
"D 	c #AAAAAA",
"E 	c #C8C8C8",
"F 	c #4D4E4E",
"G 	c #838484",
"H 	c #4D4D4E",
"I 	c #A1A1A1",
"J 	c #A7A7A7",
"K 	c #4C4D4D",
"L 	c #9E9E9E",
"M 	c #545355",
"N 	c #9E9E9F",
"O 	c #4C4C4E",
"P 	c #4D4C4D",
"Q 	c #4D4D4D",
"R 	c #696969",
"S 	c #C6C6C6",
"T 	c #6E6E6F",
"U 	c #4D4C4E",
"V 	c #4C4B4D",
"W 	c #6E6F6F",
"X 	c #686969",
"Y 	c #4B4C4C",
"Z 	c #4C4C4C",
"` 	c #999999",
" .	c #BABABA",
"..	c #6E6E6E",
"+.	c #4A4B4B",
"@.	c #4B4B4B",
"#.	c #4B4A4C",
"$.	c #99999A",
"%.	c #4B4A4B",
"&.	c #4B4B4C",
"*.	c #4A4A4B",
"=.	c #A6A6A6",
"-.	c #818181",
";.	c #747475",
">.	c #818182",
",.	c #505051",
"'.	c #4A4A4A",
").	c #4A494B",
"!.	c #494A4B",
"~.	c #49484A",
"{.	c #484949",
"].	c #666666",
"^.	c #C0C0C0",
"/.	c #C0C0C1",
"(.	c #48494A",
"_.	c #49494A",
":.	c #474849",
"<.	c #484848",
"[.	c #484849",
"}.	c #484749",
"|.	c #474748",
"1.	c #474747",
"2.	c #464747",
"3.	c #464647",
"4.	c #464546",
"5.	c #464646",
". . . . . . . . . . . . . . . ",
"+ + + + + + + + + + + + + + + ",
"@ @ + # $ % & % $ # + @ * = @ ",
"- ; > , ' ) ! ) ' , > ~ - - { ",
"] ^ / ( _ : < [ _ ( / ^ ] _ } ",
"| , 1 2 3 4 5 6 3 ] 7 , 8 9 0 ",
"a b c 3 d e f e d 3 g b a h i ",
"j k l m e n o n e p p q j r s ",
"& t u u v w d x y m m t & z z ",
"j A B C D n E n D m F G j F H ",
"I J K L d D M D d N O J I P Q ",
"R S T H L U V K L B W , X Y Z ",
"Z `  ...+.@.@.#.@.T  .$.Z %.&.",
"*.5 ` , =.-.;.>.=.S ` ,.'.).!.",
"~.{.*.].3 ^.& /.3 ].*.(._._._.",
":.:.<.[.[.[.[.[.}.[.}.<.[.[.[.",
"|.1.2.|.|.|.|.|.|.|.|.|.|.1.1.",
"3.3.3.4.3.3.3.3.3.5.3.3.3.3.3."};
