/* XPM */
static char * close_inactive_xpm[] = {
"15 18 101 2",
"  	c None",
". 	c #707070",
"+ 	c #6F6F6F",
"@ 	c #6F6F70",
"# 	c #706F70",
"$ 	c #6F7070",
"% 	c #6E6E6E",
"& 	c #6E6E6F",
"* 	c #737373",
"= 	c #7F7F7F",
"- 	c #858585",
"; 	c #878787",
"> 	c #6E6F6E",
", 	c #6F6E6E",
"' 	c #6D6E6D",
") 	c #7D7D7D",
"! 	c #868686",
"~ 	c #7F807F",
"{ 	c #787979",
"] 	c #757675",
"^ 	c #787878",
"/ 	c #7F7F80",
"( 	c #6D6D6E",
"_ 	c #6C6C6C",
": 	c #7C7C7C",
"< 	c #838383",
"[ 	c #747373",
"} 	c #6D6C6D",
"| 	c #6D6D6D",
"1 	c #6D6C6C",
"2 	c #6C6C6D",
"3 	c #747473",
"4 	c #848483",
"5 	c #7C7D7C",
"6 	c #6C6D6C",
"7 	c #717271",
"8 	c #737272",
"9 	c #6B6B6C",
"0 	c #6B6C6B",
"a 	c #6B6B6B",
"b 	c #6B6C6C",
"c 	c #737372",
"d 	c #6C6B6C",
"e 	c #6A6B6B",
"f 	c #888888",
"g 	c #807F80",
"h 	c #7F8080",
"i 	c #7E7E7E",
"j 	c #767676",
"k 	c #6A6A6A",
"l 	c #6A6A69",
"m 	c #696A69",
"n 	c #696A6A",
"o 	c #696969",
"p 	c #6A696A",
"q 	c #696968",
"r 	c #696869",
"s 	c #848484",
"t 	c #757575",
"u 	c #686868",
"v 	c #7C7C7D",
"w 	c #676767",
"x 	c #7B7B7B",
"y 	c #686968",
"z 	c #7E7F7E",
"A 	c #676867",
"B 	c #666666",
"C 	c #666667",
"D 	c #676666",
"E 	c #666766",
"F 	c #6E6D6E",
"G 	c #656565",
"H 	c #7A7A7A",
"I 	c #828283",
"J 	c #666565",
"K 	c #666665",
"L 	c #656666",
"M 	c #656566",
"N 	c #828382",
"O 	c #656665",
"P 	c #797A7A",
"Q 	c #7A7A79",
"R 	c #656465",
"S 	c #646564",
"T 	c #646464",
"U 	c #646363",
"V 	c #636463",
"W 	c #646463",
"X 	c #636364",
"Y 	c #636363",
"Z 	c #626362",
"` 	c #636262",
" .	c #626363",
"..	c #636263",
"+.	c #626262",
"@.	c #616261",
"#.	c #626261",
"$.	c #626161",
"%.	c #616262",
"&.	c #616061",
"*.	c #616161",
". . . . . . . . . . . . . . . ",
"+ + + + @ + + # + + + + $ + # ",
"% % & * = - ; - = * % % > , > ",
"' % ) ! ~ { ] ^ / ! ) > ( ' ' ",
"_ : < [ } | 1 } 2 3 4 5 _ 6 2 ",
"7 ! 8 9 ) 0 _ a ) b c ! 7 d d ",
") = e ) f g b h f ) e = i e a ",
"- j k l = ; ! ; = l m j - m n ",
"; * o o p ! f ! k q o * ; r o ",
"s t u u = ; ! ; = u u t s u u ",
"v i w x f i y z f x A i : w A ",
"( ! . B x C C D x E + ! F B B ",
"G H I , J J K L M , N H M O G ",
"G J P ! ) * + * ) ! Q O G R S ",
"T T U a x s ; s x d V W X Y U ",
"Z Y Y Y Y `  . .Y  .Y ..Y ` ` ",
"+.+.@.#.+.+.#.#.+.+.+.+.$.#.%.",
"&.*.*.*.*.*.*.*.*.*.*.*.&.*.*."};
