/* XPM */
static char * hide_active_xpm[] = {
"15 18 99 2",
"  	c None",
". 	c #656565",
"+ 	c #555555",
"@ 	c #545454",
"# 	c #545554",
"$ 	c #545455",
"% 	c #555454",
"& 	c #535353",
"* 	c #535354",
"= 	c #535454",
"- 	c #545453",
"; 	c #545353",
"> 	c #525253",
", 	c #525252",
"' 	c #525353",
") 	c #525352",
"! 	c #535253",
"~ 	c #535252",
"{ 	c #515152",
"] 	c #515151",
"^ 	c #515252",
"/ 	c #515251",
"( 	c #525152",
"_ 	c #525251",
": 	c #515050",
"< 	c #505050",
"[ 	c #505150",
"} 	c #505051",
"| 	c #5A5959",
"1 	c #575758",
"2 	c #5C5C5C",
"3 	c #5B5B5C",
"4 	c #505151",
"5 	c #515051",
"6 	c #4F4F50",
"7 	c #504F4F",
"8 	c #4F4F4F",
"9 	c #B8B8B8",
"0 	c #C5C5C5",
"a 	c #575858",
"b 	c #616262",
"c 	c #504F50",
"d 	c #4E4F4F",
"e 	c #4F4E4F",
"f 	c #7B7C7C",
"g 	c #CCCDCD",
"h 	c #BABABA",
"i 	c #7B7B7B",
"j 	c #BDBDBD",
"k 	c #CDCDCD",
"l 	c #777777",
"m 	c #4E4E4F",
"n 	c #4E4D4E",
"o 	c #4E4E4E",
"p 	c #4D4E4E",
"q 	c #4D4D4E",
"r 	c #727373",
"s 	c #CECECE",
"t 	c #4C4D4D",
"u 	c #4D4C4D",
"v 	c #4D4D4D",
"w 	c #4D4C4E",
"x 	c #727272",
"y 	c #C8C8C8",
"z 	c #727273",
"A 	c #4C4C4E",
"B 	c #4C4C4D",
"C 	c #4B4C4C",
"D 	c #4B4B4C",
"E 	c #4B4C4D",
"F 	c #4C4B4D",
"G 	c #4F5051",
"H 	c #4C4C4C",
"I 	c #4C4B4C",
"J 	c #4B4B4B",
"K 	c #4B4A4B",
"L 	c #4A4B4B",
"M 	c #4B4A4C",
"N 	c #4A4A4B",
"O 	c #4A4A4A",
"P 	c #4A494A",
"Q 	c #494A4A",
"R 	c #494A4B",
"S 	c #49494A",
"T 	c #4A494B",
"U 	c #49484A",
"V 	c #484949",
"W 	c #48494A",
"X 	c #494949",
"Y 	c #474849",
"Z 	c #484848",
"` 	c #484849",
" .	c #484749",
"..	c #474748",
"+.	c #474747",
"@.	c #464747",
"#.	c #464647",
"$.	c #464546",
"%.	c #464646",
". . . . . . . . . . . . . . . ",
"+ + + + + + + + + + + + + + + ",
"@ @ @ @ @ @ # # @ @ @ @ $ % @ ",
"& * * = & * & & & * * - & & ; ",
"> , ' ' > ) ! ' > ) ~ ~ > > ~ ",
"{ ] ^ ^ ] / { ] { { ] ( ^ _ ( ",
": < : [ } | 1 } } } 2 3 ] 4 5 ",
"6 < 7 8 < 9 0 a 6 b 0 9 c 6 c ",
"d d e e 8 f g h i j k l m m m ",
"n o o p q o r s s s r p p p q ",
"t t t t u v w x y z A B v u v ",
"B C D D E F F C G H C I E C H ",
"J J K K L J J M J D L D J K D ",
"N N O O P Q R R P N O S O T R ",
"U V S S U V W U S X S W S S S ",
"Y Y Z ` ` ` ` `  .`  .Z ` ` ` ",
"..+.@.....................+.+.",
"#.#.#.$.#.#.#.#.#.%.#.#.#.#.#."};
