/* XPM */
static char * hide_inactive_xpm[] = {
"15 18 91 1",
" 	c None",
".	c #707070",
"+	c #6F6F6F",
"@	c #6F6F70",
"#	c #706F70",
"$	c #6F7070",
"%	c #6E6E6E",
"&	c #6E6E6F",
"*	c #6F6E6E",
"=	c #6F6F6E",
"-	c #6F6E6F",
";	c #6E6F6E",
">	c #6D6E6D",
",	c #6D6D6D",
"'	c #6D6E6E",
")	c #6E6E6D",
"!	c #6D6D6E",
"~	c #6C6C6C",
"{	c #6D6C6C",
"]	c #6D6C6D",
"^	c #6C6C6D",
"/	c #6D6D6C",
"(	c #6C6D6C",
"_	c #6B6C6B",
":	c #6C6B6C",
"<	c #6C6B6B",
"[	c #6B6B6C",
"}	c #6B6B6B",
"|	c #6B6C6C",
"1	c #6C6C6B",
"2	c #6A6A6A",
"3	c #6A6B6A",
"4	c #6A6B6B",
"5	c #6B6A6B",
"6	c #6C6D6D",
"7	c #6A6A6B",
"8	c #696A69",
"9	c #6A6A69",
"0	c #828283",
"a	c #858585",
"b	c #828282",
"c	c #696A6A",
"d	c #696969",
"e	c #696869",
"f	c #747474",
"g	c #878787",
"h	c #838383",
"i	c #686868",
"j	c #717171",
"k	c #888888",
"l	c #676768",
"m	c #676867",
"n	c #676767",
"o	c #707170",
"p	c #868686",
"q	c #666667",
"r	c #666666",
"s	c #666766",
"t	c #676666",
"u	c #676868",
"v	c #676667",
"w	c #656565",
"x	c #656566",
"y	c #666565",
"z	c #666665",
"A	c #656666",
"B	c #656665",
"C	c #656464",
"D	c #646565",
"E	c #656564",
"F	c #646564",
"G	c #646464",
"H	c #646465",
"I	c #656465",
"J	c #646363",
"K	c #646463",
"L	c #636363",
"M	c #636364",
"N	c #646364",
"O	c #636463",
"P	c #626362",
"Q	c #636262",
"R	c #626363",
"S	c #636263",
"T	c #626262",
"U	c #616261",
"V	c #626261",
"W	c #626161",
"X	c #616262",
"Y	c #616061",
"Z	c #616161",
"...............",
"++++@++#++++$+#",
"%%&%%*=-%%%%;*;",
">,')>'>,!!>>!>>",
"~~~{],{]^//(~(^",
"_:<[[_~}[|1|_::",
"2345}]6447,/}4}",
"282980a,2)ab28c",
"ddddefghfhgfded",
"iiiiiijkkkjiiii",
"lmnnmnmop.mnnnm",
"qrnrsqqtusrtvrr",
"wwxyyyzAxyBwxBw",
"wCDEFFGHGGEFwIF",
"GGJKLMGKKNOKMLJ",
"PLLLLQRRLRLSLQQ",
"TTUVTTVVTTTTWVX",
"YZZZZZZZZZZZYZZ"};
