/* XPM */
static char * maximize_active_xpm[] = {
"15 18 101 2",
"  	c None",
". 	c #656565",
"+ 	c #555555",
"@ 	c #545454",
"# 	c #545554",
"$ 	c #545455",
"% 	c #555454",
"& 	c #535353",
"* 	c #535354",
"= 	c #535454",
"- 	c #545453",
"; 	c #545353",
"> 	c #525253",
", 	c #525252",
"' 	c #525353",
") 	c #525352",
"! 	c #535253",
"~ 	c #535252",
"{ 	c #515152",
"] 	c #515151",
"^ 	c #515252",
"/ 	c #515251",
"( 	c #525152",
"_ 	c #525251",
": 	c #515050",
"< 	c #505050",
"[ 	c #505150",
"} 	c #505051",
"| 	c #747475",
"1 	c #C9C9C9",
"2 	c #747474",
"3 	c #505151",
"4 	c #515051",
"5 	c #4F4F50",
"6 	c #504F4F",
"7 	c #4F4F4F",
"8 	c #737374",
"9 	c #CECECE",
"0 	c #737474",
"a 	c #4F5050",
"b 	c #504F50",
"c 	c #4E4F4F",
"d 	c #4F4E4F",
"e 	c #7A7A7A",
"f 	c #CCCDCD",
"g 	c #BBBCBC",
"h 	c #7F7E7F",
"i 	c #BCBCBC",
"j 	c #CDCDCD",
"k 	c #7B7B7B",
"l 	c #4F4E4E",
"m 	c #4E4E4F",
"n 	c #4E4D4E",
"o 	c #4E4E4E",
"p 	c #4D4E4E",
"q 	c #B7B7B7",
"r 	c #C4C4C4",
"s 	c #5B5C5C",
"t 	c #5F5F5F",
"u 	c #B8B8B8",
"v 	c #4D4D4E",
"w 	c #4C4D4D",
"x 	c #595859",
"y 	c #575757",
"z 	c #4D4C4E",
"A 	c #4D4D4D",
"B 	c #4C4C4D",
"C 	c #555456",
"D 	c #565658",
"E 	c #4D4C4D",
"F 	c #4B4C4C",
"G 	c #4B4B4C",
"H 	c #4B4C4D",
"I 	c #4C4B4D",
"J 	c #4C4C4C",
"K 	c #4C4B4C",
"L 	c #4B4B4B",
"M 	c #4B4A4B",
"N 	c #4A4B4B",
"O 	c #4B4A4C",
"P 	c #4A4A4B",
"Q 	c #4A4A4A",
"R 	c #4A494A",
"S 	c #494A4A",
"T 	c #494A4B",
"U 	c #49494A",
"V 	c #4A494B",
"W 	c #49484A",
"X 	c #484949",
"Y 	c #48494A",
"Z 	c #494949",
"` 	c #474849",
" .	c #484848",
"..	c #484849",
"+.	c #484749",
"@.	c #474748",
"#.	c #474747",
"$.	c #464747",
"%.	c #464647",
"&.	c #464546",
"*.	c #464646",
". . . . . . . . . . . . . . . ",
"+ + + + + + + + + + + + + + + ",
"@ @ @ @ @ @ # # @ @ @ @ $ % @ ",
"& * * = & * & & & * * - & & ; ",
"> , ' ' > ) ! ' > ) ~ ~ > > ~ ",
"{ ] ^ ^ ] / { @ { { ] ( ^ _ ( ",
": < : [ } : | 1 2 } < } ] 3 4 ",
"5 < 6 7 < 8 9 9 9 0 a a b 5 b ",
"c c d d e f g h i j k l m m m ",
"n o o p q r s p t r u p p p v ",
"w w w w x y z A B C D B A E A ",
"B F G G H I I F H J F K H F J ",
"L L M M N L L O L G N G L M G ",
"P P Q Q R S T T R P Q U Q V T ",
"W X U U W X Y W U Z U Y U U U ",
"` `  ...........+...+. .......",
"@.#.$.@.@.@.@.@.@.@.@.@.@.#.#.",
"%.%.%.&.%.%.%.%.%.*.%.%.%.%.%."};
