/* XPM */
static char * maximize_inactive_xpm[] = {
"15 18 94 2",
"  	c None",
". 	c #707070",
"+ 	c #6F6F6F",
"@ 	c #6F6F70",
"# 	c #706F70",
"$ 	c #6F7070",
"% 	c #6E6E6E",
"& 	c #6E6E6F",
"* 	c #6F6E6E",
"= 	c #6F6F6E",
"- 	c #6F6E6F",
"; 	c #6E6F6E",
"> 	c #6D6E6D",
", 	c #6D6D6D",
"' 	c #6D6E6E",
") 	c #6E6E6D",
"! 	c #6D6D6E",
"~ 	c #6C6C6C",
"{ 	c #6D6C6C",
"] 	c #6D6C6D",
"^ 	c #6C6C6D",
"/ 	c #6D6D6C",
"( 	c #6C6D6C",
"_ 	c #6B6C6B",
": 	c #6C6B6C",
"< 	c #6C6B6B",
"[ 	c #6B6B6C",
"} 	c #6B6B6B",
"| 	c #6B6C6C",
"1 	c #6C6C6B",
"2 	c #6A6A6A",
"3 	c #6A6B6A",
"4 	c #6A6B6B",
"5 	c #6B6A6B",
"6 	c #6A6A6B",
"7 	c #6B6B6A",
"8 	c #696A69",
"9 	c #6A6A69",
"0 	c #69696A",
"a 	c #727172",
"b 	c #868686",
"c 	c #727272",
"d 	c #696A6A",
"e 	c #696969",
"f 	c #696869",
"g 	c #717171",
"h 	c #888888",
"i 	c #686868",
"j 	c #737373",
"k 	c #878787",
"l 	c #838383",
"m 	c #747474",
"n 	c #676768",
"o 	c #676867",
"p 	c #676767",
"q 	c #828282",
"r 	c #858585",
"s 	c #666667",
"t 	c #666666",
"u 	c #676666",
"v 	c #666767",
"w 	c #686968",
"x 	c #686869",
"y 	c #676667",
"z 	c #656565",
"A 	c #656566",
"B 	c #666565",
"C 	c #666665",
"D 	c #656666",
"E 	c #656665",
"F 	c #656464",
"G 	c #646565",
"H 	c #656564",
"I 	c #646564",
"J 	c #646464",
"K 	c #646465",
"L 	c #656465",
"M 	c #646363",
"N 	c #646463",
"O 	c #636363",
"P 	c #636364",
"Q 	c #646364",
"R 	c #636463",
"S 	c #626362",
"T 	c #636262",
"U 	c #626363",
"V 	c #636263",
"W 	c #626262",
"X 	c #616261",
"Y 	c #626261",
"Z 	c #626161",
"` 	c #616262",
" .	c #616061",
"..	c #616161",
". . . . . . . . . . . . . . . ",
"+ + + + @ + + # + + + + $ + # ",
"% % & % % * = - % % % % ; * ; ",
"> , ' ) > ' > , ! ! > > ! > > ",
"~ ~ ~ { ] , { ] ^ / / ( ~ ( ^ ",
"_ : < [ [ _ ~ } [ | 1 | _ : : ",
"2 3 4 5 } 5 4 | 4 6 4 7 } 4 } ",
"2 8 2 9 8 0 a b c 9 8 9 2 8 d ",
"e e e e f g h h h g e e e f e ",
"i i i i j k l m l k m i i i i ",
"n o p p q r ~ o } r q p p p o ",
"s t p t d 0 s u v w x u y t t ",
"z z A B B B C D A B E z A E z ",
"z F G H I I J K J J H I z L I ",
"J J M N O P J N N Q R N P O M ",
"S O O O O T U U O U O V O T T ",
"W W X Y W W Y Y W W W W Z Y ` ",
" ....................... ....."};
