/* XPM */
static char * maximize_active_xpm[] = {
"15 18 76 1",
" 	c None",
".	c #656565",
"+	c #555555",
"@	c #545454",
"#	c #545554",
"$	c #545455",
"%	c #555454",
"&	c #535353",
"*	c #535354",
"=	c #535454",
"-	c #656859",
";	c #8C9365",
">	c #A6B16D",
",	c #545453",
"'	c #545353",
")	c #525253",
"!	c #525252",
"~	c #535453",
"{	c #8B9264",
"]	c #AEBA70",
"^	c #545352",
"/	c #535252",
"(	c #515152",
"_	c #515151",
":	c #8A9264",
"<	c #515252",
"[	c #525251",
"}	c #525152",
"|	c #515050",
"1	c #636656",
"2	c #646657",
"3	c #505151",
"4	c #515051",
"5	c #4F4F50",
"6	c #504F50",
"7	c #4E4F4F",
"8	c #4E4E4F",
"9	c #4E4D4E",
"0	c #4D4E4E",
"a	c #4D4D4E",
"b	c #4C4D4D",
"c	c #899162",
"d	c #4D4C4D",
"e	c #4D4D4D",
"f	c #4C4C4D",
"g	c #5F6253",
"h	c #5F6254",
"i	c #4B4C4C",
"j	c #4C4C4C",
"k	c #4B4B4B",
"l	c #888F61",
"m	c #888F62",
"n	c #4B4A4B",
"o	c #4B4B4C",
"p	c #4A4A4B",
"q	c #4B4B4A",
"r	c #878F61",
"s	c #4A4A4A",
"t	c #4A494B",
"u	c #494A4B",
"v	c #49484A",
"w	c #484949",
"x	c #49494A",
"y	c #5D5F51",
"z	c #5D6051",
"A	c #48494A",
"B	c #474849",
"C	c #484848",
"D	c #484849",
"E	c #484749",
"F	c #474748",
"G	c #474747",
"H	c #464747",
"I	c #464647",
"J	c #464546",
"K	c #464646",
"...............",
"+++++++++++++++",
"@@@@@@##@@@@$%@",
"&**=-;>>;-*,&&'",
")!~{]]]]]]{^))/",
"(_:]]]]]]]]{<[}",
"|1]]]]]]]]]]234",
"5:]]]]]]]]]]:56",
"7>]]]]]]]]]]>88",
"9>]]]]]]]]]]>0a",
"bc]]]]]]]]]]cde",
"fg]]]]]]]]]]hij",
"kkl]]]]]]]]mkno",
"ppqr]]]]]]rsstu",
"vwxxyl>>lzxAxxx",
"BBCDDDDDEDECDDD",
"FGHFFFFFFFFFFGG",
"IIIJIIIIIKIIIII"};
