/* XPM */
static char * maximize_active_xpm[] = {
"15 18 79 1",
" 	c None",
".	c #656565",
"+	c #555555",
"@	c #545454",
"#	c #545554",
"$	c #545455",
"%	c #555454",
"&	c #535353",
"*	c #535354",
"=	c #535454",
"-	c #5E6855",
";	c #769359",
">	c #87B15C",
",	c #545453",
"'	c #545353",
")	c #525253",
"!	c #525252",
"~	c #525453",
"{	c #759259",
"]	c #8CBA5D",
"^	c #769258",
"/	c #535352",
"(	c #535252",
"_	c #515152",
":	c #515151",
"<	c #759258",
"[	c #515252",
"}	c #525251",
"|	c #525152",
"1	c #515050",
"2	c #5C6652",
"3	c #5D6653",
"4	c #505151",
"5	c #515051",
"6	c #4F4F50",
"7	c #504F50",
"8	c #4E4F4F",
"9	c #87B15B",
"0	c #4E4E4F",
"a	c #4E4D4E",
"b	c #4D4E4E",
"c	c #4D4D4E",
"d	c #4C4D4D",
"e	c #749157",
"f	c #4D4C4D",
"g	c #4D4D4D",
"h	c #4C4C4D",
"i	c #58624F",
"j	c #586250",
"k	c #4B4C4C",
"l	c #4C4C4C",
"m	c #4B4B4B",
"n	c #738F56",
"o	c #4B4A4B",
"p	c #4B4B4C",
"q	c #4A4A4B",
"r	c #4B4B4A",
"s	c #728F55",
"t	c #4A4A4A",
"u	c #4A494B",
"v	c #494A4B",
"w	c #49484A",
"x	c #484949",
"y	c #49494A",
"z	c #565F4D",
"A	c #86B15B",
"B	c #738F55",
"C	c #56604D",
"D	c #48494A",
"E	c #474849",
"F	c #484848",
"G	c #484849",
"H	c #484749",
"I	c #474748",
"J	c #474747",
"K	c #464747",
"L	c #464647",
"M	c #464546",
"N	c #464646",
"...............",
"+++++++++++++++",
"@@@@@@##@@@@$%@",
"&**=-;>>;-*,&&'",
")!~{]]]]]]^/))(",
"_:<]]]]]]]]<[}|",
"12]]]]]]]]]]345",
"6<]]]]]]]]]]<67",
"89]]]]]]]]]]900",
"a9]]]]]]]]]]9bc",
"de]]]]]]]]]]efg",
"hi]]]]]]]]]]jkl",
"mmn]]]]]]]]nmop",
"qqrs]]]]]]sttuv",
"wxyyzsAABCyDyyy",
"EEFGGGGGHGHFGGG",
"IJKIIIIIIIIIIJJ",
"LLLMLLLLLNLLLLL"};
