/* XPM */
static char * close_prelight_xpm[] = {
"23 23 106 2",
"  	c None",
". 	c #CECECE",
"+ 	c #C8C8C8",
"@ 	c #C3C3C3",
"# 	c #B8B8B8",
"$ 	c #AEAEAE",
"% 	c #B9B9B9",
"& 	c #C4C4C4",
"* 	c #C7C7C7",
"= 	c #B3B3B3",
"- 	c #A9A9A9",
"; 	c #B5B5B5",
"> 	c #CDCDCD",
", 	c #C6C6C6",
"' 	c #A8A8A8",
") 	c #A4A4A4",
"! 	c #999999",
"~ 	c #939393",
"{ 	c #8D8D8D",
"] 	c #9A9A9A",
"^ 	c #C5C5C5",
"/ 	c #8E8E8E",
"( 	c #D7D7D7",
"_ 	c #E9E9E9",
": 	c #D8D8D8",
"< 	c #8B8B8B",
"[ 	c #A6A6A6",
"} 	c #E5E5E5",
"| 	c #ECECEC",
"1 	c #EAEAEA",
"2 	c #E8E8E8",
"3 	c #A7A7A7",
"4 	c #CCCCCC",
"5 	c #B2B2B2",
"6 	c #959595",
"7 	c #A2A2A2",
"8 	c #E3E3E3",
"9 	c #E4E4E4",
"0 	c #9F9F9F",
"a 	c #A1A1A1",
"b 	c #808080",
"c 	c #DBDBDB",
"d 	c #DDDDDD",
"e 	c #DADADA",
"f 	c #ACACAC",
"g 	c #D9D9D9",
"h 	c #7E7E7E",
"i 	c #BFBFBF",
"j 	c #ADADAD",
"k 	c #D2D2D2",
"l 	c #ABABAB",
"m 	c #484848",
"n 	c #4F4F4F",
"o 	c #545454",
"p 	c #4C4C4C",
"q 	c #AFAFAF",
"r 	c #C1C1C1",
"s 	c #B4B4B4",
"t 	c #CFCFCF",
"u 	c #C2C2C2",
"v 	c #6C6C6C",
"w 	c #626262",
"x 	c #575757",
"y 	c #5A5A5A",
"z 	c #707070",
"A 	c #757575",
"B 	c #C0C0C0",
"C 	c #6D6D6D",
"D 	c #C9C9C9",
"E 	c #CACACA",
"F 	c #797979",
"G 	c #737373",
"H 	c #848484",
"I 	c #696969",
"J 	c #828282",
"K 	c #8A8A8A",
"L 	c #858585",
"M 	c #B6B6B6",
"N 	c #BDBDBD",
"O 	c #525252",
"P 	c #868686",
"Q 	c #818181",
"R 	c #5D5D5D",
"S 	c #B0B0B0",
"T 	c #BCBCBC",
"U 	c #A5A5A5",
"V 	c #8F8F8F",
"W 	c #727272",
"X 	c #686868",
"Y 	c #9B9B9B",
"Z 	c #BEBEBE",
"` 	c #A3A3A3",
" .	c #9D9D9D",
"..	c #5E5E5E",
"+.	c #B7B7B7",
"@.	c #BBBBBB",
"#.	c #B1B1B1",
"$.	c #6F6F6F",
"%.	c #6E6E6E",
"&.	c #666666",
"*.	c #AAAAAA",
"=.	c #7C7C7C",
"-.	c #505050",
";.	c #7A7A7A",
">.	c #747474",
",.	c #606060",
". . . . . . . . . . . . . . . . . . . . . . . ",
". . . . . . . + @ # $ $ % & + . . . . . . . . ",
". . . . . * = - - - - - - - - ; * . . . . . . ",
". . . > , - ' ) ! ~ { { ~ ] ) ' - , . . . . . ",
". . . ^ ' ' ! / , ( _ _ : ^ / ! - ' , . . . . ",
". . , ' ' < [ } | 1 2 2 1 | } [ < 3 - + . . . ",
". 4 5 3 6 7 1 } 8 8 8 8 8 9 } 1 0 6 3 5 > . . ",
". + [ a b c d e f * c c * f e d g h a [ , . . ",
". i 3 / j g k l m n & & o p l k g q / [ r . . ",
". s 3 h i t 4 u v w x y z A & 4 t B h ' ; . . ",
". ' ' C D , , * E F G F H E * , , D C 3 l . . ",
". ' - I ^ & & & s A J K L M & & & ^ I - l . . ",
". = 3 A j u N $ O v J P Q R S N u j A 3 s . . ",
". T U J V i # ! y W u & F X Y # i V J U Z . . ",
". & `  ...5 +.@.$ i +.+.i #.@.+.S R  .` * . . ",
". 4 j 3 Q $.+.s +.s 5 5 s +.s M %.Q [ j > . . ",
". . * ` - &.I l 5 5 #.#.5 5 *.X &.- U D . . . ",
". . . T ` - =.-.;.~ *.*.~ F n =.' 7 N . . . . ",
". . . > @.7 [ ! >.,.p p ,.>.! U ` @.. . . . . ",
". . . . . , *.7 U 3 - ' 3 U a l * . . . . . . ",
". . . . . . > i M j ) ) j M B > . . . . . . . ",
". . . . . . . . . . . . . . . . . . . . . . . ",
". . . . . . . . . . . . . . . . . . . . . . . "};
