/* XPM */
static char * close_pressed_xpm[] = {
"23 23 93 2",
"  	c None",
". 	c #CECECE",
"+ 	c #B8B8B8",
"@ 	c #AEAEAE",
"# 	c #B9B9B9",
"$ 	c #B3B3B3",
"% 	c #A9A9A9",
"& 	c #B5B5B5",
"* 	c #A8A8A8",
"= 	c #999999",
"- 	c #767676",
"; 	c #636363",
"> 	c #4F4F4F",
", 	c #777777",
"' 	c #7F7F7F",
") 	c #555555",
"! 	c #8B8B8B",
"~ 	c #A3A3A3",
"{ 	c #B7B7B7",
"] 	c #686868",
"^ 	c #737373",
"/ 	c #A2A2A2",
"( 	c #9B9B9B",
"_ 	c #A7A7A7",
": 	c #B2B2B2",
"< 	c #828282",
"[ 	c #9C9C9C",
"} 	c #A6A6A6",
"| 	c #5F5F5F",
"1 	c #B1B1B1",
"2 	c #9F9F9F",
"3 	c #939393",
"4 	c #9E9E9E",
"5 	c #818181",
"6 	c #8E8E8E",
"7 	c #B0B0B0",
"8 	c #373737",
"9 	c #3D3D3D",
"0 	c #969696",
"a 	c #414141",
"b 	c #393939",
"c 	c #B4B4B4",
"d 	c #747474",
"e 	c #A1A1A1",
"f 	c #ABABAB",
"g 	c #A5A5A5",
"h 	c #595959",
"i 	c #484848",
"j 	c #494949",
"k 	c #585858",
"l 	c #616161",
"m 	c #696969",
"n 	c #ACACAC",
"o 	c #626262",
"p 	c #717171",
"q 	c #6D6D6D",
"r 	c #B6B6B6",
"s 	c #6B6B6B",
"t 	c #7D7D7D",
"u 	c #7E7E7E",
"v 	c #4E4E4E",
"w 	c #7C7C7C",
"x 	c #7B7B7B",
"y 	c #5B5B5B",
"z 	c #BCBCBC",
"A 	c #8C8C8C",
"B 	c #C2C2C2",
"C 	c #BDBDBD",
"D 	c #C3C3C3",
"E 	c #6A6A6A",
"F 	c #7A7A7A",
"G 	c #BFBFBF",
"H 	c #C5C5C5",
"I 	c #C9C9C9",
"J 	c #C8C8C8",
"K 	c #BABABA",
"L 	c #ADADAD",
"M 	c #8F8F8F",
"N 	c #D1D1D1",
"O 	c #D0D0D0",
"P 	c #CFCFCF",
"Q 	c #CDCDCD",
"R 	c #898989",
"S 	c #929292",
"T 	c #D3D3D3",
"U 	c #D2D2D2",
"V 	c #979797",
"W 	c #868686",
"X 	c #CACACA",
"Y 	c #BBBBBB",
"Z 	c #888888",
"` 	c #AAAAAA",
" .	c #A4A4A4",
". . . . . . . . . . . . . . . . . . . . . . . ",
". . . . . . . . . + @ @ # . . . . . . . . . . ",
". . . . . . $ % % % % % % % % & . . . . . . . ",
". . . . . % * = - ; > > ; , = * % . . . . . . ",
". . . . * * ' ) ! ~ { { ~ ! ) ' % * . . . . . ",
". . . * * ] ^ $ @ / ( ( / @ $ ^ ] _ % . . . . ",
". . : _ < ^ + / [ ( ( ( ( [ / + ^ < _ : . . . ",
". . } [ | 1 ~ 2 ' 3 4 4 3 ' 2 ~ 1 | [ } . . . ",
". . _ 5 6 7 / 5 8 9 0 0 a b 5 / 7 6 5 } . . . ",
". c _ d e f g 4 h > i j k l 2 g f e d * & . . ",
". * * m c f % n & m o ] p + n % f c m _ f . . ",
". * % q r : 7 1 _ s d t , * 1 7 : r q % f . . ",
". $ _ u % # { * v ] w 5 x y % { # % u _ c . . ",
". z g A = B C ( y ^ D D x E 4 C B = A g . . . ",
". . ~ e F G H I { J H H I K I H G F e ~ . . . ",
". . L _ 3 M N . O P Q Q P O . N M 3 } L . . . ",
". . . ~ % R S I T U U U U T I S R % g . . . . ",
". . . z ~ % V W } # X X # } W V * / . . . . . ",
". . . . Y / } ~ 0 M Z Z M 0 ~ g ~ Y . . . . . ",
". . . . . . ` / g _ % * _ g e f . . . . . . . ",
". . . . . . . . r L  . .L r . . . . . . . . . ",
". . . . . . . . . . . . . . . . . . . . . . . ",
". . . . . . . . . . . . . . . . . . . . . . . "};
