/* XPM */
static char * hide_inactive_xpm[] = {
"23 23 19 1",
" 	c None",
".	c #CECECE",
"+	c #BEBFC2",
"@	c #B4B6BA",
"#	c #ADB0B5",
"$	c #C4C6C7",
"%	c #AEB0B5",
"&	c #B9B9BC",
"*	c #BDBEC1",
"=	c #C4C4C5",
"-	c #B7B8BB",
";	c #B2B4B8",
">	c #C3C3C5",
",	c #C7C7C8",
"'	c #BBBDC0",
")	c #B9BABD",
"!	c #BCBCBF",
"~	c #ABAEB3",
"{	c #C3C3C4",
".......................",
".......................",
".......................",
"........+@##@+.........",
"......$%&*==+-%$.......",
".....@;>,,,,,,>;@......",
"....$;,,,,,,,,,,;$.....",
"....%>,,,,,,,,,,>%.....",
"...'-,,,),,,,,,,,&'....",
"...@!,,,~),,,,,,,+@....",
"...#{,,,~~),,,,,,=#....",
"...#=,,,~~~),,,,,=#....",
"...@+,,,~~~~),,,,+@....",
"...'&,,,~~~~~),,,&'....",
"....%>,,,,,,,,,,>%.....",
"....$;,,,,,,,,,,;$.....",
".....@;>,,,,,,>;@......",
"......$%&+==+&%$.......",
"........+@##@+.........",
".......................",
".......................",
".......................",
"......................."};
