/* XPM */
static char * menu_active_xpm[] = {
"23 23 10 1",
" 	c None",
".	c #CECECE",
"+	c #CDCDCD",
"@	c #C9C9C9",
"#	c #C1C1C1",
"$	c #BABABA",
"%	c #BFBFBF",
"&	c #CFCFCF",
"*	c #ECECEC",
"=	c #FFFFFF",
".......................",
".......................",
".......................",
".......................",
".......................",
".......................",
".......................",
".......................",
"........+@#$$#@+.......",
"........@%&**&%@.......",
"........#&====&#.......",
"........$*====*$.......",
"........$*====*$.......",
"........#&====&#.......",
"........@%&**&%@.......",
"........+@#$$#@+.......",
".......................",
".......................",
".......................",
".......................",
".......................",
".......................",
"......................."};
