/* XPM */
static char * shade_toggled_pressed_xpm[] = {
"23 23 76 1",
" 	c None",
".	c #CECECE",
"+	c #C2C1C1",
"@	c #BCBAB9",
"#	c #BDBBBA",
"$	c #BBBAB9",
"%	c #C3C2C0",
"&	c #BFBEBD",
"*	c #CBCBCA",
"=	c #CDCCCC",
"-	c #BFBDBC",
";	c #BAB9B8",
">	c #C9C7C6",
",	c #C5C3C2",
"'	c #CAC8C8",
")	c #C0BEBE",
"!	c #CBCACA",
"~	c #C6C5C4",
"{	c #CECECD",
"]	c #959392",
"^	c #151313",
"/	c #888686",
"(	c #C3C2C1",
"_	c #969593",
":	c #201F1E",
"<	c #969695",
"[	c #22211F",
"}	c #8C8B8A",
"|	c #B1B0B0",
"1	c #9B9999",
"2	c #1E1E1D",
"3	c #B9B9B8",
"4	c #F7F7F7",
"5	c #C5C5C5",
"6	c #8F8E8D",
"7	c #ADACAB",
"8	c #858484",
"9	c #BBBBBA",
"0	c #E1E0E0",
"a	c #D7D6D6",
"b	c #7E7E7C",
"c	c #AEADAC",
"d	c #E0E0E0",
"e	c #E6E6E6",
"f	c #B4B3B2",
"g	c #807F7E",
"h	c #141312",
"i	c #727171",
"j	c #C1C0BF",
"k	c #9B9B9B",
"l	c #D2D2D2",
"m	c #F1F1F1",
"n	c #FBFBFB",
"o	c #F5F5F5",
"p	c #979696",
"q	c #AFAEAD",
"r	c #BEBDBD",
"s	c #F2F1F1",
"t	c #B9B8B8",
"u	c #9D9C9C",
"v	c #B7B6B5",
"w	c #F9F8F8",
"x	c #B3B1B1",
"y	c #C4C3C3",
"z	c #A8A8A7",
"A	c #7F7E7E",
"B	c #C1C0C0",
"C	c #D8D7D6",
"D	c #DCDBDA",
"E	c #C0C0BF",
"F	c #7F7D7D",
"G	c #B9B8B7",
"H	c #939291",
"I	c #8B8A89",
"J	c #CCCCCB",
"K	c #CAC9C8",
".......................",
".......................",
".......................",
".......................",
".........+@#$%.........",
".......&*.....=-.......",
"......;..>,,,>..$......",
".....$..''')'''..@.....",
"....!~.{{{]^/{{{.(!....",
"....;...._:<[}....;....",
"....|...12345:6...|....",
"....7...890.a5b...7....",
"....c...d.....e...c....",
"....f...ghhhhhi...f....",
"....jk.lmnnnnnol.pj....",
".....qr.s44444s.tq.....",
".....~uv.swwws.xu~.....",
"......yzABCDCEFzy......",
".......{G7HIH7G{.......",
"..........JKJ..........",
".......................",
".......................",
"......................."};
