/* XPM */
static char * stick_toggled_prelight_xpm[] = {
"23 23 58 1",
" 	c None",
".	c #CECECE",
"+	c #C2D3DC",
"@	c #BCCAD4",
"#	c #BDCBD3",
"$	c #BBCAD5",
"%	c #C3D4DC",
"&	c #BFD2DD",
"*	c #CBD2D5",
"=	c #CDD1D3",
"-	c #BFD1DD",
";	c #BACFDD",
">	c #C9C7C6",
",	c #C5C3C2",
"'	c #BBD0DE",
")	c #BBD2E0",
"!	c #CAC8C8",
"~	c #BCD2E0",
"{	c #CBD5DC",
"]	c #C6D7E1",
"^	c #CECECD",
"/	c #C3D6E1",
"(	c #BAD2E2",
"_	c #B1D0E4",
":	c #B9CFDC",
"<	c #ADCFE4",
"[	c #7CC2EA",
"}	c #AECFE4",
"|	c #EBEBEB",
"1	c #B4D1E3",
"2	c #C1D5E1",
"3	c #9BCCE9",
"4	c #D2D2D2",
"5	c #97CBE9",
"6	c #AFD0E4",
"7	c #BED8E8",
"8	c #ECEBEB",
"9	c #B9D6E8",
"0	c #9DCBE8",
"a	c #B7D6E8",
"b	c #F2F1F1",
"c	c #F9F8F8",
"d	c #B3D4E8",
"e	c #C4D6E1",
"f	c #A8CEE6",
"g	c #7FC2E9",
"h	c #C1D8E7",
"i	c #D8DFE3",
"j	c #DCE1E4",
"k	c #C0D9E7",
"l	c #7FC1E9",
"m	c #CED0D2",
"n	c #B9D2E2",
"o	c #ADD0E4",
"p	c #93C9E8",
"q	c #8BC5E8",
"r	c #CCD4D9",
"s	c #CAD6DE",
".......................",
".......................",
".......................",
".......................",
".........+@#$%.........",
".......&*.....=-.......",
"......;..>,,,>..'......",
".....)..!!!!!!!..~.....",
"....{].^^^^^^^^^./{....",
"....(.............(....",
"...._......:......_....",
"....<......[......<....",
"....}......|......}....",
"....1.............1....",
"....23.444444444.52....",
".....67.8888888.96.....",
".....]0a.bcccb.d0].....",
"......efghijiklfe......",
".......mnopqponm.......",
"..........rsr..........",
".......................",
".......................",
"......................."};
