/* XPM */
static char * stick_active_xpm[] = {
"23 23 58 1",
" 	c None",
".	c #CECECE",
"+	c #CAC9C9",
"@	c #CAC9C8",
"#	c #C6C5C4",
"$	c #FCFCFC",
"%	c #FBFBFB",
"&	c #C5C4C3",
"*	c #C3C3C2",
"=	c #F5F5F5",
"-	c #F7F7F7",
";	c #F1F1F1",
">	c #C2C2C1",
",	c #BDBCBB",
"'	c #D7D7D6",
")	c #E6E6E5",
"!	c #D2D2D2",
"~	c #E1E1E0",
"{	c #D6D6D6",
"]	c #CBCACA",
"^	c #D7D6D6",
"/	c #DBDBDB",
"(	c #CDCCCC",
"_	c #BAB9B8",
":	c #B1B0B0",
"<	c #C1C0BF",
"[	c #ADACAB",
"}	c #818181",
"|	c #AEADAC",
"1	c #B4B3B2",
"2	c #CECDCD",
"3	c #999999",
"4	c #CBC9C8",
"5	c #959393",
"6	c #AFAEAD",
"7	c #B5B5B5",
"8	c #9D9C9C",
"9	c #ACACAB",
"0	c #D1D1CF",
"a	c #C4C3C2",
"b	c #C0BFBE",
"c	c #C4C4C3",
"d	c #D0D0D0",
"e	c #A9A8A8",
"f	c #C4C3C3",
"g	c #A8A8A7",
"h	c #7E7D7D",
"i	c #B5B4B4",
"j	c #CCCBC9",
"k	c #CECCCB",
"l	c #CCCAC8",
"m	c #B5B5B3",
"n	c #7E7C7C",
"o	c #CECECD",
"p	c #B9B8B7",
"q	c #939291",
"r	c #8B8A89",
"s	c #CCCCCB",
".......................",
".......................",
".......................",
".......................",
".........+...@.........",
".......#.$$$$%.&.......",
"......*=-=;;;=-=>......",
".....,')!!!!!!!~{,.....",
"....].^........./(]....",
"...._............._....",
"....:......<......:....",
"....[......}......[....",
"....|.............|....",
"....1............21....",
"....<3.444444444.5<....",
".....67.&&&&&&&.:6.....",
".....#890abbbcde8#.....",
"......fghijklmngf......",
".......op[qrq[po.......",
"..........s@s..........",
".......................",
".......................",
"......................."};
