/* XPM */
static char * close_prelight_xpm[] = {
"23 23 216 2",
"  	c None",
". 	c #CECECE",
"+ 	c #C8C7D1",
"@ 	c #DEBCBF",
"# 	c #DEAEB2",
"$ 	c #DEA1A6",
"% 	c #DDA1A7",
"& 	c #DEAFB4",
"* 	c #DEBDC0",
"= 	c #C7C7D3",
"- 	c #CEC4CA",
"; 	c #DDA7AC",
"> 	c #DD9AA0",
", 	c #DDAAAE",
"' 	c #CEC5CA",
") 	c #CDCDCD",
"! 	c #DDBFC2",
"~ 	c #DC9BA1",
"{ 	c #DC999F",
"] 	c #D7969C",
"^ 	c #C98C92",
"/ 	c #C0868B",
"( 	c #B98186",
"_ 	c #CA8D93",
": 	c #DCC0C2",
"< 	c #DCBEC1",
"[ 	c #DC9AA0",
"} 	c #DC9A9F",
"| 	c #C88C91",
"1 	c #B58388",
"2 	c #D5C2C5",
"3 	c #DFD4D9",
"4 	c #EBE9EA",
"5 	c #EAE8EA",
"6 	c #DFD5DB",
"7 	c #D5C0C3",
"8 	c #DBC0C2",
"9 	c #CEC3C9",
"0 	c #DB9AA0",
"a 	c #DB9A9F",
"b 	c #B77F84",
"c 	c #BE9FA1",
"d 	c #E8E4E6",
"e 	c #ECECEC",
"f 	c #EAEAEA",
"g 	c #E8E8E8",
"h 	c #C19EA2",
"i 	c #DB999F",
"j 	c #DB9BA1",
"k 	c #CEC6CB",
"l 	c #CDCCCD",
"m 	c #DBA6AB",
"n 	c #C2888D",
"o 	c #BA9B9E",
"p 	c #E5E5E5",
"q 	c #E3E3E3",
"r 	c #E4E4E4",
"s 	c #BA989B",
"t 	c #DAA7AC",
"u 	c #CECDCE",
"v 	c #D7C3C7",
"w 	c #DA979D",
"x 	c #D29399",
"y 	c #A3767A",
"z 	c #DDDADB",
"A 	c #DDDDDD",
"B 	c #DADADA",
"C 	c #ACACAC",
"D 	c #C7C7C7",
"E 	c #DBDBDB",
"F 	c #DDD8DB",
"G 	c #A17478",
"H 	c #D3C2C8",
"I 	c #D9B8BB",
"J 	c #B98287",
"K 	c #BDA9AA",
"L 	c #D9D9D9",
"M 	c #D2D2D2",
"N 	c #ABABAB",
"O 	c #484848",
"P 	c #4F4F4F",
"Q 	c #C4C4C4",
"R 	c #545454",
"S 	c #4C4C4C",
"T 	c #BFAAAC",
"U 	c #DA989E",
"V 	c #D9BABD",
"W 	c #D9AAAE",
"X 	c #DA999F",
"Y 	c #A57378",
"Z 	c #C8BDBF",
"` 	c #CFCFCF",
" .	c #CCCCCC",
"..	c #C2C2C2",
"+.	c #6C6C6C",
"@.	c #626262",
"#.	c #575757",
"$.	c #5A5A5A",
"%.	c #707070",
"&.	c #757575",
"*.	c #C9BEBF",
"=.	c #D8ABAF",
"-.	c #D89BA1",
";.	c #DA9AA0",
">.	c #906367",
",.	c #CCC8CB",
"'.	c #C6C6C6",
").	c #CACACA",
"!.	c #797979",
"~.	c #737373",
"{.	c #848484",
"].	c #CBC8C9",
"^.	c #D99EA3",
"/.	c #8B6064",
"(.	c #C8C4C5",
"_.	c #B4B4B4",
":.	c #828282",
"<.	c #8A8A8A",
"[.	c #858585",
"}.	c #B6B6B6",
"|.	c #C9C4C4",
"1.	c #DB9BA0",
"2.	c #D8A9AD",
"3.	c #996B6F",
"4.	c #B6AAAB",
"5.	c #BDBDBD",
"6.	c #AEAEAE",
"7.	c #525252",
"8.	c #868686",
"9.	c #818181",
"0.	c #5D5D5D",
"a.	c #B0B0B0",
"b.	c #B7AAAC",
"c.	c #D7AAAE",
"d.	c #D6B5B8",
"e.	c #D8979D",
"f.	c #A9777B",
"g.	c #9F8A8C",
"h.	c #BFBFBF",
"i.	c #B8B8B8",
"j.	c #999999",
"k.	c #727272",
"l.	c #686868",
"m.	c #9B9B9B",
"n.	c #A08A8D",
"o.	c #D6B7BA",
"p.	c #D4C0C2",
"q.	c #D7959B",
"r.	c #CB9096",
"s.	c #7A5659",
"t.	c #B5B1B3",
"u.	c #B7B7B7",
"v.	c #BBBBBB",
"w.	c #B1B1B1",
"x.	c #B3AFB1",
"y.	c #795559",
"z.	c #D4C3C5",
"A.	c #D6A1A6",
"B.	c #D9999E",
"C.	c #A8767A",
"D.	c #84696B",
"E.	c #B2B2B2",
"F.	c #85686A",
"G.	c #D8989E",
"H.	c #D5A2A7",
"I.	c #CFC5C8",
"J.	c #D6959B",
"K.	c #D99BA0",
"L.	c #855D61",
"M.	c #7E6365",
"N.	c #AFAAAB",
"O.	c #AEA9AA",
"P.	c #7F6265",
"Q.	c #DA9BA1",
"R.	c #D6979D",
"S.	c #CFC7CA",
"T.	c #D3B5B8",
"U.	c #A27276",
"V.	c #67494C",
"W.	c #8A7678",
"X.	c #9D9092",
"Y.	c #ADA9AA",
"Z.	c #ADA9A9",
"`.	c #9D9091",
" +	c #897477",
".+	c #67484B",
"++	c #D89AA0",
"@+	c #D6949A",
"#+	c #D2B7B9",
"$+	c #D2B4B7",
"%+	c #D5949A",
"&+	c #D7989E",
"*+	c #C58D92",
"=+	c #986A6E",
"-+	c #7E585B",
";+	c #644548",
">+	c #D7979D",
",+	c #D1B5B7",
"'+	c #CFC4C5",
")+	c #D49EA3",
"!+	c #D8999F",
"~+	c #D99BA1",
"{+	c #D7999E",
"]+	c #D7979C",
"^+	c #D59399",
"/+	c #D3A0A4",
"(+	c #CEC5C6",
"_+	c #CECDCD",
":+	c #CFBBBD",
"<+	c #D1AFB2",
"[+	c #D3A3A7",
"}+	c #D4979C",
"|+	c #D3979D",
"1+	c #D2A3A8",
"2+	c #D0AFB2",
"3+	c #CFBCBE",
". . . . . . . . . . . . . . . . . . . . . . . ",
". . . . . . . + @ # $ % & * = . . . . . . . . ",
". . . . . - ; > > > > > > > > , ' . . . . . . ",
". . . ) ! ~ { ] ^ / ( ( / _ ] { ~ : . . . . . ",
". . . < [ } | 1 2 3 4 5 6 7 1 | > { 8 . . . . ",
". . 9 0 a b c d e f g g f e d h b i j k . . . ",
". l m i n o f p q q q q q r p f s n i t u . . ",
". v w x y z A B C D E E D C B A F G x w H . . ",
". I i J K L M N O P Q Q R S N M L T J U V . . ",
". W X Y Z `  ...+.@.#.$.%.&.Q  .` *.Y 0 =.. . ",
". -.;.>.,.'.'.D ).!.~.!.{.).D '.'.].>.X ^.. . ",
". -.j /.(.Q Q Q _.&.:.<.[.}.Q Q Q |./.1.^.. . ",
". 2.X 3.4...5.6.7.+.:.8.9.0.a.5...b.3.X c.. . ",
". d.e.f.g.h.i.j.$.k...Q !.l.m.i.h.n.f.e.o.. . ",
". p.q.r.s.t.u.v.6.h.u.u.h.w.v.u.x.y.r.q.z.. . ",
". l A.B.C.D.u._.u._.E.E._.u._.}.F.C.G.H.u . . ",
". . I.J.K.L.M.N.E.E.w.w.E.E.O.P.L.Q.R.S.. . . ",
". . . T.q.K.U.V.W.X.Y.Z.`. +.+U.++@+#+. . . . ",
". . . ) $+%+&+*+=+-+;+;+-+=+*+>+J.,+. . . . . ",
". . . . . '+)+%+>+!+~+-.{+]+^+/+(+. . . . . . ",
". . . . . . _+:+<+[+}+|+1+2+3+u . . . . . . . ",
". . . . . . . . . . . . . . . . . . . . . . . ",
". . . . . . . . . . . . . . . . . . . . . . . "};
