/* XPM */
static char * maximize_toggled_pressed_xpm[] = {
"23 23 211 2",
"  	c None",
". 	c #CECECE",
"+ 	c #DFCBCD",
"@ 	c #DEBCBF",
"# 	c #DEAEB2",
"$ 	c #DEA1A6",
"% 	c #DDA1A7",
"& 	c #DEAFB4",
"* 	c #DEBDC0",
"= 	c #DFCCCE",
"- 	c #D2C9C8",
"; 	c #DDA7AC",
"> 	c #DD9AA0",
", 	c #DDAAAE",
"' 	c #CFC8C7",
") 	c #DDBFC2",
"! 	c #DC9BA1",
"~ 	c #DC999F",
"{ 	c #D7969C",
"] 	c #C98C92",
"^ 	c #C0868B",
"/ 	c #B98186",
"( 	c #CA8D93",
"_ 	c #DCC0C2",
": 	c #DCBEC1",
"< 	c #DC9AA0",
"[ 	c #DC9A9F",
"} 	c #C88C91",
"| 	c #B58388",
"1 	c #D5C2C5",
"2 	c #DEDAD9",
"3 	c #EAE8E8",
"4 	c #EBE9E9",
"5 	c #DFD9D7",
"6 	c #D5C0C3",
"7 	c #DBC0C2",
"8 	c #D4CBCA",
"9 	c #DB9AA0",
"0 	c #DB9A9F",
"a 	c #B77F84",
"b 	c #BCA09F",
"c 	c #E8E6E6",
"d 	c #ECECEC",
"e 	c #EAEAEA",
"f 	c #E8E8E8",
"g 	c #BF9FA0",
"h 	c #DB999F",
"i 	c #DB9BA1",
"j 	c #D2CBCA",
"k 	c #CECDCD",
"l 	c #DBA6AB",
"m 	c #C2888D",
"n 	c #BA9B9E",
"o 	c #E5E5E5",
"p 	c #E3E3E3",
"q 	c #E4E4E4",
"r 	c #C1C1C1",
"s 	c #BA989B",
"t 	c #DAA7AC",
"u 	c #DAC6C8",
"v 	c #DA979D",
"w 	c #D29399",
"x 	c #A3767A",
"y 	c #DDDAD9",
"z 	c #DDDDDD",
"A 	c #DADADA",
"B 	c #DCDCDC",
"C 	c #454545",
"D 	c #BCBCBC",
"E 	c #DCDAD8",
"F 	c #A17478",
"G 	c #D9C8CA",
"H 	c #D9B8BB",
"I 	c #B98287",
"J 	c #BAACA7",
"K 	c #D9D9D9",
"L 	c #D2D2D2",
"M 	c #D4D4D4",
"N 	c #5D5D5D",
"O 	c #525252",
"P 	c #B7B7B7",
"Q 	c #D3D3D3",
"R 	c #B8AAA5",
"S 	c #DA989E",
"T 	c #D9BABD",
"U 	c #D9AAAE",
"V 	c #DA999F",
"W 	c #A57378",
"X 	c #C5BDBC",
"Y 	c #D0D0D0",
"Z 	c #CCCCCC",
"` 	c #686868",
" .	c #777777",
"..	c #555555",
"+.	c #B3B3B3",
"@.	c #C5BCBB",
"#.	c #D8ABAF",
"$.	c #D89BA1",
"%.	c #DA9AA0",
"&.	c #8E6765",
"*.	c #D0CCCD",
"=.	c #C8C8C8",
"-.	c #C7C7C7",
";.	c #656565",
">.	c #707070",
",.	c #4C4C4C",
"'.	c #AEAEAE",
").	c #D0CCCC",
"!.	c #D99EA3",
"~.	c #8B6064",
"{.	c #C8C4C5",
"].	c #C0C0C0",
"^.	c #A7A7A7",
"/.	c #404040",
"(.	c #494949",
"_.	c #484848",
":.	c #C5C5C5",
"<.	c #C8C3C3",
"[.	c #DB9BA0",
"}.	c #D8A9AD",
"|.	c #986C6E",
"1.	c #B2ABA9",
"2.	c #BFBFBF",
"3.	c #6B6B6B",
"4.	c #787878",
"5.	c #6E6E6E",
"6.	c #B2AAA8",
"7.	c #D7AAAE",
"8.	c #D6B5B8",
"9.	c #D8979D",
"0.	c #A9777B",
"a.	c #9C8C8A",
"b.	c #BDBDBD",
"c.	c #B8B8B8",
"d.	c #6A6A6A",
"e.	c #9D8B8A",
"f.	c #D6B7BA",
"g.	c #D4C0C2",
"h.	c #D7959B",
"i.	c #CB9096",
"j.	c #7A5659",
"k.	c #B5B3B1",
"l.	c #B5B5B5",
"m.	c #BABABA",
"n.	c #B9B9B9",
"o.	c #5C5C5C",
"p.	c #B4B2AF",
"q.	c #795559",
"r.	c #D4C3C5",
"s.	c #CFCECE",
"t.	c #D6A1A6",
"u.	c #D9999E",
"v.	c #A8767A",
"w.	c #836A6A",
"x.	c #B4B4B4",
"y.	c #B2B2B2",
"z.	c #B6B6B6",
"A.	c #846869",
"B.	c #D8989E",
"C.	c #D5A2A7",
"D.	c #CFCFCF",
"E.	c #D2C8C8",
"F.	c #D6959B",
"G.	c #D99BA0",
"H.	c #855D61",
"I.	c #7E6365",
"J.	c #ADA9A8",
"K.	c #B1B1B1",
"L.	c #7F6265",
"M.	c #DA9BA1",
"N.	c #D6979D",
"O.	c #D2C9C9",
"P.	c #D3B5B8",
"Q.	c #A27276",
"R.	c #67494C",
"S.	c #897B77",
"T.	c #9B9390",
"U.	c #ABA8A8",
"V.	c #877975",
"W.	c #67484B",
"X.	c #D89AA0",
"Y.	c #D6949A",
"Z.	c #D2B7B9",
"`.	c #D2B4B7",
" +	c #D5949A",
".+	c #D7989E",
"++	c #C58D92",
"@+	c #976D6D",
"#+	c #7E585B",
"$+	c #644548",
"%+	c #D7979D",
"&+	c #D1B5B7",
"*+	c #CFC4C5",
"=+	c #D49EA3",
"-+	c #D8999F",
";+	c #D99BA1",
">+	c #D7999E",
",+	c #D7979C",
"'+	c #D59399",
")+	c #D3A0A4",
"!+	c #CFC5C6",
"~+	c #CDCDCD",
"{+	c #CDCCCC",
"]+	c #CFBBBD",
"^+	c #D1AFB2",
"/+	c #D3A3A7",
"(+	c #D4979C",
"_+	c #D3979D",
":+	c #D2A3A8",
"<+	c #D0AFB2",
"[+	c #CFBCBE",
". . . . . . . . . . . . . . . . . . . . . . . ",
". . . . . . . + @ # $ % & * = . . . . . . . . ",
". . . . . - ; > > > > > > > > , ' . . . . . . ",
". . . . ) ! ~ { ] ^ / / ^ ( { ~ ! _ . . . . . ",
". . . : < [ } | 1 2 3 4 5 6 | } > ~ 7 . . . . ",
". . 8 9 0 a b c d e f f e d c g a h i j . . . ",
". k l h m n e o p p q r p p o e s m h t k . . ",
". u v w x y z A A A B C D A A z E F w v G . . ",
". H h I J K L L L L M N O P Q L K R I S T . . ",
". U V W X Y Z Z Z Z . `  ...+.Z Y @.W 9 #.. . ",
". $.%.&.*.=.=.-.-.-.=.;.>.` ,.'.=.).&.V !.. . ",
". $.i ~.{.].^./.C (._.M M M L :.].<.~.[.!.. . ",
". }.V |.1.2.].2.3.4.5.2.D D D D 2.6.|.V 7.. . ",
". 8.9.0.a.b.c.b.D d.;.D c.c.c.c.b.e.0.9.f.. . ",
". g.h.i.j.k.P l.m.n.o.n.l.l.l.P p.q.i.h.r.. . ",
". s.t.u.v.w.P x.y.P z.l.y.y.x.P A.v.B.C.s.. . ",
". D.E.F.G.H.I.J.y.y.K.K.y.y.J.L.H.M.N.O.D.. . ",
". D.D.P.h.G.Q.R.S.T.U.U.T.V.W.Q.X.Y.Z.D.D.. . ",
". . . . `. +.+++@+#+$+$+#+@+++%+F.&+. . . . . ",
". . . . . *+=+ +%+-+;+$.>+,+'+)+!+. . . . . . ",
". ~+~+~+~+~+{+]+^+/+(+_+:+<+[+{+~+~+~+~+~+. . ",
". . . . . . . . . . . . . . . . . . . . . . . ",
". . . . . . . . . . . . . . . . . . . . . . . "};
