/* XPM */
static char * shade_active_xpm[] = {
"23 23 71 1",
" 	c None",
".	c #CECECE",
"+	c #CAC9C9",
"@	c #CAC9C8",
"#	c #C6C5C4",
"$	c #FCFCFC",
"%	c #FBFBFB",
"&	c #C5C4C3",
"*	c #C3C3C2",
"=	c #F5F5F5",
"-	c #F7F7F7",
";	c #F1F1F1",
">	c #C2C2C1",
",	c #BDBCBB",
"'	c #D7D7D6",
")	c #E6E6E5",
"!	c #D2D2D2",
"~	c #E1E1E0",
"{	c #D6D6D6",
"]	c #CBCACA",
"^	c #D7D6D6",
"/	c #616160",
"(	c #676666",
"_	c #737171",
":	c #555352",
"<	c #DBDBDB",
"[	c #CDCCCC",
"}	c #BAB9B8",
"|	c #3A3938",
"1	c #646363",
"2	c #706E6E",
"3	c #323130",
"4	c #B1B0B0",
"5	c #393837",
"6	c #373534",
"7	c #ADACAB",
"8	c #363534",
"9	c #AEADAC",
"0	c #C7C6C5",
"a	c #B4B3B2",
"b	c #737271",
"c	c #141312",
"d	c #676665",
"e	c #CECDCD",
"f	c #C1C0BF",
"g	c #999999",
"h	c #CBC9C8",
"i	c #DCDCDB",
"j	c #959393",
"k	c #AFAEAD",
"l	c #B5B5B5",
"m	c #CCCCCB",
"n	c #9D9C9C",
"o	c #ACACAB",
"p	c #C4C3C2",
"q	c #C0BFBE",
"r	c #C4C4C3",
"s	c #A9A8A8",
"t	c #C4C3C3",
"u	c #A8A8A7",
"v	c #7E7D7D",
"w	c #B5B4B4",
"x	c #CCCBC9",
"y	c #CECCCB",
"z	c #CCCAC8",
"A	c #B5B5B3",
"B	c #7E7C7C",
"C	c #CECECD",
"D	c #B9B8B7",
"E	c #939291",
"F	c #8B8A89",
".......................",
".......................",
".......................",
".......................",
".........+...@.........",
".......#.$$$$%.&.......",
"......*=-=;;;=-=>......",
".....,').!!!!!.~{,.....",
"....].^./(..._:.<[]....",
"....}....|1.23....}....",
"....4.....563.....4....",
"....7......8......7....",
"....9....0.{.0....9....",
"....a...bcccccd..ea....",
"....fg.h.iiiii.h.jf....",
".....kl.m.....[.4k.....",
".....#no.pqqqr.sn#.....",
"......tuvwxyzABut......",
".......CD7EFE7DC.......",
"..........m@m..........",
".......................",
".......................",
"......................."};
