/* XPM */
static char * shade_inactive_xpm[] = {
"23 23 70 1",
" 	c None",
".	c #CACACA",
"+	c #CECECE",
"@	c #CAC9C9",
"#	c #CAC9C8",
"$	c #C6C5C4",
"%	c #FCFCFC",
"&	c #FBFBFB",
"*	c #C5C4C3",
"=	c #C3C3C2",
"-	c #F5F5F5",
";	c #F7F7F7",
">	c #F1F1F1",
",	c #C2C2C1",
"'	c #BDBCBB",
")	c #D7D7D6",
"!	c #E6E6E5",
"~	c #D2D2D2",
"{	c #E1E1E0",
"]	c #D6D6D6",
"^	c #CBCACA",
"/	c #D7D6D6",
"(	c #AEAEAD",
"_	c #B1B0B0",
":	c #B6B5B4",
"<	c #A9A8A7",
"[	c #DBDBDB",
"}	c #CDCCCC",
"|	c #BAB9B8",
"1	c #9E9D9C",
"2	c #AFAEAD",
"3	c #B4B2B2",
"4	c #9A9998",
"5	c #9D9C9B",
"6	c #9B9A99",
"7	c #E0E0E0",
"8	c #ADACAB",
"9	c #9C9B9A",
"0	c #AEADAC",
"a	c #CECECD",
"b	c #B4B3B2",
"c	c #AFADAD",
"d	c #8D8C8B",
"e	c #AAAAA8",
"f	c #CECDCD",
"g	c #C1C0BF",
"h	c #999999",
"i	c #CBC9C8",
"j	c #DCDCDB",
"k	c #959393",
"l	c #B5B5B5",
"m	c #CCCCCB",
"n	c #9D9C9C",
"o	c #ACACAB",
"p	c #C4C3C2",
"q	c #C0BFBE",
"r	c #C4C4C3",
"s	c #A9A8A8",
"t	c #C4C3C3",
"u	c #A8A8A7",
"v	c #7E7D7D",
"w	c #B5B4B4",
"x	c #CCCBC9",
"y	c #CECCCB",
"z	c #CCCAC8",
"A	c #B5B5B3",
"B	c #7E7C7C",
"C	c #B9B8B7",
"D	c #939291",
"E	c #8B8A89",
".......................",
"+++++++++++++++++++++++",
"+++++++++++++++++++++++",
"+++++++++++++++++++++++",
"+++++++++@+++#+++++++++",
"+++++++$+%%%%&+*+++++++",
"++++++=-;->>>-;-,++++++",
"+++++')!+~~~~~+{]'+++++",
"++++^+/+(_+++:<+[}^++++",
"++++|++++12+34++++|++++",
"++++_++++>5647++++_++++",
"++++8+++++>9~+++++8++++",
"++++0++++a+;+a++++0++++",
"++++b+++cddddde++fb++++",
"++++gh+i+jjjjj+i+kg++++",
"+++++2l+m+++++}+_2+++++",
"+++++$no+pqqqr+sn$+++++",
"++++++tuvwxyzABut++++++",
"+++++++aC8DED8Ca+++++++",
"++++++++++m#m++++++++++",
"+++++++++++++++++++++++",
"+++++++++++++++++++++++",
"+++++++++++++++++++++++"};
