/* XPM */
static char * shade_toggled_prelight_xpm[] = {
"23 23 94 2",
"  	c None",
". 	c #CECECE",
"+ 	c #CADAE2",
"@ 	c #D0D4D6",
"# 	c #C6D9E4",
"$ 	c #EAF2F7",
"% 	c #FCFCFC",
"& 	c #FBFBFB",
"* 	c #E9F1F6",
"= 	c #C5D8E4",
"- 	c #C3D9E7",
"; 	c #F5F6F7",
"> 	c #F7F7F7",
", 	c #F5F5F5",
"' 	c #F1F1F1",
") 	c #F5F7F8",
"! 	c #C2D8E6",
"~ 	c #BDD4E2",
"{ 	c #E9EAEB",
"] 	c #E6E6E5",
"^ 	c #D2D2D2",
"/ 	c #E1E1E0",
"( 	c #ECEFF1",
"_ 	c #CBD5DC",
": 	c #CED0D1",
"< 	c #D7D6D6",
"[ 	c #A1D2EF",
"} 	c #029FFC",
"| 	c #92CCEE",
"1 	c #DBDBDB",
"2 	c #CDD7DE",
"3 	c #BAD2E2",
"4 	c #9BCDEB",
"5 	c #0FA3FB",
"6 	c #90D2FB",
"7 	c #11A4FB",
"8 	c #90CAEC",
"9 	c #D4D6D6",
"0 	c #B1D0E4",
"a 	c #9ACAE7",
"b 	c #0DA2FB",
"c 	c #B5E0FA",
"d 	c #F9F9F8",
"e 	c #C2E6FB",
"f 	c #8CC7E8",
"g 	c #ADCFE4",
"h 	c #7AC0EA",
"i 	c #B5DFF9",
"j 	c #F0EFEF",
"k 	c #DAD9D9",
"l 	c #EEEDED",
"m 	c #C1E4FA",
"n 	c #73BEEB",
"o 	c #AECFE4",
"p 	c #C6CFD4",
"q 	c #DFE0E0",
"r 	c #B4D1E3",
"s 	c #CED1D3",
"t 	c #6AB6E4",
"u 	c #009EFB",
"v 	c #5CB4E7",
"w 	c #C1D5E1",
"x 	c #99CAE7",
"y 	c #CBC9C8",
"z 	c #DCDCDB",
"A 	c #95C8E6",
"B 	c #AFD0E4",
"C 	c #B5D0E0",
"D 	c #CCCCCB",
"E 	c #CDCCCC",
"F 	c #B1CEE0",
"G 	c #C6D7E1",
"H 	c #9DCBE8",
"I 	c #ACCCDE",
"J 	c #C4C3C2",
"K 	c #C0BFBE",
"L 	c #C4C4C3",
"M 	c #A9CBDF",
"N 	c #C4D6E1",
"O 	c #A8CEE6",
"P 	c #7EC1E8",
"Q 	c #B5CCDB",
"R 	c #CCD3D6",
"S 	c #CED2D5",
"T 	c #CCD2D5",
"U 	c #B5CEDB",
"V 	c #7EC0E8",
"W 	c #CED0D2",
"X 	c #B9D2E2",
"Y 	c #ADD0E4",
"Z 	c #93C9E8",
"` 	c #8BC5E8",
" .	c #CCD4D9",
"..	c #CAD6DE",
". . . . . . . . . . . . . . . . . . . . . . . ",
". . . . . . . . . . . . . . . . . . . . . . . ",
". . . . . . . . . . . . . . . . . . . . . . . ",
". . . . . . . . . . . . . . . . . . . . . . . ",
". . . . . . . . . + . @ . + . . . . . . . . . ",
". . . . . . . # $ % % % % & * = . . . . . . . ",
". . . . . . - ; > , ' ' ' , > ) ! . . . . . . ",
". . . . . ~ { ] ^ ^ ^ . ^ ^ ^ / ( ~ . . . . . ",
". . . . _ : < . . . [ } | . . . 1 2 _ . . . . ",
". . . . 3 . . . . 4 5 6 7 8 . . . 9 3 . . . . ",
". . . . 0 . . . a b c d e 5 f . . . 0 . . . . ",
". . . . g . . . h i j k l m n . . . g . . . . ",
". . . . o . . . ^ . p p p . q . . . o . . . . ",
". . . . r s . . t u u u u u v . . s r . . . . ",
". . . . w x . y . z z z z z . y . A w . . . . ",
". . . . . B C . D . . . . . E . F B . . . . . ",
". . . . . G H I . J K K K L . M H G . . . . . ",
". . . . . . N O P Q R S T U V O N . . . . . . ",
". . . . . . . W X Y Z ` Z Y X W . . . . . . . ",
". . . . . . . . . .  ... .. . . . . . . . . . ",
". . . . . . . . . . . . . . . . . . . . . . . ",
". . . . . . . . . . . . . . . . . . . . . . . ",
". . . . . . . . . . . . . . . . . . . . . . . "};
