/* XPM */
static char * shade_prelight_xpm[] = {
"23 23 91 1",
" 	c None",
".	c #CECECE",
"+	c #CADAE2",
"@	c #D0D4D6",
"#	c #C6D9E4",
"$	c #EAF2F7",
"%	c #FCFCFC",
"&	c #FBFBFB",
"*	c #E9F1F6",
"=	c #C5D8E4",
"-	c #C3D9E7",
";	c #F5F6F7",
">	c #F7F7F7",
",	c #F5F5F5",
"'	c #F1F1F1",
")	c #F5F7F8",
"!	c #C2D8E6",
"~	c #BDD4E2",
"{	c #E9EAEB",
"]	c #E6E6E5",
"^	c #D2D2D2",
"/	c #E1E1E0",
"(	c #ECEFF1",
"_	c #CBD5DC",
":	c #CED0D1",
"<	c #D7D6D6",
"[	c #55B9F5",
"}	c #5BBCF5",
"|	c #68BFF3",
"1	c #47B4F5",
"2	c #DBDBDB",
"3	c #CDD7DE",
"4	c #BAD2E2",
"5	c #D6DCE0",
"6	c #2AACF9",
"7	c #58B9F3",
"8	c #65BCF1",
"9	c #21A9F9",
"0	c #D4DFE6",
"a	c #D4D6D6",
"b	c #B1D0E4",
"c	c #E9F6FD",
"d	c #29ABF8",
"e	c #26A9F6",
"f	c #E2F3FD",
"g	c #ADCFE4",
"h	c #26AAF9",
"i	c #DDF0FB",
"j	c #AECFE4",
"k	c #C6CFD4",
"l	c #D2DBE0",
"m	c #EEF8FE",
"n	c #D3DCE2",
"o	c #B4D1E3",
"p	c #CED1D3",
"q	c #6AB6E4",
"r	c #009EFB",
"s	c #5CB4E7",
"t	c #C1D5E1",
"u	c #99CAE7",
"v	c #CBC9C8",
"w	c #DCDCDB",
"x	c #95C8E6",
"y	c #AFD0E4",
"z	c #B5D0E0",
"A	c #CCCCCB",
"B	c #CDCCCC",
"C	c #B1CEE0",
"D	c #C6D7E1",
"E	c #9DCBE8",
"F	c #ACCCDE",
"G	c #C4C3C2",
"H	c #C0BFBE",
"I	c #C4C4C3",
"J	c #A9CBDF",
"K	c #C4D6E1",
"L	c #A8CEE6",
"M	c #7EC1E8",
"N	c #B5CCDB",
"O	c #CCD3D6",
"P	c #CED2D5",
"Q	c #CCD2D5",
"R	c #B5CEDB",
"S	c #7EC0E8",
"T	c #CED0D2",
"U	c #B9D2E2",
"V	c #ADD0E4",
"W	c #93C9E8",
"X	c #8BC5E8",
"Y	c #CCD4D9",
"Z	c #CAD6DE",
".......................",
".......................",
".......................",
".......................",
".........+.@.+.........",
".......#$%%%%&*=.......",
"......-;>,''',>)!......",
".....~{].^^^^^./(~.....",
"...._:<.[}...|1.23_....",
"....4...567.890..a4....",
"....b....cde9f....b....",
"....g.....chi.....g....",
"....j....klmnk....j....",
"....op..qrrrrrs..po....",
"....tu.v.wwwww.v.xt....",
".....yz.A.....B.Cy.....",
".....DEF.GHHHI.JED.....",
"......KLMNOPQRSLK......",
".......TUVWXWVUT.......",
"..........YZY..........",
".......................",
".......................",
"......................."};
