/* XPM */
static char * shade_pressed_xpm[] = {
"23 23 71 1",
" 	c None",
".	c #CECECE",
"+	c #C2C1C1",
"@	c #BCBAB9",
"#	c #BDBBBA",
"$	c #BBBAB9",
"%	c #C3C2C0",
"&	c #BFBEBD",
"*	c #CBCBCA",
"=	c #CDCCCC",
"-	c #BFBDBC",
";	c #BAB9B8",
">	c #C9C7C6",
",	c #C5C3C2",
"'	c #C4C2C2",
")	c #CAC8C8",
"!	c #CBCACA",
"~	c #C6C5C4",
"{	c #CECECD",
"]	c #585756",
"^	c #5C5B5B",
"/	c #CDCCCB",
"(	c #CFCECD",
"_	c #676565",
":	c #4D4B4A",
"<	c #C3C2C1",
"[	c #383736",
"}	c #5D5C5C",
"|	c #D2D1D0",
"1	c #686766",
"2	c #31302E",
"3	c #B1B0B0",
"4	c #353433",
"5	c #31302F",
"6	c #ADACAB",
"7	c #363634",
"8	c #AEADAC",
"9	c #D6D6D6",
"0	c #B4B3B2",
"a	c #807F7E",
"b	c #141312",
"c	c #727171",
"d	c #C1C0BF",
"e	c #9B9B9B",
"f	c #D2D2D2",
"g	c #F1F1F1",
"h	c #FBFBFB",
"i	c #F5F5F5",
"j	c #979696",
"k	c #AFAEAD",
"l	c #BEBDBD",
"m	c #F2F1F1",
"n	c #F7F7F7",
"o	c #B9B8B8",
"p	c #9D9C9C",
"q	c #B7B6B5",
"r	c #F9F8F8",
"s	c #B3B1B1",
"t	c #C4C3C3",
"u	c #A8A8A7",
"v	c #7F7E7E",
"w	c #C1C0C0",
"x	c #D8D7D6",
"y	c #DCDBDA",
"z	c #C0C0BF",
"A	c #7F7D7D",
"B	c #B9B8B7",
"C	c #939291",
"D	c #8B8A89",
"E	c #CCCCCB",
"F	c #CAC9C8",
".......................",
".......................",
".......................",
".......................",
".........+@#$%.........",
".......&*.....=-.......",
"......;..>,,,>..$......",
".....$..')))))'..@.....",
"....!~.{]^/((_:{.<!....",
"....;....[}|12....;....",
"....3.....[45.....3....",
"....6......7......6....",
"....8......9......8....",
"....0...abbbbbc...0....",
"....de.fghhhhhif.jd....",
".....kl.mnnnnnm.ok.....",
".....~pq.mrrrm.sp~.....",
"......tuvwxyxzAut......",
".......{B6CDC6B{.......",
"..........EFE..........",
".......................",
".......................",
"......................."};
