/* XPM */
static char * shade_toggled_inactive_xpm[] = {
"23 23 73 1",
" 	c None",
".	c #CACACA",
"+	c #F9F9F9",
"@	c #CECECE",
"#	c #CAC9C9",
"$	c #CAC9C8",
"%	c #C6C5C4",
"&	c #FCFCFC",
"*	c #FBFBFB",
"=	c #C5C4C3",
"-	c #C3C3C2",
";	c #F5F5F5",
">	c #F7F7F7",
",	c #F1F1F1",
"'	c #C2C2C1",
")	c #BDBCBB",
"!	c #D7D7D6",
"~	c #E6E6E5",
"{	c #D2D2D2",
"]	c #E1E1E0",
"^	c #D6D6D6",
"/	c #CBCACA",
"(	c #D7D6D6",
"_	c #CCCCCC",
":	c #8E8D8C",
"<	c #C6C5C5",
"[	c #DBDBDB",
"}	c #CDCCCC",
"|	c #BAB9B8",
"1	c #C8C7C6",
"2	c #939291",
"3	c #CCCACA",
"4	c #949392",
"5	c #C4C3C2",
"6	c #B1B0B0",
"7	c #C6C5C3",
"8	c #929190",
"9	c #F9F9F8",
"0	c #C0C0BE",
"a	c #ADACAB",
"b	c #B9B8B8",
"c	c #B7B5B5",
"d	c #AEADAC",
"e	c #CECECD",
"f	c #B4B3B2",
"g	c #AFADAD",
"h	c #8D8C8B",
"i	c #AAAAA8",
"j	c #CECDCD",
"k	c #C1C0BF",
"l	c #999999",
"m	c #CBC9C8",
"n	c #DCDCDB",
"o	c #959393",
"p	c #AFAEAD",
"q	c #B5B5B5",
"r	c #CCCCCB",
"s	c #9D9C9C",
"t	c #ACACAB",
"u	c #C0BFBE",
"v	c #C4C4C3",
"w	c #A9A8A8",
"x	c #C4C3C3",
"y	c #A8A8A7",
"z	c #7E7D7D",
"A	c #B5B4B4",
"B	c #CCCBC9",
"C	c #CECCCB",
"D	c #CCCAC8",
"E	c #B5B5B3",
"F	c #7E7C7C",
"G	c #B9B8B7",
"H	c #8B8A89",
".......................",
"+++++++++++++++++++++++",
"@@@@@@@@@@@@@@@@@@@@@@@",
"@@@@@@@@@@@@@@@@@@@@@@@",
"@@@@@@@@@#@@@$@@@@@@@@@",
"@@@@@@@%@&&&&*@=@@@@@@@",
"@@@@@@-;>;,,,;>;'@@@@@@",
"@@@@@)!~{{{@{{{]^)@@@@@",
"@@@@/@(@@@_:<@@@[}/@@@@",
"@@@@|@@@@12345@@@@|@@@@",
"@@@@6@@@78@9@20@@@6@@@@",
"@@@@a@@@b@(@@@c@@@a@@@@",
"@@@@d@@@@@eee@(@@@d@@@@",
"@@@@f@@@ghhhhhi@@jf@@@@",
"@@@@kl@m@nnnnn@m@ok@@@@",
"@@@@@pq@r@@@@@}@6p@@@@@",
"@@@@@%st@5uuuv@ws%@@@@@",
"@@@@@@xyzABCDEFyx@@@@@@",
"@@@@@@@eGa2H2aGe@@@@@@@",
"@@@@@@@@@@r$r@@@@@@@@@@",
"@@@@@@@@@@@@@@@@@@@@@@@",
"@@@@@@@@@@@@@@@@@@@@@@@",
"@@@@@@@@@@@@@@@@@@@@@@@"};
